<?xml version="1.0" encoding="UTF-8"?>
<svg id="Layer_2" data-name="Layer 2" xmlns="http://www.w3.org/2000/svg" xmlns:xlink="http://www.w3.org/1999/xlink" viewBox="0 0 600 199.99">
  <defs>
    <style>
      .cls-1 {
        fill: url(#Gradiente_sem_nome_2);
      }

      .cls-1, .cls-2, .cls-3, .cls-4, .cls-5, .cls-6, .cls-7, .cls-8, .cls-9, .cls-10, .cls-11, .cls-12 {
        stroke-width: 0px;
      }

      .cls-2, .cls-13 {
        fill: #4b4b4a;
      }

      .cls-13 {
        font-family: Arial-BoldMT, Arial;
        font-size: 4.99px;
        font-weight: 700;
        isolation: isolate;
      }

      .cls-3 {
        fill: #ebebeb;
      }

      .cls-4 {
        fill: #3db54a;
      }

      .cls-5 {
        fill: #002171;
      }

      .cls-6 {
        fill: #4c4c4e;
      }

      .cls-7 {
        fill: #f9f9fa;
      }

      .cls-8 {
        fill: #fff;
      }

      .cls-9 {
        fill: url(#Gradiente_sem_nome_5);
      }

      .cls-10 {
        fill: url(#Gradiente_sem_nome_3);
      }

      .cls-11 {
        fill: #e60000;
      }

      .cls-12 {
        fill: #ba1319;
      }
    </style>
    <linearGradient id="Gradiente_sem_nome_5" data-name="Gradiente sem nome 5" x1="496.34" y1="164.03" x2="556.62" y2="164.03" gradientTransform="translate(270.19 -324.23) rotate(45)" gradientUnits="userSpaceOnUse">
      <stop offset="0" stop-color="#e1b090"/>
      <stop offset=".12" stop-color="#c29375"/>
      <stop offset=".19" stop-color="#c69779"/>
      <stop offset=".26" stop-color="#d1a486"/>
      <stop offset=".34" stop-color="#e3ba9c"/>
      <stop offset=".4" stop-color="#f6d0b2"/>
      <stop offset=".91" stop-color="#b17f60"/>
    </linearGradient>
    <linearGradient id="Gradiente_sem_nome_2" data-name="Gradiente sem nome 2" x1="513.03" y1="177.82" x2="539.92" y2="177.82" gradientUnits="userSpaceOnUse">
      <stop offset="0" stop-color="#e1b090"/>
      <stop offset=".12" stop-color="#c29375"/>
      <stop offset=".19" stop-color="#c69779"/>
      <stop offset=".91" stop-color="#b17f60"/>
    </linearGradient>
    <linearGradient id="Gradiente_sem_nome_3" data-name="Gradiente sem nome 3" x1="501.56" y1="164.26" x2="542.75" y2="139.95" gradientUnits="userSpaceOnUse">
      <stop offset="0" stop-color="#b17f60"/>
      <stop offset=".18" stop-color="#e2b191"/>
      <stop offset=".96" stop-color="#f6d0b2"/>
    </linearGradient>
  </defs>
  <g id="Assinatura">
    <g id="Left">
      <g id="Body-BackGround">
        <path id="Red-foot" class="cls-12" d="M0,199.99h375.54v-81.08h-11.24c-16.79,24.73-57.8,58.96-156.22,58.96C71.88,177.87,12.05,112.32,0,97.12"/>
        <path id="Grey-Bar" class="cls-6" d="M213.22,198.61c105.43,0,151.07-60.66,160.83-79.7h-19.74s0,0,0,0c-21.93,20.25-62.08,45.47-126,45.47-91.23,0-175.96-93.99-212.17-164.38H0v100.92c13.55,16.66,85.98,97.69,213.22,97.69Z"/>
        <path id="White-Line" class="cls-3" d="M213.22,198.61c105.43,0,151.07-60.66,160.83-79.7h-.79c-44.09,60.67-164.62,103.28-262.64,30.7C49.93,104.66,9.81,41.8,0,25.51v75.41c13.55,16.66,85.98,97.69,213.22,97.69Z"/>
        <g id="Logo-BEL">
          <g id="Branding_Text" data-name="Branding Text">
            <path id="Char-B" class="cls-6" d="M186.17,104.12v-.04c.85-.35,1.39-1.14,1.39-2.14,0-1.37-1.16-2.29-2.88-2.29h-3.62v8.99h3.61c1.98,0,3.2-.9,3.2-2.34,0-1.12-.64-1.87-1.7-2.18ZM183.03,101.35h1.52c.62,0,1.03.39,1.03.96,0,.66-.37,1.08-1,1.08h-1.54v-2.04ZM184.56,106.95h-1.53v-2.03h1.63c.72,0,1.18.42,1.18,1.02s-.51,1.01-1.29,1.01Z"/>
            <path id="Char-u" class="cls-6" d="M192.73,105.61c0,.98-.51,1.55-1.23,1.55-.64,0-.98-.36-.98-1.29v-3.51h-1.81v3.75c0,1.66.84,2.65,2.26,2.65.78,0,1.54-.36,1.85-.9h.04v.77h1.68v-6.27h-1.81v3.24Z"/>
            <path id="Char-s" class="cls-6" d="M197.27,104.2c0-.33.35-.53.85-.53.53,0,1.25.15,1.88.41v-1.43c-.53-.24-1.3-.41-2-.41-1.58,0-2.49.75-2.49,1.93,0,2.21,3.04,1.77,3.04,2.63,0,.36-.33.55-1.01.55-.54,0-1.28-.17-1.86-.42v1.43c.59.26,1.37.41,1.98.41,1.68,0,2.68-.72,2.68-1.97,0-2.22-3.06-1.76-3.06-2.61Z"/>
            <path id="Char-c" class="cls-6" d="M201.02,105.51c0,1.99,1.27,3.26,3.26,3.26.54,0,1.23-.12,1.75-.33v-1.58c-.47.21-.99.32-1.41.32-1.08,0-1.76-.66-1.76-1.67s.68-1.67,1.76-1.67c.42,0,.94.12,1.41.32v-1.58c-.51-.22-1.21-.33-1.75-.33-1.99,0-3.26,1.27-3.26,3.26Z"/>
            <path id="Char-h" class="cls-6" d="M210.41,102.25c-.72,0-1.41.37-1.72.9h-.04v-3.49h-1.81v8.99h1.81v-3.16c0-1.01.49-1.63,1.21-1.63.65,0,1,.44,1,1.28v3.51h1.81v-3.75c0-1.66-.84-2.65-2.26-2.65Z"/>
            <rect id="Char-l" class="cls-6" x="213.83" y="99.65" width="1.81" height="8.99"/>
            <path id="Char-e3" class="cls-6" d="M219.52,102.25c-1.81,0-2.95,1.26-2.95,3.26s1.26,3.26,3.22,3.26c.63,0,1.45-.17,2.03-.42v-1.4c-.59.21-1.3.36-1.85.36-.98,0-1.55-.49-1.63-1.35h3.67c.55-2.25-.51-3.71-2.49-3.71ZM218.34,104.91c.11-.82.51-1.29,1.09-1.29.63,0,1,.44,1,1.29h-2.09Z"/>
            <path id="Char-_" data-name="Char-&amp;amp;" class="cls-6" d="M226.49,106.74c0-.45.46-.65.93-.65h1v-.93l-1.54-1.32h2.3v-1.46h-4.16v1.46l1.49,1.24c-1.01.13-1.65.81-1.65,1.71,0,1.19.98,1.98,2.45,1.98.75,0,1.55-.12,1.99-.33v-1.26c-.51.19-1.23.31-1.89.31s-.92-.3-.92-.75Z"/>
            <polygon id="Char-L" class="cls-6" points="234 99.65 232 99.65 232 108.64 237.74 108.64 237.74 106.89 234 106.89 234 99.65"/>
            <path id="Char-e2" class="cls-6" d="M240.82,102.25c-1.81,0-2.95,1.26-2.95,3.26s1.26,3.26,3.22,3.26c.63,0,1.45-.17,2.03-.42v-1.4c-.59.21-1.3.36-1.85.36-.98,0-1.55-.49-1.63-1.35h3.67c.55-2.25-.51-3.71-2.49-3.71ZM239.64,104.91c.11-.82.51-1.29,1.09-1.29.63,0,1,.44,1,1.29h-2.09Z"/>
            <path id="Char-p2" class="cls-6" d="M247.88,102.25c-.75,0-1.46.38-1.73.96h-.04v-.84h-1.7v8.99h1.81v-3.48h.04c.32.53.98.89,1.62.89,1.57,0,2.65-1.32,2.65-3.26s-1.08-3.26-2.65-3.26ZM247.46,107.17c-.75,0-1.23-.65-1.23-1.66s.49-1.66,1.23-1.66,1.21.62,1.21,1.66-.45,1.66-1.21,1.66Z"/>
            <path id="Char-p" class="cls-6" d="M254.92,102.25c-.75,0-1.46.38-1.73.96h-.04v-.84h-1.7v8.99h1.81v-3.48h.04c.32.53.98.89,1.62.89,1.57,0,2.65-1.32,2.65-3.26s-1.08-3.26-2.65-3.26ZM254.5,107.17c-.75,0-1.23-.65-1.23-1.66s.49-1.66,1.23-1.66,1.21.62,1.21,1.66-.45,1.66-1.21,1.66Z"/>
            <path id="Char-e" class="cls-6" d="M261.22,102.25c-1.81,0-2.95,1.26-2.95,3.26s1.26,3.26,3.22,3.26c.63,0,1.45-.17,2.03-.42v-1.4c-.59.21-1.3.36-1.85.36-.98,0-1.55-.49-1.63-1.35h3.67c.55-2.25-.51-3.71-2.49-3.71ZM260.03,104.91c.12-.82.51-1.29,1.09-1.29.63,0,1,.44,1,1.29h-2.09Z"/>
            <path id="Char-r" class="cls-6" d="M266.55,103.34h-.04v-.96h-1.7v6.27h1.81v-2.89c0-1.03.59-1.68,1.54-1.68.32,0,.67.06,1.02.21v-1.88c-.27-.1-.57-.15-.82-.15-.81,0-1.5.44-1.81,1.09Z"/>
          </g>
          <ellipse id="Circle02" class="cls-12" cx="239.13" cy="59.27" rx="30.05" ry="29.37"/>
          <ellipse id="Circle01" class="cls-12" cx="211.11" cy="59.27" rx="30.05" ry="29.37"/>
          <path id="E" class="cls-8" d="M222.03,62.63c0-1.89,2.53-2.44,7.58-2.44l.53-2.01-4.64-4.44h7.54v-3.73h-13.34v3.57l4.37,4.15c-4.32.38-6.37,2.56-6.37,5.21,0,4.25,4.53,5.6,9.79,5.6,2.62,0,5.15-.36,7.28-1.16v-4.37c-1.54,1.02-4.17,1.69-7.53,1.69-2.7,0-5.2-.33-5.2-2.06Z"/>
          <polygon id="L" class="cls-8" points="243.82 47.69 238.74 47.69 238.74 70.85 255.34 70.85 255.34 66.21 243.82 66.21 243.82 47.69"/>
          <path id="B" class="cls-8" d="M210.65,58.51c1.66-1.03,2.67-2.55,2.67-4.93,0-4.33-3.42-5.89-8.63-5.89h-9.67v23.16h11.47c6.09,0,8.53-2.61,8.53-6.42,0-3.21-1.76-5-4.37-5.92ZM200.1,52.32h4.6c2.84,0,3.89.6,3.89,2.15s-1.05,2.15-3.89,2.15h-4.6v-4.3ZM206.49,66.21h-6.39v-4.96h6.39c2.71,0,3.79.76,3.79,2.45s-1.08,2.51-3.79,2.51Z"/>
        </g>
      </g>
    </g>
  </g>
  <g id="Right">
    <polygon id="Foot-BackGround" class="cls-12" points="375.82 118.92 374.07 118.92 373.74 119.55 373.63 119.76 373.63 199.99 600 199.99 600 118.92 375.82 118.92 375.82 118.92"/>
    <g id="Medalha_Bronze" data-name="Medalha Bronze">
      <polygon class="cls-2" points="508.02 143.86 508.02 140.38 501.53 143.86 508.02 143.86"/>
      <circle class="cls-9" cx="526.48" cy="164.03" r="30.14" transform="translate(38.22 420.32) rotate(-45)"/>
      <circle class="cls-7" cx="526.48" cy="164.03" r="26.66" transform="translate(38.22 420.32) rotate(-45)"/>
      <rect class="cls-1" x="513.03" y="177.48" width="26.89" height=".7"/>
      <path class="cls-2" d="M522.51,174.56v.1l.02.08v.12s.05-.04.06-.06l-.07-.25s0,0,0,0Z"/>
      <path class="cls-2" d="M520.25,173.27c-.12-.06-.26-.09-.42-.09-.18,0-.33.03-.47.11-.11.06-.18.15-.24.24v.2l-.06-.14s.04-.03.06-.06v-.33h-.34v1.97h.36v-1.01c0-.14.03-.26.07-.36.05-.1.12-.17.22-.22.09-.05.2-.07.33-.07.17,0,.3.05.39.14.1.1.14.24.14.43v1.09h.36v-1.13c0-.19-.03-.35-.1-.48-.07-.13-.17-.22-.29-.28Z"/>
      <rect class="cls-2" x="522.51" y="174.03" width=".06" height=".26"/>
      <path class="cls-2" d="M522.51,174.56c-.04.11-.11.2-.21.25-.1.06-.21.09-.35.09s-.24-.03-.32-.09c-.08-.06-.12-.14-.12-.23,0-.08.03-.16.09-.22.06-.06.18-.09.36-.09h.54v-.26h-.56c-.2,0-.35.03-.47.08-.11.05-.2.12-.25.21-.05.09-.07.18-.07.29s.03.21.09.3c.06.09.14.16.25.2.11.05.24.07.38.07h0c.18,0,.33-.03.45-.1.09-.05.14-.13.19-.22v-.12l-.02-.08v-.1Z"/>
      <path class="cls-2" d="M522.02,173.18c-.16,0-.31.02-.45.07-.14.04-.26.1-.36.19l.15.27c.08-.06.17-.12.28-.15.11-.04.22-.06.34-.06.18,0,.31.04.39.13.09.08.13.2.13.35v.07h.06v.26h-.06v.28s0,0,0,0l.07.25s-.04.04-.06.06v.29h0s.34,0,.34,0v-1.19c0-.27-.07-.47-.22-.6-.15-.13-.35-.2-.62-.2Z"/>
      <path class="cls-2" d="M526.23,172.35c-.07,0-.13.02-.17.07-.04.04-.07.1-.07.17s.02.12.07.16c.05.04.1.07.17.07h0c.07,0,.13-.02.17-.06.04-.05.07-.11.07-.17s-.02-.12-.07-.16c-.05-.04-.1-.07-.17-.07Z"/>
      <rect class="cls-2" x="527.09" y="172.41" width=".36" height="2.75"/>
      <rect class="cls-2" x="528.12" y="173.19" width=".36" height="1.97"/>
      <rect class="cls-2" x="526.05" y="173.19" width=".36" height="1.97"/>
      <path class="cls-2" d="M523.52,175.16h0s.34,0,.34,0v-.35s-.06-.05-.08-.08c-.08-.15-.12-.33-.12-.56s.04-.41.12-.56c.02-.04.06-.06.09-.09v-1.12h-.36v2.75Z"/>
      <path class="cls-2" d="M519.12,173.73v-.2s-.04.03-.06.06l.06.14Z"/>
      <path class="cls-2" d="M523.67,174.18c0,.22.04.41.12.56.02.04.05.05.08.08v-.18l-.02-.46.04-.46v-.19s-.07.05-.09.09c-.08.15-.12.33-.12.56Z"/>
      <path class="cls-2" d="M525.08,173.3c-.15-.08-.32-.13-.51-.13-.16,0-.31.04-.45.11-.1.05-.16.15-.23.24v.19l-.04.46.02.46v.18c.07.1.14.2.24.26.14.07.29.11.46.11h0c.19,0,.36-.04.51-.13.15-.08.27-.2.35-.35.09-.15.13-.32.13-.53s-.04-.38-.13-.52c-.09-.15-.2-.27-.35-.35ZM525.11,174.54c-.06.1-.13.19-.24.24-.1.06-.21.09-.34.09s-.24-.03-.34-.09c-.1-.06-.18-.14-.24-.24-.06-.11-.09-.22-.09-.37s.03-.26.09-.36c.06-.1.14-.18.24-.24.1-.06.21-.09.34-.09s.24.03.34.09c.1.06.18.14.24.24.06.1.09.23.09.36s-.03.26-.09.37Z"/>
      <path class="cls-2" d="M514.71,174.88c-.1,0-.18-.03-.23-.09-.05-.06-.08-.14-.08-.25v-1.06h-.36v1.08c0,.2.05.35.16.46.11.11.26.16.46.16h0c.08,0,.16-.01.23-.03.08-.02.14-.06.2-.1l-.11-.26c-.07.06-.17.09-.28.09Z"/>
      <rect class="cls-2" x="513.71" y="173.19" width=".34" height=".29"/>
      <rect class="cls-2" x="514.04" y="172.76" width=".36" height=".43"/>
      <path class="cls-2" d="M513.29,174.18c-.07-.04-.15-.06-.24-.09-.09-.02-.18-.04-.27-.05-.09-.01-.17-.03-.25-.05-.07-.02-.13-.05-.18-.08-.04-.04-.07-.09-.07-.16,0-.08.04-.14.12-.19.08-.05.19-.08.35-.08.1,0,.19,0,.29.03.1.02.19.06.28.12l.15-.28c-.08-.06-.19-.1-.33-.13-.13-.03-.26-.05-.39-.05-.17,0-.32.03-.44.07-.12.05-.22.12-.28.2-.07.09-.1.2-.1.31s.02.2.07.27c.04.07.1.12.18.16.07.04.16.06.25.09.09.02.18.04.27.05.09.01.17.03.24.04.07.02.13.04.18.08.04.03.07.08.07.14,0,.08-.04.15-.11.2-.07.05-.19.07-.36.07-.13,0-.26-.02-.38-.06-.12-.04-.23-.09-.31-.14l-.15.28c.08.06.2.12.35.16.15.04.31.07.47.07h0c.18,0,.33-.02.45-.07.13-.05.22-.12.29-.2.07-.09.1-.19.1-.31,0-.11-.02-.2-.07-.27-.04-.07-.1-.12-.18-.16Z"/>
      <rect class="cls-2" x="514.4" y="173.19" width=".56" height=".29"/>
      <path class="cls-2" d="M508.82,173.91c-.09-.05-.19-.09-.31-.13-.11-.03-.22-.06-.33-.09-.11-.03-.21-.06-.31-.09-.09-.03-.17-.07-.23-.13-.06-.05-.09-.13-.09-.22,0-.08.02-.15.06-.21.05-.06.12-.11.21-.15.09-.04.21-.06.36-.06.12,0,.24.02.36.05.12.03.24.09.35.16l.12-.3c-.11-.07-.24-.13-.38-.17-.15-.04-.3-.06-.45-.06-.23,0-.42.03-.56.1-.15.07-.26.16-.33.27-.07.11-.1.23-.1.37s.03.25.09.34c.06.09.13.16.22.21.1.05.2.1.31.13.11.03.23.06.34.09s.21.05.3.09c.1.03.17.07.23.13.06.06.09.13.09.22,0,.08-.02.15-.07.21-.05.06-.11.11-.21.14-.09.03-.22.05-.37.05-.16,0-.32-.03-.48-.09-.15-.06-.28-.13-.38-.22l-.14.29c.1.1.25.17.43.24.18.06.37.09.57.09h0c.23,0,.42-.03.56-.1.15-.07.26-.16.33-.27.07-.11.11-.23.11-.37s-.03-.25-.09-.33c-.06-.09-.13-.16-.23-.21Z"/>
      <path class="cls-2" d="M511.1,174.2c0,.14-.03.26-.07.36-.05.1-.12.17-.21.22-.09.05-.2.07-.32.07-.17,0-.3-.05-.39-.14-.09-.1-.14-.24-.14-.43v-1.09h-.36v1.13c0,.19.03.35.1.48.07.13.17.22.3.28.13.06.28.09.45.09h0c.16,0,.31-.04.43-.11.1-.06.17-.15.23-.25v-.2l.06.14s-.04.04-.06.06v.33h.34v-1.97h-.36v1.02Z"/>
      <path class="cls-2" d="M511.12,174.82s.04-.03.06-.06l-.06-.14v.2Z"/>
      <rect class="cls-2" x="516.73" y="174.03" width=".06" height=".26"/>
      <rect class="cls-2" x="514.04" y="173.19" width=".36" height=".29"/>
      <path class="cls-2" d="M516.73,174.56v.1l.02.08v.12s.05-.04.06-.06l-.07-.25s0,0,0,0Z"/>
      <rect class="cls-2" x="517.74" y="173.19" width=".36" height="1.97"/>
      <path class="cls-2" d="M516.24,173.18c-.16,0-.31.02-.45.07-.14.04-.26.1-.36.19l.15.27c.08-.06.17-.12.28-.15.11-.04.22-.06.34-.06.18,0,.31.04.39.13.09.08.13.2.13.35v.07h.06v.26h-.06v.28s0,0,0,0l.07.25s-.04.04-.06.06v.29h0s.34,0,.34,0v-1.19c0-.27-.07-.47-.22-.6-.15-.13-.35-.2-.62-.2Z"/>
      <path class="cls-2" d="M528.3,172.35c-.07,0-.13.02-.17.07-.04.04-.07.1-.07.17s.02.12.07.16c.05.04.1.07.17.07h0c.07,0,.13-.02.17-.06.04-.05.07-.11.07-.17s-.02-.12-.07-.16c-.05-.04-.1-.07-.17-.07Z"/>
      <path class="cls-2" d="M516.73,174.56c-.04.11-.11.2-.21.25-.1.06-.21.09-.35.09s-.24-.03-.32-.09c-.08-.06-.12-.14-.12-.23,0-.08.03-.16.09-.22.06-.06.18-.09.36-.09h.54v-.26h-.56c-.2,0-.35.03-.47.08-.11.05-.2.12-.25.21-.05.09-.07.18-.07.29s.03.21.09.3c.06.09.14.16.25.2.11.05.24.07.38.07h0c.18,0,.33-.03.45-.1.09-.05.14-.13.19-.22v-.12l-.02-.08v-.1Z"/>
      <path class="cls-2" d="M517.92,172.35c-.07,0-.13.02-.17.07-.04.04-.07.1-.07.17s.02.12.07.16c.05.04.1.07.17.07h0c.07,0,.13-.02.17-.06.04-.05.07-.11.07-.17s-.02-.12-.07-.16c-.05-.04-.1-.07-.17-.07Z"/>
      <path class="cls-2" d="M545.26,173.54v.2l.02.39-.04.39v.22s.06-.04.08-.08c.08-.14.13-.32.13-.53s-.04-.39-.13-.53c-.01-.03-.04-.03-.06-.06Z"/>
      <rect class="cls-2" x="539.03" y="173.2" width=".56" height=".29"/>
      <rect class="cls-2" x="538.68" y="173.2" width=".36" height=".29"/>
      <rect class="cls-2" x="538.68" y="172.77" width=".36" height=".43"/>
      <path class="cls-2" d="M537.12,173.18c-.16,0-.31.02-.45.07-.14.04-.26.1-.36.19l.15.27c.08-.06.17-.12.28-.15.11-.04.22-.06.34-.06.18,0,.31.04.39.13.09.08.13.2.13.35v.07h.06v.26h-.06v.28s0,0,0,0l.07.25s-.04.04-.06.06v.29h0s.34,0,.34,0v-1.19c0-.27-.07-.47-.22-.6-.15-.13-.35-.2-.62-.2Z"/>
      <path class="cls-2" d="M537.61,174.57v.1l.02.08v.12s.05-.04.06-.06l-.07-.25s0,0,0,0Z"/>
      <path class="cls-2" d="M539.34,174.88c-.1,0-.17-.03-.23-.09-.05-.06-.08-.14-.08-.25v-1.06h-.36v1.08c0,.2.05.35.16.46s.26.16.46.16h0c.08,0,.16-.01.23-.03.08-.02.14-.06.2-.1l-.11-.26c-.07.06-.17.09-.28.09Z"/>
      <rect class="cls-2" x="538.34" y="173.2" width=".34" height=".29"/>
      <path class="cls-2" d="M545.26,173.54s.05.03.06.06c.08.14.13.32.13.53s-.04.39-.13.53c-.02.03-.06.05-.08.08v.2c0,.22-.05.39-.16.5-.11.11-.28.16-.51.16-.15,0-.29-.02-.42-.07-.13-.04-.25-.11-.34-.19l-.17.27c.11.1.25.17.41.22.17.05.35.08.53.08h0c.33,0,.59-.08.76-.24.17-.16.26-.42.26-.77v-1.7h-.34v.34Z"/>
      <rect class="cls-2" x="540.16" y="173.2" width=".36" height="1.97"/>
      <path class="cls-2" d="M542.67,173.27c-.12-.06-.26-.09-.42-.09-.18,0-.33.03-.47.11-.11.06-.18.15-.24.24v.2l-.06-.14s.04-.03.06-.06v-.33h-.34v1.97h.36v-1.01c0-.14.03-.26.07-.36.05-.1.13-.17.22-.22.09-.05.2-.07.33-.07.17,0,.3.05.39.14.1.1.14.24.14.43v1.09h.36v-1.13c0-.19-.03-.35-.1-.48-.07-.13-.17-.22-.29-.28Z"/>
      <path class="cls-2" d="M537.61,174.57c-.04.11-.11.2-.21.25-.1.06-.21.09-.35.09s-.24-.03-.32-.09c-.08-.06-.12-.14-.12-.23,0-.08.03-.16.09-.22.06-.06.18-.09.36-.09h.54v-.26h-.56c-.2,0-.35.03-.47.08-.11.05-.2.12-.25.21-.05.09-.07.18-.07.29s.03.21.09.3c.06.09.14.16.25.2.11.05.24.07.38.07h0c.18,0,.33-.03.45-.1.09-.05.14-.13.19-.22v-.12l-.02-.08v-.1Z"/>
      <path class="cls-2" d="M545.26,173.54c-.07-.1-.16-.2-.27-.25-.14-.07-.29-.1-.46-.1-.19,0-.36.04-.51.12-.15.08-.27.19-.36.33-.09.14-.13.31-.13.5s.04.35.13.5c.09.14.21.26.36.34.15.08.32.12.51.12h0c.17,0,.32-.03.46-.1.1-.05.18-.15.25-.24v-.22l.04-.39-.02-.39v-.2ZM545.16,174.46c-.06.1-.13.17-.24.23-.1.05-.22.08-.35.08s-.25-.03-.35-.08c-.1-.06-.18-.13-.24-.23-.06-.1-.09-.21-.09-.33s.03-.24.09-.33c.06-.1.14-.17.24-.22.1-.05.22-.08.35-.08s.25.03.35.08c.1.05.18.13.24.22s.09.21.09.33-.03.24-.09.33Z"/>
      <path class="cls-2" d="M540.34,172.36c-.07,0-.13.02-.17.07-.04.04-.07.1-.07.17s.02.12.07.16c.05.04.1.07.17.07h0c.07,0,.13-.02.17-.06.04-.05.07-.11.07-.17s-.02-.12-.07-.16c-.05-.04-.1-.07-.17-.07Z"/>
      <path class="cls-2" d="M541.53,173.73v-.2s-.04.03-.06.06l.06.14Z"/>
      <path class="cls-2" d="M535.37,172.67c-.16-.07-.35-.11-.58-.11h-1.01v2.59h.37v-.79h-.17l.15-.15-.15-.16h.17v-1.17h-.17l.17-.19v.19h.63c.24,0,.42.05.54.15.12.1.19.25.19.43s-.06.33-.19.43c-.12.1-.3.15-.54.15h-.63v.18h0v.13h.64c.06,0,.1-.02.15-.03l-.09-.12h.4l.04.06s.06,0,.08-.01c.16-.07.29-.17.37-.31.09-.14.13-.3.13-.49s-.04-.35-.13-.49c-.09-.13-.21-.24-.37-.31Z"/>
      <polygon class="cls-2" points="530.32 173.2 531.18 175.16 531.25 175.02 531.28 174.98 531.37 174.77 530.69 173.2 530.32 173.2"/>
      <path class="cls-2" d="M529.88,174.88c-.1,0-.18-.03-.23-.09-.05-.06-.08-.14-.08-.25v-1.06h-.36v1.08c0,.2.05.35.16.46s.26.16.46.16h0c.08,0,.16-.01.23-.03.08-.02.14-.06.2-.1l-.11-.26c-.07.06-.17.09-.28.09Z"/>
      <polygon class="cls-2" points="531.28 174.98 531.25 175.02 531.18 175.16 531.21 175.23 531.22 175.23 531.45 174.95 531.37 174.77 531.28 174.98"/>
      <rect class="cls-2" x="537.61" y="174.03" width=".06" height=".26"/>
      <path class="cls-2" d="M531.37,174.77l.08.18-.24.28h0l-.03-.07-.06.14c-.05.11-.1.19-.16.24-.06.04-.13.07-.22.07-.07,0-.13-.01-.19-.04-.06-.02-.11-.06-.16-.11l-.15.27c.06.06.14.1.23.13.09.03.18.05.27.05h0c.1,0,.19-.02.28-.05.08-.03.16-.09.23-.17.07-.08.14-.19.19-.33l.95-2.16h-.35l-.68,1.57Z"/>
      <rect class="cls-2" x="529.21" y="172.76" width=".36" height=".43"/>
      <rect class="cls-2" x="529.57" y="173.2" width=".56" height=".29"/>
      <rect class="cls-2" x="529.21" y="173.2" width=".36" height=".29"/>
      <path class="cls-2" d="M534.85,174.22l.09.12c.13-.01.25-.03.35-.06l-.04-.06h-.4Z"/>
      <path class="cls-2" d="M534.94,174.34l.57.82h.4l-.63-.88c-.1.04-.22.05-.35.06Z"/>
      <polygon class="cls-2" points="534.15 172.89 534.15 172.7 533.98 172.89 534.15 172.89"/>
      <rect class="cls-2" x="528.88" y="173.2" width=".34" height=".29"/>
      <polygon class="cls-2" points="533.98 174.37 534.15 174.37 534.15 174.24 534.13 174.22 533.98 174.37"/>
      <polygon class="cls-2" points="534.13 174.22 534.15 174.2 534.15 174.06 533.98 174.06 534.13 174.22"/>
      <polygon class="cls-2" points="534.15 174.24 534.15 174.24 534.15 174.2 534.13 174.22 534.15 174.24"/>
      <path class="cls-2" d="M506.28,160.7c-1.76,0-2.98,1.32-2.98,3.1s1.32,3.1,3.13,3.1c1.07,0,1.76-.33,2.17-.66.09-.07.13-.21.06-.31l-.32-.55c-.05-.14-.16-.14-.27-.05-.43.33-.94.5-1.48.5-1.01.02-1.9-.67-2.03-1.65h4.3c.13,0,.2-.09.22-.22v-.2c0-1.78-1.12-3.05-2.78-3.05ZM507.87,163.25h-3.31c.18-.92.85-1.5,1.76-1.5.83,0,1.47.61,1.56,1.49v.02Z"/>
      <path class="cls-2" d="M543.49,160.8h-.85c-.13,0-.2.09-.2.22l-.02,5.54h0c0,.16.07.22.22.22h.85c.13,0,.2-.09.2-.22v-5.54c0-.14-.07-.22-.2-.22Z"/>
      <path class="cls-2" d="M543.49,158.37h-.85c-.13,0-.2.09-.2.22l-.02.9h0c0,.14.07.21.22.22h.85c.13,0,.2-.09.2-.22v-.9c0-.14-.07-.22-.2-.22Z"/>
      <path class="cls-2" d="M547.49,163.25c-.98-.26-1.34-.41-1.34-.8,0-.45.38-.64.94-.64s1.1.16,1.57.43c.02.02.04.03.06.03.09.03.2-.02.23-.1l.31-.61s.02-.02.02-.03c.06-.1.02-.23-.09-.28-.63-.36-1.34-.55-2.06-.54-1.37,0-2.28.71-2.28,1.77s.92,1.52,2.06,1.8c.92.24,1.23.45,1.23.86,0,.45-.4.69-1.03.69s-1.25-.19-1.77-.54c-.02-.02-.04-.03-.06-.03-.09-.03-.2.02-.23.1l-.34.61c-.07.12-.06.22.07.29h0c.69.41,1.47.62,2.28.67,1.48,0,2.39-.73,2.39-1.84s-.73-1.54-1.95-1.87Z"/>
      <polygon class="cls-2" points="509.78 163.81 509.78 163.81 509.78 163.8 509.78 163.81"/>
      <path class="cls-2" d="M513.08,161.88c.43-.02.83.11,1.19.31.02.02.04.03.06.03.09.03.2-.02.23-.1l.32-.59c.07-.1.04-.26-.07-.33-.56-.36-1.21-.54-1.88-.52-1.77,0-3.15,1.35-3.15,3.11,0,1.75,1.3,3.1,3.15,3.1.67.02,1.32-.16,1.86-.5.11-.07.14-.19.07-.29l-.34-.62c-.05-.1-.14-.14-.27-.05-.36.21-.8.31-1.23.29-1.14,0-1.95-.78-1.95-1.9s.82-1.94,2.01-1.94Z"/>
      <path class="cls-2" d="M518.45,160.69c-1.7,0-3.09,1.33-3.09,3.12,0,1.77,1.41,3.1,3.09,3.1s3.07-1.32,3.07-3.1-1.37-3.12-3.07-3.12ZM518.43,165.71c-.99,0-1.81-.81-1.81-1.9s.81-1.94,1.81-1.94,1.81.85,1.81,1.94-.81,1.9-1.81,1.9Z"/>
      <path class="cls-2" d="M533.8,160.82h-.74c-.11,0-.2.1-.2.21l-.04.59c-.51-.61-1.27-.93-2.06-.92-1.57,0-2.8,1.31-2.8,3.1s1.21,3.1,2.8,3.1c.85.02,1.64-.38,2.11-1.06l.04.74v.02c0,.1.09.19.2.19h.69c.15,0,.22-.09.22-.22v-5.54c0-.14-.09-.21-.22-.21ZM531.02,165.71c-.99,0-1.79-.81-1.79-1.92s.8-1.92,1.79-1.92c1.09,0,1.79.81,1.81,1.92,0,1.11-.74,1.92-1.81,1.92Z"/>
      <path class="cls-2" d="M540.86,158.39h-.85c-.11.02-.2.12-.18.22v3.06c-.47-.61-1.23-.97-2.03-.95-1.59,0-2.78,1.32-2.78,3.1s1.23,3.1,2.82,3.1c.85.02,1.64-.38,2.13-1.06l.04.73v.03c0,.1.11.17.22.17h.67c.11-.02.2-.12.18-.22v-7.98h0s0-.03,0-.01c0-.1-.11-.19-.22-.19ZM538.07,165.71c-.99,0-1.79-.81-1.79-1.92s.8-1.92,1.79-1.92c1.09,0,1.81.81,1.81,1.92s-.74,1.92-1.81,1.92Z"/>
      <path class="cls-4" d="M522.8,160.81h-.94c-.15,0-.22.1-.15.26l.49,1.09c.2.5.7.83,1.27.85h.42l-.85-2.04c-.04-.1-.13-.17-.23-.16Z"/>
      <path class="cls-2" d="M527.58,160.83h-.89c-.11,0-.22.07-.25.17l-1.66,4.15-.22-.52c-.2-.5-.69-.83-1.25-.85h-.41l1.27,2.89c.04.1.13.17.23.16h.65c.11.02.22-.05.23-.16l2.44-5.58c.07-.15,0-.27-.15-.27h0Z"/>
      <path class="cls-10" d="M551.47,149.33c-.07-.16-.07-.34,0-.5h0l1.97-4.14c.18-.38-.1-.83-.52-.83h-51.26c-.22,0-.42.12-.52.32l-4.74,9.27c-.2.38.08.84.52.84h56c.43,0,.71-.44.52-.83l-1.97-4.14Z"/>
      <path class="cls-2" d="M508.93,149.86l.65.95h.85l-.76-1.09c-.21.09-.46.14-.75.14Z"/>
      <polygon class="cls-2" points="517.45 149.47 517.77 149.86 517.45 149.86 517.45 149.47 515.76 147.41 515.11 147.41 515.11 150.81 515.89 150.81 515.89 148.75 515.57 148.36 515.89 148.36 515.89 148.75 517.58 150.81 518.23 150.81 518.23 147.41 517.45 147.41 517.45 149.47"/>
      <polygon class="cls-2" points="515.89 148.75 515.89 148.36 515.57 148.36 515.89 148.75"/>
      <path class="cls-2" d="M508.74,149.58l.2.29c.28,0,.54-.05.75-.14l-.1-.14h-.84Z"/>
      <polygon class="cls-2" points="517.45 149.86 517.77 149.86 517.45 149.47 517.45 149.86"/>
      <path class="cls-2" d="M544.56,148.83c-.21-.1-.48-.14-.81-.14h-.28l-.03.36-.41-.36h.44l.06-.65h-.38l.41-.36-.03.36h1.42v-.63h-2.08l-.18,1.92h.87c.21,0,.37.02.48.05.12.03.2.09.24.16.04.07.07.15.07.23,0,.14-.06.25-.17.33-.11.08-.27.12-.47.12-.18,0-.35-.03-.52-.08-.17-.06-.32-.13-.45-.22l-.31.6c.16.12.36.21.59.27.23.06.47.09.7.09h0c.32,0,.59-.04.8-.15.21-.11.37-.25.47-.42.1-.17.15-.36.15-.56s-.05-.38-.14-.54c-.09-.16-.24-.29-.45-.38Z"/>
      <path class="cls-2" d="M509.68,147.56c-.22-.1-.48-.15-.79-.15h-1.47v3.41h0s.79,0,.79,0v-.95h-.35l.31-.31-.31-.33h.35v-1.19h-.35l.35-.38v.38h.64c.24,0,.42.05.54.16.12.1.18.25.18.44s-.06.33-.18.44c-.12.1-.3.16-.54.16h-.64v.37h0s0,.26,0,.26h.69s.03,0,.04,0l-.2-.29h.84l.1.14s0,0,0,0c.22-.1.39-.24.51-.42.12-.19.18-.4.18-.66s-.06-.48-.18-.66c-.12-.19-.29-.33-.51-.42Z"/>
      <path class="cls-2" d="M513.98,147.85c-.16-.16-.36-.28-.59-.37-.22-.09-.47-.13-.74-.13s-.51.04-.74.13c-.23.09-.42.21-.59.37s-.3.35-.39.56c-.09.21-.14.45-.14.7s.05.49.14.7c.1.21.22.4.39.56.17.16.37.28.59.37.23.09.48.13.75.13s.51-.04.73-.13c.23-.09.42-.21.59-.36.17-.16.3-.35.39-.56.1-.22.14-.45.14-.7s-.05-.49-.14-.7c-.1-.22-.22-.4-.39-.56ZM513.64,149.55c-.05.13-.13.25-.22.35-.1.1-.21.17-.34.22-.13.05-.27.08-.42.08s-.29-.03-.42-.08c-.13-.05-.24-.13-.34-.22-.1-.1-.17-.21-.22-.35-.05-.14-.08-.28-.08-.44s.03-.31.08-.44c.06-.13.13-.25.23-.35.1-.1.21-.17.34-.22.13-.05.27-.08.42-.08s.29.03.42.08c.13.05.24.13.34.22.1.1.17.21.22.35.06.13.08.28.08.44s-.03.31-.08.44Z"/>
      <path class="cls-2" d="M548.96,149.09c-.13-.08-.28-.12-.44-.12s-.31.04-.44.12c-.13.08-.22.19-.3.33-.07.14-.11.31-.11.5s.03.36.11.5c.07.14.17.25.3.33.13.07.28.11.44.11s.32-.04.44-.11c.13-.08.22-.19.3-.33.07-.14.11-.31.11-.5s-.03-.36-.11-.5c-.07-.14-.17-.25-.3-.33ZM548.77,150.33c-.06.09-.15.13-.26.13s-.19-.04-.26-.13c-.06-.09-.1-.23-.1-.41s.03-.32.1-.4c.07-.09.15-.14.26-.14s.19.05.26.14c.06.09.1.22.1.4s-.03.32-.1.41Z"/>
      <polygon class="cls-2" points="519.62 150.46 519.86 150.17 519.53 150.17 519.62 150.46"/>
      <rect class="cls-2" x="504.42" y="148.8" width=".06" height=".57"/>
      <path class="cls-2" d="M505.63,149.17c.2,0,.38-.03.53-.11,0,0,0,0,.01,0-.14-.04-.28-.08-.44-.08l-.09.2Z"/>
      <path class="cls-2" d="M506.3,149.08s-.09-.01-.13-.02c0,0,0,0-.01,0-.15.07-.33.11-.53.11l.09-.2c.17,0,.31.04.44.08.14-.07.26-.17.35-.29.09-.13.13-.29.13-.47,0-.27-.11-.48-.33-.64-.22-.16-.54-.24-.96-.24h-1.66v3.41h0s1.76,0,1.76,0c.45,0,.79-.08,1.02-.24.23-.16.35-.39.35-.69,0-.2-.05-.36-.14-.5-.09-.13-.22-.24-.38-.31ZM505.86,150.12c-.1.06-.26.1-.46.1h-.92v-.84h-.06v-.57h.06v-.8h.78c.19,0,.34.03.44.1.1.06.16.16.16.3s-.05.24-.16.31c-.1.06-.25.1-.44.1h-.78v.57h.92c.21,0,.36.03.46.11.11.07.16.17.16.32s-.05.26-.16.32Z"/>
      <polygon class="cls-2" points="508.21 148.05 508.21 147.67 507.86 148.05 508.21 148.05"/>
      <polygon class="cls-2" points="508.21 149.6 508.21 149.52 508.17 149.56 508.21 149.6"/>
      <polygon class="cls-2" points="507.86 149.87 508.21 149.87 508.21 149.6 508.17 149.56 507.86 149.87"/>
      <polygon class="cls-2" points="508.17 149.56 508.21 149.52 508.21 149.6 508.21 149.61 508.21 149.24 507.86 149.24 508.17 149.56"/>
      <polygon class="cls-2" points="545.91 150.82 546.49 150.82 548.81 147.41 548.23 147.41 545.91 150.82"/>
      <path class="cls-2" d="M537.4,148.38c-.19-.11-.42-.16-.67-.16-.22,0-.42.05-.6.15-.13.07-.23.18-.32.3v.27l-.03.6.05.6v.28c.09.12.19.22.31.29.18.1.38.15.59.15h0c.25,0,.48-.06.67-.17s.35-.27.46-.46c.12-.2.17-.43.17-.69s-.06-.49-.17-.69c-.11-.2-.27-.35-.46-.46ZM537.44,150.01c-.07.13-.18.24-.31.32-.13.07-.28.11-.44.11s-.31-.04-.44-.11c-.13-.07-.23-.18-.31-.32-.07-.14-.11-.3-.11-.48s.04-.35.11-.48c.08-.13.18-.24.31-.32.13-.07.28-.11.44-.11s.31.04.44.11c.13.07.24.18.31.32.08.13.12.29.12.48s-.04.34-.12.48Z"/>
      <path class="cls-2" d="M540.76,148.77l.4.23.16-.19c-.11-.02-.21-.04-.33-.04h-.23Z"/>
      <path class="cls-2" d="M535.81,148.93v-.27s-.07.08-.1.14c-.1.19-.15.44-.15.73s.05.54.16.73c.03.06.07.1.11.15v-.28l-.05-.6.03-.6Z"/>
      <polygon class="cls-2" points="535.36 151.76 535.36 151.76 535.36 151.76 535.36 151.76"/>
      <path class="cls-2" d="M535.56,149.53c0-.29.05-.54.15-.73.03-.05.06-.09.1-.14v-.42h-.45v3.52h.47v-1.35s-.08-.1-.11-.15c-.1-.19-.16-.44-.16-.73Z"/>
      <polygon class="cls-2" points="543.43 149.05 543.46 148.69 543.02 148.69 543.43 149.05"/>
      <polygon class="cls-2" points="541.16 148.04 541.5 148.04 541.41 147.76 541.16 148.04"/>
      <polygon class="cls-2" points="543.52 148.04 543.55 147.68 543.14 148.04 543.52 148.04"/>
      <path class="cls-2" d="M541.32,148.81l-.16.19-.4-.23h.23c.13,0,.23.03.33.04l.78-.89v-.51h-2.39v.63h1.45l.25-.28.09.28h-.34l-.7.79v.52h.36c.22,0,.39.04.49.11.1.07.15.17.15.31s-.06.25-.17.32c-.11.08-.27.12-.47.12-.18,0-.35-.03-.52-.08-.17-.06-.32-.13-.45-.22l-.31.6c.16.12.36.21.59.27.23.06.47.09.7.09h0c.32,0,.59-.05.8-.15.21-.1.36-.24.46-.4.1-.17.15-.35.15-.54,0-.29-.11-.54-.32-.73-.15-.13-.37-.2-.62-.24Z"/>
      <polygon class="cls-2" points="519.62 150.46 519.53 150.17 519.86 150.17 521.73 147.92 521.73 147.41 518.86 147.41 518.86 148.05 520.69 148.05 520.93 147.76 521.03 148.05 520.69 148.05 518.82 150.3 518.82 150.81 521.8 150.81 521.8 150.17 519.86 150.17 519.62 150.46"/>
      <rect class="cls-2" x="523.09" y="148.78" width="1.58" height=".61"/>
      <polygon class="cls-2" points="523.09 149.39 523.03 149.39 523.03 148.78 523.09 148.78 523.09 148.04 524.88 148.04 524.88 147.41 522.31 147.41 522.31 150.81 524.94 150.81 524.94 150.18 523.09 150.18 523.09 149.39"/>
      <rect class="cls-2" x="523.03" y="148.78" width=".06" height=".61"/>
      <polygon class="cls-2" points="520.69 148.05 521.03 148.05 520.93 147.76 520.69 148.05"/>
      <path class="cls-2" d="M546.64,147.49c-.13-.08-.27-.12-.44-.12s-.31.04-.44.12c-.13.08-.23.19-.3.33-.07.14-.11.31-.11.5s.03.36.11.5c.07.14.17.25.3.33.13.07.27.11.44.11s.31-.04.44-.11c.13-.08.22-.19.3-.33.07-.14.11-.31.11-.5s-.03-.36-.11-.5c-.07-.14-.17-.25-.3-.33ZM546.46,148.72c-.06.09-.15.13-.26.13s-.19-.05-.26-.14c-.06-.09-.1-.22-.1-.4s.03-.32.1-.4c.07-.09.15-.14.26-.14s.19.05.26.14c.06.09.1.22.1.4s-.03.32-.1.41Z"/>
      <path class="cls-2" d="M534.06,148.38c-.2-.12-.43-.17-.69-.17s-.49.06-.69.17c-.2.11-.36.27-.48.46-.12.2-.18.43-.18.68s.06.48.18.68c.12.2.28.35.48.47s.43.17.69.17.48-.06.69-.17c.2-.11.36-.27.48-.47.12-.2.18-.42.18-.68s-.06-.49-.18-.68c-.11-.2-.27-.35-.48-.46ZM534.13,150.01c-.07.13-.18.24-.31.32-.13.07-.28.11-.44.11s-.31-.04-.44-.11c-.13-.07-.23-.18-.31-.32-.08-.14-.12-.3-.12-.48s.04-.35.12-.48c.08-.13.18-.24.31-.32.13-.07.28-.11.44-.11s.31.04.44.11c.13.07.24.18.31.32.07.13.11.29.11.48s-.04.34-.11.48Z"/>
      <polygon class="cls-2" points="529.26 147.83 530.42 147.83 530.42 150.81 530.91 150.81 530.91 147.83 532.08 147.83 532.08 147.41 529.26 147.41 529.26 147.83"/>
      <rect class="cls-2" x="526.99" y="147.2" width=".43" height="4.56"/>
      <text class="cls-13" transform="translate(522.08 183.69) scale(1.12 1)"><tspan x="0" y="0">APR 2024</tspan></text>
    </g>
    <g id="Certificado_GPTW" data-name="Certificado GPTW">
      <rect class="cls-11" x="411.41" y="135.15" width="35.38" height="35.38"/>
      <polygon class="cls-5" points="411.41 185.84 429.2 195.15 446.79 185.84 446.79 170.53 411.41 170.53 411.41 185.84"/>
      <path class="cls-8" d="M427.41,182.6c.21-.11.31-.27.31-.46,0-.13-.05-.25-.16-.36-.12-.13-.29-.2-.49-.2-.12,0-.23.02-.32.07-.1.05-.17.11-.23.19-.05.08-.09.18-.12.31l.38.06c.01-.09.04-.17.09-.22.05-.05.11-.07.18-.07s.13.02.17.06c.04.04.06.1.06.17,0,.09-.03.16-.09.21-.06.05-.14.08-.26.07l-.05.34c.07-.02.14-.03.19-.03.08,0,.15.03.21.09.06.06.08.14.08.25s-.03.2-.09.27c-.06.06-.13.1-.22.1-.08,0-.15-.03-.2-.08-.06-.06-.09-.13-.1-.24l-.4.05c.02.18.1.33.23.44.13.11.29.17.49.17.21,0,.38-.07.52-.2.14-.13.21-.3.21-.49,0-.13-.04-.24-.11-.34-.07-.09-.17-.15-.3-.18Z"/>
      <path class="cls-8" d="M425.62,183.03c.13-.12.22-.21.27-.27.08-.1.13-.19.16-.28.04-.09.06-.18.06-.28,0-.17-.06-.32-.18-.43-.12-.12-.29-.17-.5-.17-.2,0-.36.05-.49.15-.13.1-.21.26-.23.49l.41.04c0-.12.04-.21.09-.26.05-.05.12-.08.21-.08s.15.03.2.07c.05.05.08.12.08.21,0,.08-.03.17-.09.26-.04.06-.16.18-.35.36-.23.22-.39.39-.47.52-.08.13-.13.27-.14.41h1.46v-.39h-.83s.05-.07.08-.11c.04-.04.12-.12.25-.24Z"/>
      <path class="cls-8" d="M423.72,181.59c-.21,0-.38.07-.49.22-.14.18-.21.47-.21.88s.06.71.19.87c.13.16.3.24.51.24s.37-.07.49-.22c.14-.18.21-.48.21-.89s-.07-.71-.21-.89c-.12-.15-.28-.23-.49-.23ZM423.95,183.24c-.02.08-.05.14-.09.17-.04.03-.08.05-.13.05-.05,0-.1-.02-.14-.05-.04-.03-.07-.1-.1-.19-.03-.09-.04-.27-.04-.52s.01-.44.05-.55c.02-.08.05-.14.09-.17.04-.03.08-.05.14-.05s.09.02.13.05c.04.03.07.1.1.19.03.1.04.27.04.53s-.01.43-.04.54Z"/>
      <path class="cls-8" d="M416.31,181.56c-.18,0-.33.03-.47.09-.1.04-.2.11-.28.2-.09.09-.15.19-.2.3-.07.15-.1.33-.1.56,0,.35.09.62.28.81.19.2.45.29.77.29s.57-.1.76-.29c.19-.2.29-.47.29-.82s-.1-.63-.29-.83c-.19-.2-.45-.3-.77-.3ZM416.75,183.24c-.11.13-.26.19-.43.19s-.32-.06-.43-.19c-.11-.13-.17-.31-.17-.56s.06-.44.16-.56c.11-.12.26-.19.44-.19s.33.06.43.18c.11.12.16.31.16.56s-.06.44-.17.57Z"/>
      <path class="cls-8" d="M418.72,182.86c0,.23-.01.37-.03.43-.02.06-.06.11-.12.15-.06.04-.12.06-.19.06-.06,0-.11-.01-.16-.04-.04-.03-.07-.07-.08-.12-.02-.05-.02-.18-.02-.41v-.72h-.41v1c0,.15.02.27.05.35.04.08.1.15.18.2.08.05.18.07.28.07s.2-.02.3-.07c.09-.05.17-.12.23-.2v.24h.39v-1.57h-.42v.66Z"/>
      <path class="cls-8" d="M422.24,183.03c.13-.12.22-.21.27-.27.08-.1.13-.19.16-.28.04-.09.06-.18.06-.28,0-.17-.06-.32-.18-.43-.12-.12-.29-.17-.5-.17-.2,0-.36.05-.49.15-.13.1-.21.26-.23.49l.41.04c0-.12.04-.21.09-.26.05-.05.12-.08.21-.08s.15.03.2.07c.05.05.08.12.08.21,0,.08-.03.17-.09.26-.04.06-.16.18-.35.36-.23.22-.39.39-.47.52-.08.13-.13.27-.14.41h1.46v-.39h-.83s.05-.07.08-.11c.04-.04.12-.12.25-.24Z"/>
      <path class="cls-8" d="M420.11,183.46s-.05,0-.07-.02c-.02-.01-.03-.03-.04-.05,0-.02,0-.1,0-.23v-.63h.28v-.33h-.28v-.56l-.42.24v.31h-.19v.33h.19v.69c0,.15,0,.24.01.29.01.07.03.12.06.16.03.04.07.07.13.1.06.02.13.04.2.04.12,0,.23-.02.33-.06l-.04-.32c-.07.03-.13.04-.17.04Z"/>
      <polygon class="cls-8" points="420.35 183.81 420.66 183.81 421.2 181.56 420.89 181.56 420.35 183.81"/>
      <path class="cls-8" d="M437.76,183.03c.13-.12.22-.21.27-.27.08-.1.13-.19.16-.28.04-.09.06-.18.06-.28,0-.17-.06-.32-.18-.43-.12-.12-.29-.17-.5-.17-.2,0-.36.05-.49.15-.13.1-.21.26-.23.49l.41.04c0-.12.04-.21.09-.26.05-.05.12-.08.21-.08s.15.03.2.07c.05.05.08.12.08.21,0,.08-.03.17-.09.26-.04.06-.16.18-.35.36-.23.22-.39.39-.47.52-.08.13-.13.27-.14.41h1.46v-.39h-.83s.05-.07.08-.11c.04-.04.12-.12.25-.24Z"/>
      <path class="cls-8" d="M441.13,183.03c.13-.12.22-.21.27-.27.08-.1.13-.19.16-.28.04-.09.05-.18.05-.28,0-.17-.06-.32-.18-.43-.12-.12-.29-.17-.5-.17-.2,0-.36.05-.49.15-.13.1-.21.26-.23.49l.41.04c0-.12.04-.21.09-.26.05-.05.12-.08.21-.08s.15.03.2.07c.05.05.08.12.08.21,0,.08-.03.17-.09.26-.04.06-.16.18-.35.36-.23.22-.39.39-.47.52-.08.13-.13.27-.14.41h1.46v-.39h-.83s.05-.07.08-.11c.04-.04.12-.12.25-.24Z"/>
      <path class="cls-8" d="M439.23,181.59c-.21,0-.38.07-.49.22-.14.18-.21.47-.21.88s.06.71.19.87c.13.16.3.24.51.24s.37-.07.49-.22c.14-.18.21-.48.21-.89s-.07-.71-.21-.89c-.12-.15-.28-.23-.49-.23ZM439.46,183.24c-.02.08-.05.14-.09.17-.04.03-.08.05-.13.05-.05,0-.1-.02-.14-.05-.04-.03-.07-.1-.1-.19-.03-.09-.04-.27-.04-.52s.01-.44.05-.55c.02-.08.05-.14.09-.17.04-.03.08-.05.14-.05s.09.02.13.05c.04.03.07.1.1.19.03.1.04.27.04.53s-.01.43-.04.54Z"/>
      <path class="cls-8" d="M443.12,181.59h-.35l-.94,1.38v.37h.89v.44h.4v-.44h.27v-.37h-.27v-1.38ZM442.72,182.97h-.5l.5-.74v.74Z"/>
      <rect class="cls-8" x="428.96" y="182.78" width=".82" height=".42"/>
      <path class="cls-8" d="M434.23,182.86c0,.23-.01.37-.03.43-.02.06-.06.11-.12.15-.06.04-.12.06-.19.06-.06,0-.11-.01-.16-.04-.04-.03-.07-.07-.08-.12-.02-.05-.02-.18-.02-.41v-.72h-.41v1c0,.15.02.27.06.35.04.08.1.15.18.2.08.05.18.07.28.07s.2-.02.3-.07c.09-.05.17-.12.23-.2v.24h.39v-1.57h-.42v.66Z"/>
      <path class="cls-8" d="M431.83,181.56c-.18,0-.33.03-.47.09-.1.04-.2.11-.28.2-.09.09-.15.19-.2.3-.07.15-.1.33-.1.56,0,.35.09.62.28.81.19.2.45.29.77.29s.57-.1.76-.29c.19-.2.29-.47.29-.82s-.1-.63-.29-.83c-.19-.2-.45-.3-.77-.3ZM432.26,183.24c-.11.13-.26.19-.43.19s-.32-.06-.43-.19c-.11-.13-.17-.31-.17-.56s.05-.44.16-.56c.11-.12.26-.19.44-.19s.32.06.43.18c.11.12.16.31.16.56s-.06.44-.17.57Z"/>
      <path class="cls-8" d="M435.63,183.46s-.05,0-.07-.02c-.02-.01-.03-.03-.04-.05,0-.02,0-.1,0-.23v-.63h.28v-.33h-.28v-.56l-.42.24v.31h-.19v.33h.19v.69c0,.15,0,.24.01.29.01.07.03.12.06.16.03.04.07.07.13.1.06.02.13.04.2.04.12,0,.23-.02.33-.06l-.04-.32c-.07.03-.13.04-.17.04Z"/>
      <polygon class="cls-8" points="435.87 183.81 436.17 183.81 436.72 181.56 436.4 181.56 435.87 183.81"/>
      <path class="cls-8" d="M417.25,141.79h1.88c-.11.37-.32.66-.64.87-.31.21-.7.31-1.18.31-.64,0-1.16-.19-1.55-.57-.39-.38-.58-.87-.58-1.45s.19-1.09.57-1.47c.38-.39.87-.58,1.46-.58.37,0,.7.08,1,.24.3.16.52.37.67.62l1.05-.6c-.27-.44-.64-.79-1.12-1.05-.48-.27-1.01-.4-1.59-.4-.93,0-1.7.32-2.33.94-.63.63-.94,1.4-.94,2.3s.32,1.66.95,2.29c.63.63,1.43.94,2.39.94.9,0,1.64-.28,2.2-.83.57-.55.86-1.27.86-2.16v-.48h-3.12v1.09Z"/>
      <path class="cls-8" d="M422.18,140.28v-.77h-1.15v4.45h1.15v-2.13c0-.43.14-.73.41-.91.28-.18.59-.25.94-.21v-1.28c-.3,0-.58.07-.82.22-.25.14-.42.36-.53.64Z"/>
      <path class="cls-8" d="M426.38,139.39c-.69,0-1.25.22-1.69.67-.44.45-.66,1.01-.66,1.68s.22,1.24.67,1.68c.45.44,1.04.67,1.77.67.85,0,1.5-.32,1.94-.95l-.92-.53c-.23.3-.56.45-1,.45-.68,0-1.1-.28-1.25-.84h3.36c.03-.17.05-.32.05-.47,0-.66-.21-1.22-.64-1.67-.43-.45-.96-.68-1.62-.68ZM425.22,141.32c.06-.28.2-.51.4-.66.2-.16.46-.24.77-.24.26,0,.49.07.7.22.2.15.34.37.41.68h-2.27Z"/>
      <path class="cls-8" d="M432.71,140.04c-.34-.43-.83-.65-1.45-.65s-1.1.23-1.53.68c-.42.46-.63,1.01-.63,1.67s.21,1.21.63,1.67c.42.45.93.68,1.53.68s1.11-.22,1.45-.65v.52h1.15v-4.45h-1.15v.52ZM432.36,142.65c-.23.23-.53.35-.89.35s-.65-.12-.88-.35c-.23-.23-.35-.54-.35-.91s.11-.67.35-.9c.23-.23.52-.35.88-.35s.65.12.89.35c.23.23.35.53.35.9s-.12.67-.35.91Z"/>
      <path class="cls-8" d="M436.64,138.27l-1.15.35v.9h-.77v1.1h.77v1.85c0,.61.16,1.03.48,1.27.32.24.88.31,1.67.22v-1.04c-.22.01-.4.02-.55,0-.15-.01-.26-.05-.34-.12s-.12-.18-.12-.34v-1.85h1.01v-1.1h-1.01v-1.24Z"/>
      <path class="cls-8" d="M417.1,145.58h-2.32v6.23h1.23v-2.05h1.09c.6,0,1.1-.2,1.51-.6.41-.4.61-.9.61-1.48s-.21-1.08-.61-1.49c-.41-.4-.91-.6-1.51-.6ZM417.75,148.34c-.17.18-.39.27-.65.27h-1.09v-1.88h1.09c.26,0,.48.09.65.27.17.18.26.4.26.67s-.09.49-.26.67Z"/>
      <rect class="cls-8" x="420.1" y="145.41" width="1.15" height="6.49"/>
      <path class="cls-8" d="M425.72,147.88c-.34-.43-.83-.65-1.45-.65s-1.1.23-1.53.68c-.42.45-.63,1.01-.63,1.67s.21,1.21.63,1.67c.42.46.93.68,1.53.68s1.11-.22,1.45-.65v.52h1.15v-4.45h-1.15v.52ZM425.37,150.49c-.23.23-.53.35-.89.35s-.65-.12-.88-.35c-.23-.23-.35-.54-.35-.91s.11-.67.35-.9c.23-.23.52-.35.88-.35s.65.12.89.35c.23.23.35.53.35.9s-.12.67-.35.91Z"/>
      <path class="cls-8" d="M430.8,150.64c-.18.1-.39.16-.62.16-.35,0-.63-.11-.86-.34-.22-.23-.34-.52-.34-.87s.11-.65.34-.88c.23-.23.51-.34.86-.34.22,0,.43.05.61.16.18.11.32.25.4.43l.99-.58c-.19-.35-.46-.63-.81-.83-.36-.21-.75-.31-1.18-.31-.67,0-1.23.23-1.68.68-.45.45-.67,1.01-.67,1.67s.22,1.22.67,1.67c.45.45,1.01.68,1.68.68.43,0,.83-.11,1.18-.32.36-.21.63-.49.83-.84l-1-.57c-.09.18-.22.33-.4.43Z"/>
      <path class="cls-8" d="M435.15,147.23c-.69,0-1.25.22-1.69.67-.44.45-.66,1.01-.66,1.68s.22,1.24.67,1.68c.45.44,1.04.67,1.77.67.85,0,1.5-.32,1.94-.95l-.92-.53c-.23.3-.56.45-1,.45-.68,0-1.1-.28-1.25-.84h3.36c.03-.17.05-.32.05-.47,0-.66-.21-1.22-.64-1.67-.43-.45-.96-.68-1.62-.68ZM433.99,149.16c.06-.28.2-.51.4-.66.2-.16.46-.24.77-.24.26,0,.49.07.7.22.2.15.34.37.41.68h-2.27Z"/>
      <polygon class="cls-8" points="414.01 154.72 415.68 154.72 415.68 159.77 416.91 159.77 416.91 154.72 418.59 154.72 418.59 153.55 414.01 153.55 414.01 154.72"/>
      <path class="cls-8" d="M420.46,155.05c-.66,0-1.21.23-1.67.68-.45.46-.68,1.01-.68,1.67s.23,1.21.68,1.67c.45.46,1.01.68,1.67.68s1.22-.23,1.67-.68c.46-.45.69-1.01.69-1.67s-.23-1.21-.69-1.67c-.46-.45-1.02-.68-1.67-.68ZM421.33,158.29c-.23.23-.52.35-.86.35s-.63-.11-.86-.35c-.23-.23-.34-.53-.34-.88s.11-.65.34-.88c.23-.23.51-.35.86-.35s.63.12.86.35c.23.23.35.52.35.88s-.12.65-.35.88Z"/>
      <polygon class="cls-8" points="420.27 166.09 418.96 161.47 417.91 161.47 416.61 166.09 415.42 161.47 414.13 161.47 415.87 167.7 417.27 167.7 418.43 163.59 419.61 167.7 421.01 167.7 422.75 161.47 421.46 161.47 420.27 166.09"/>
      <path class="cls-8" d="M424.97,163.04c-.66,0-1.21.23-1.67.68-.45.45-.68,1.01-.68,1.67s.23,1.21.68,1.67c.45.45,1.01.68,1.67.68s1.22-.23,1.67-.68c.46-.45.69-1.01.69-1.67s-.23-1.21-.69-1.67c-.46-.45-1.02-.68-1.67-.68ZM425.84,166.27c-.23.23-.52.35-.86.35s-.63-.11-.86-.35c-.23-.23-.34-.53-.34-.88s.11-.65.34-.88c.23-.23.51-.35.86-.35s.63.12.86.35c.23.23.35.52.35.88s-.12.65-.35.88Z"/>
      <path class="cls-8" d="M429.28,164.01v-.77h-1.15v4.45h1.15v-2.13c0-.43.14-.73.41-.91.28-.18.59-.25.94-.21v-1.28c-.3,0-.58.07-.82.22-.25.14-.42.36-.53.64Z"/>
      <polygon class="cls-8" points="435.49 163.23 434.12 163.23 432.59 165.18 432.59 161.45 431.44 161.45 431.44 167.67 432.59 167.67 432.59 165.65 434.21 167.67 435.54 167.67 433.7 165.42 435.49 163.23"/>
      <path class="cls-8" d="M437.33,166.92c.04-.05.06-.11.06-.17,0-.09-.03-.17-.1-.24-.06-.07-.14-.1-.24-.1h-.41v1.02h.2v-.35h.15l.2.35h.22l-.23-.38c.06-.03.11-.07.14-.12ZM437.14,166.86s-.06.04-.09.04h-.21v-.3h.21s.07.02.09.05c.03.03.04.06.04.11s-.01.08-.04.11Z"/>
      <path class="cls-8" d="M436.96,165.94c-.53,0-.95.42-.95.95s.42.95.95.95.95-.43.95-.95-.42-.95-.95-.95ZM436.96,167.59c-.38,0-.7-.31-.7-.7s.31-.7.7-.7.69.31.69.7-.31.7-.69.7Z"/>
      <path class="cls-8" d="M416.38,176.29c-.21.16-.46.23-.75.23-.18,0-.35-.03-.5-.09-.15-.06-.29-.15-.4-.27-.11-.12-.21-.27-.27-.45-.06-.18-.1-.39-.1-.62,0-.22.03-.42.09-.59.06-.18.15-.33.26-.45.11-.12.24-.22.4-.29.16-.07.33-.1.52-.1.3,0,.55.08.76.24.2.16.33.39.39.7l.93-.08c-.04-.26-.12-.49-.24-.69-.12-.2-.27-.38-.45-.52-.18-.14-.39-.25-.62-.33-.23-.08-.48-.11-.74-.11-.32,0-.61.05-.88.15-.27.1-.5.24-.7.44-.2.19-.35.42-.46.7-.11.28-.16.59-.16.94s.05.66.16.93c.11.28.26.51.46.7.2.19.43.34.7.44.27.1.57.15.88.15.26,0,.51-.04.74-.11.23-.08.44-.18.62-.32.18-.14.33-.31.45-.51.12-.2.21-.43.25-.69l-.94-.08c-.06.3-.19.53-.39.69Z"/>
      <path class="cls-8" d="M420.74,174.6c-.13-.13-.28-.23-.45-.29-.18-.07-.37-.1-.59-.1s-.43.04-.61.11c-.19.07-.35.17-.48.31-.13.13-.24.3-.31.49-.08.19-.11.41-.11.65s.04.46.11.65c.08.19.18.36.31.49.14.13.3.24.49.31.19.07.4.11.63.11.17,0,.34-.02.49-.07.16-.05.3-.12.42-.2.12-.09.22-.19.3-.31.08-.12.14-.25.16-.39l-.85-.04c-.03.1-.09.18-.19.24-.1.06-.22.09-.36.09-.19,0-.34-.06-.45-.16-.11-.11-.16-.26-.17-.44h2.06v-.34c0-.23-.03-.44-.1-.62-.07-.19-.16-.34-.29-.47ZM419.08,175.46c.01-.19.07-.34.18-.44.11-.11.26-.16.44-.16.19,0,.34.05.43.16.09.11.15.25.15.44h-1.2Z"/>
      <path class="cls-8" d="M422.57,174.6v-.34h-.82v2.99h.85v-1.52c0-.21.07-.37.21-.5.14-.13.33-.19.58-.19v-.81c-.23,0-.41.04-.54.11-.13.07-.22.16-.28.26Z"/>
      <path class="cls-8" d="M425.02,173.25h-.84v.99h-.56v.73h.54v1.32c0,.17.02.33.07.45.05.13.13.23.22.31.09.08.21.14.34.18.14.04.28.06.45.06.12,0,.21,0,.27-.01.07,0,.13-.01.19-.02v-.75s-.07.02-.11.02c-.04,0-.09,0-.15,0-.12,0-.23-.03-.32-.1-.09-.07-.14-.19-.14-.35v-1.11h.71v-.73h-.7v-.99Z"/>
      <rect class="cls-8" x="426.24" y="174.26" width=".85" height="2.99"/>
      <path class="cls-8" d="M426.67,172.77c-.07,0-.13.01-.19.04-.06.03-.11.06-.16.11-.05.05-.08.1-.11.16-.03.06-.04.13-.04.2,0,.14.05.26.15.36.1.1.22.15.36.15s.26-.05.36-.15c.1-.1.15-.22.15-.36s-.05-.27-.15-.36c-.1-.1-.22-.15-.36-.15Z"/>
      <path class="cls-8" d="M429.32,172.72c-.19,0-.36.03-.51.09-.15.06-.28.14-.39.25-.11.11-.19.24-.25.39-.06.15-.09.32-.09.51v.31h-.54v.73h.54v2.27h.84v-2.27h.69v-.73h-.69v-.33c0-.14.05-.26.14-.34.09-.09.21-.13.36-.13.04,0,.08,0,.11,0,.03,0,.06,0,.09,0v-.73s-.09-.01-.13-.01c-.04,0-.1,0-.16,0Z"/>
      <rect class="cls-8" x="430.13" y="174.26" width=".85" height="2.99"/>
      <path class="cls-8" d="M430.56,172.77c-.07,0-.13.01-.19.04-.06.03-.11.06-.16.11-.05.05-.08.1-.11.16-.03.06-.04.13-.04.2,0,.14.05.26.15.36.1.1.22.15.36.15s.26-.05.36-.15.15-.22.15-.36-.05-.27-.15-.36c-.1-.1-.22-.15-.36-.15Z"/>
      <path class="cls-8" d="M433.1,174.93c.16,0,.3.05.4.14.11.09.17.21.19.37l.83-.07c-.03-.18-.08-.34-.17-.48-.08-.14-.19-.27-.31-.37-.13-.1-.27-.18-.43-.23-.16-.05-.33-.08-.51-.08-.22,0-.42.03-.61.1-.19.07-.35.17-.49.3-.13.13-.24.3-.32.49-.08.19-.12.41-.12.66s.04.46.12.66c.08.19.18.35.32.49.14.13.3.23.49.31.19.07.39.11.61.11.19,0,.36-.03.51-.08.16-.05.3-.13.43-.23.12-.1.23-.22.31-.36.08-.14.14-.3.17-.48l-.82-.08c-.02.15-.09.27-.19.36-.1.09-.24.13-.4.13-.2,0-.36-.07-.49-.21-.13-.14-.19-.35-.19-.61s.06-.47.19-.62c.13-.14.29-.22.49-.22Z"/>
      <path class="cls-8" d="M431.63,189.16c-.07-.05-.15-.1-.25-.13-.1-.04-.21-.07-.32-.1-.08-.02-.15-.04-.21-.05-.06-.02-.1-.04-.14-.06-.03-.02-.06-.05-.08-.08-.02-.03-.03-.07-.03-.11,0-.08.03-.15.09-.2.06-.05.15-.08.26-.08s.2.03.26.09c.06.06.09.14.1.24l.49-.03c0-.11-.03-.21-.07-.3-.04-.09-.1-.16-.18-.23-.08-.06-.16-.11-.27-.14-.1-.03-.22-.05-.34-.05-.14,0-.26.02-.36.06-.1.04-.19.09-.26.16-.07.06-.12.14-.16.23-.03.09-.05.18-.05.27,0,.11.02.21.06.28.04.08.1.14.16.19.07.05.15.09.25.12.09.03.19.06.3.08.16.04.27.08.35.13.08.04.12.11.12.19,0,.1-.03.17-.1.21-.07.04-.15.06-.26.06-.06,0-.12,0-.17-.02-.05-.02-.1-.04-.14-.07-.04-.03-.07-.07-.09-.11-.02-.05-.03-.09-.04-.15l-.49.03c0,.12.03.23.07.32.05.09.11.17.19.24.08.06.18.11.29.14.11.03.24.05.37.05.12,0,.23-.01.33-.04s.19-.07.27-.13c.08-.06.14-.13.18-.22.05-.09.07-.2.07-.32,0-.1-.02-.19-.06-.26-.04-.07-.09-.14-.16-.19Z"/>
      <rect class="cls-8" x="432.23" y="187.97" width=".48" height="2.32"/>
      <polygon class="cls-8" points="433.62 187.97 433.14 187.97 433.14 190.29 434.63 190.29 434.63 189.86 433.62 189.86 433.62 187.97"/>
      <path class="cls-8" d="M436.25,174.18c-.19,0-.37.03-.52.09-.15.06-.28.14-.39.25-.11.1-.19.22-.25.34-.06.13-.09.26-.09.39l.85.04c0-.1.03-.19.1-.27.06-.08.17-.12.32-.12.26,0,.39.15.39.46v.12l-.53.03c-.16,0-.31.03-.46.06-.14.03-.27.08-.38.16-.11.07-.2.16-.27.27-.06.11-.1.25-.1.42,0,.29.09.51.27.66.18.15.42.23.72.23.17,0,.32-.03.45-.09.12-.06.23-.13.32-.22v.24h.81v-1.85c0-.4-.11-.7-.32-.9-.21-.2-.52-.3-.92-.3ZM436.65,176.16c0,.16-.05.28-.16.37-.1.08-.23.12-.38.12-.1,0-.19-.02-.25-.06-.06-.04-.1-.11-.1-.21,0-.11.04-.18.12-.23.08-.05.19-.08.31-.08l.45-.03v.13Z"/>
      <path class="cls-8" d="M440.33,174.54c-.08-.09-.19-.16-.34-.22-.14-.06-.32-.09-.51-.09-.21,0-.41.04-.59.11-.17.07-.33.18-.45.32-.13.14-.23.3-.3.49-.07.19-.11.4-.11.64s.04.45.11.64c.07.19.17.35.3.49.13.14.28.24.45.32.18.07.37.11.59.11s.4-.04.55-.11c.15-.07.27-.16.35-.26v.31h.8v-4.5h-.84v1.77ZM440.33,175.84c0,.24-.07.43-.2.57-.13.13-.3.2-.51.2s-.38-.07-.52-.21c-.14-.14-.2-.35-.2-.61s.07-.47.2-.62c.14-.14.31-.22.52-.22s.38.07.51.2c.13.13.2.32.2.56v.13Z"/>
      <path class="cls-8" d="M443.1,174.2c-.19,0-.37.03-.52.09-.15.06-.28.14-.39.25-.11.1-.19.22-.25.34-.06.13-.09.26-.09.39l.85.04c0-.1.03-.19.1-.27.06-.08.17-.12.32-.12.26,0,.39.15.39.46v.12l-.53.03c-.16,0-.31.03-.46.06-.14.03-.27.08-.38.16-.11.07-.2.16-.27.27-.06.11-.1.25-.1.42,0,.29.09.51.27.66.18.15.42.23.72.23.17,0,.32-.03.45-.09.12-.06.23-.13.32-.22v.24h.81v-1.85c0-.4-.11-.7-.32-.9-.21-.2-.52-.3-.92-.3ZM443.5,176.18c0,.16-.05.28-.16.37-.1.08-.23.12-.38.12-.1,0-.19-.02-.25-.06-.06-.04-.1-.11-.1-.21,0-.11.04-.18.12-.23.08-.05.19-.08.31-.08l.45-.03v.13Z"/>
      <path class="cls-8" d="M425.05,189.07c.07-.04.12-.1.16-.18.04-.08.06-.17.06-.28s-.02-.2-.06-.28c-.03-.08-.08-.15-.15-.2-.06-.05-.14-.09-.23-.12-.09-.03-.19-.04-.29-.04h-.97v2.32h1.04c.11,0,.21-.01.3-.04.09-.03.17-.07.24-.13.07-.06.12-.13.16-.21.04-.08.06-.18.06-.29,0-.15-.03-.27-.1-.36-.06-.09-.14-.15-.23-.19ZM424.06,188.39h.44c.09,0,.16.02.21.06.05.04.08.11.08.19s-.03.15-.07.19c-.05.04-.11.06-.19.06h-.46v-.51ZM424.79,189.8c-.06.04-.14.06-.23.06h-.5v-.56h.51c.09,0,.16.02.22.07.06.04.09.11.09.21s-.03.17-.09.21Z"/>
      <path class="cls-8" d="M427.39,189.13c.07-.11.1-.25.1-.41,0-.12-.02-.22-.06-.32-.04-.09-.09-.17-.16-.23-.06-.06-.14-.11-.24-.14-.09-.03-.19-.05-.3-.05h-.99v2.32h.48v-.83h.39l.45.83h.54l-.49-.91c.12-.06.21-.14.27-.25ZM426.91,188.95c-.06.05-.14.08-.23.08h-.46v-.64h.46c.09,0,.17.03.23.08.06.05.09.13.09.24s-.03.18-.09.24Z"/>
      <path class="cls-8" d="M428.67,187.97l-1,2.32h.52l.19-.45h.97l.19.45h.53l-1-2.32h-.4ZM428.56,189.45l.31-.74.31.74h-.63Z"/>
      <polygon class="cls-5" points="444.16 188.33 444.52 188.33 444.52 189.13 444.85 189.13 444.85 188.33 445.22 188.33 445.22 188.01 444.16 188.01 444.16 188.33"/>
      <polygon class="cls-5" points="446.03 188.68 445.66 188.01 445.38 188.01 445.38 189.13 445.71 189.13 445.71 188.66 445.96 189.11 446.11 189.11 446.36 188.66 446.36 189.13 446.69 189.13 446.69 188.01 446.41 188.01 446.03 188.68"/>
    </g>
  </g>
</svg>