<svg width="600" height="200" viewBox="0 0 600 200" fill="none" xmlns="http://www.w3.org/2000/svg">
<rect width="600" height="200" fill="white"/>
<path d="M220.267 35.4876L215.772 39.986L206.282 48.483L207.281 63.4778L211.776 73.9741L216.771 78.9724L220.767 83.4708L223.763 84.9703H225.761L226.76 83.9706L230.756 81.9713L238.248 73.9741L240.246 64.9773L238.248 45.9839L235.251 39.4862L228.758 33.9881L224.762 33.4883L220.267 35.4876Z" fill="#BA1319"/>
<path d="M0 199.92H375.143V118.868H363.915C347.143 143.59 306.176 177.808 207.86 177.808C71.8041 177.808 12.0373 112.281 0 97.086" fill="#BA1319"/>
<path d="M212.995 198.541C318.313 198.541 363.905 137.902 373.655 118.868H353.936C332.029 139.111 291.921 164.322 228.069 164.322C136.935 164.322 52.2947 70.3654 16.123 0H0V100.885C13.5357 117.539 85.8892 198.541 212.995 198.541Z" fill="#4C4C4E"/>
<path d="M212.995 198.541C318.313 198.541 363.905 137.902 373.655 118.868H372.866C328.822 179.517 208.42 222.112 110.503 149.558C49.8773 104.623 9.79964 41.7854 0 25.5011V100.885C13.5357 117.539 85.8892 198.541 212.995 198.541Z" fill="#EBEBEB"/>
<path d="M185.973 104.084V104.044C186.823 103.694 187.362 102.904 187.362 101.904C187.362 100.535 186.203 99.6151 184.485 99.6151H180.869V108.602H184.475C186.453 108.602 187.672 107.702 187.672 106.263C187.672 105.143 187.032 104.393 185.973 104.084ZM182.837 101.315H184.355C184.974 101.315 185.384 101.704 185.384 102.274C185.384 102.934 185.014 103.354 184.385 103.354H182.847V101.315H182.837ZM184.365 106.913H182.837V104.883H184.465C185.184 104.883 185.644 105.303 185.644 105.903C185.644 106.503 185.134 106.913 184.355 106.913H184.365Z" fill="#4C4C4E"/>
<path d="M192.526 105.573C192.526 106.553 192.017 107.123 191.298 107.123C190.658 107.123 190.319 106.763 190.319 105.833V102.324H188.511V106.073C188.511 107.732 189.35 108.722 190.768 108.722C191.548 108.722 192.307 108.362 192.616 107.822H192.656V108.592H194.335V102.324H192.526V105.573Z" fill="#4C4C4E"/>
<path d="M197.062 104.164C197.062 103.834 197.411 103.634 197.911 103.634C198.44 103.634 199.159 103.784 199.789 104.044V102.614C199.259 102.374 198.49 102.204 197.791 102.204C196.213 102.204 195.304 102.954 195.304 104.134C195.304 106.343 198.34 105.903 198.34 106.763C198.34 107.123 198.011 107.312 197.331 107.312C196.792 107.312 196.053 107.142 195.473 106.893V108.322C196.063 108.582 196.842 108.732 197.451 108.732C199.129 108.732 200.128 108.012 200.128 106.763C200.128 104.543 197.072 105.003 197.072 104.154L197.062 104.164Z" fill="#4C4C4E"/>
<path d="M200.808 105.473C200.808 107.462 202.076 108.732 204.064 108.732C204.604 108.732 205.293 108.612 205.812 108.402V106.823C205.343 107.033 204.823 107.143 204.404 107.143C203.325 107.143 202.646 106.483 202.646 105.473C202.646 104.463 203.325 103.804 204.404 103.804C204.823 103.804 205.343 103.924 205.812 104.124V102.544C205.303 102.324 204.604 102.214 204.064 102.214C202.076 102.214 200.808 103.484 200.808 105.473Z" fill="#4C4C4E"/>
<path d="M210.188 102.214C209.469 102.214 208.779 102.584 208.47 103.114H208.43V99.6251H206.622V108.612H208.43V105.453C208.43 104.443 208.919 103.824 209.638 103.824C210.288 103.824 210.637 104.264 210.637 105.103V108.612H212.445V104.863C212.445 103.204 211.606 102.214 210.188 102.214Z" fill="#4C4C4E"/>
<path d="M215.412 99.6151H213.604V108.602H215.412V99.6151Z" fill="#4C4C4E"/>
<path d="M219.288 102.214C217.48 102.214 216.341 103.474 216.341 105.473C216.341 107.472 217.6 108.732 219.558 108.732C220.187 108.732 221.006 108.562 221.586 108.312V106.913C220.996 107.123 220.287 107.272 219.738 107.272C218.759 107.272 218.189 106.783 218.109 105.923H221.776C222.325 103.674 221.266 102.214 219.288 102.214ZM218.109 104.873C218.219 104.054 218.619 103.584 219.198 103.584C219.828 103.584 220.197 104.024 220.197 104.873H218.109Z" fill="#4C4C4E"/>
<path d="M226.251 106.703C226.251 106.253 226.71 106.053 227.18 106.053H228.179V105.123L226.64 103.804H228.938V102.344H224.782V103.804L226.271 105.043C225.262 105.173 224.623 105.853 224.623 106.753C224.623 107.942 225.601 108.732 227.07 108.732C227.819 108.732 228.618 108.612 229.058 108.402V107.143C228.548 107.332 227.829 107.452 227.17 107.452C226.511 107.452 226.251 107.152 226.251 106.703Z" fill="#4C4C4E"/>
<path d="M233.753 99.6151H231.755V108.602H237.489V106.853H233.753V99.6151Z" fill="#4C4C4E"/>
<path d="M240.566 102.214C238.758 102.214 237.619 103.474 237.619 105.473C237.619 107.472 238.877 108.732 240.835 108.732C241.465 108.732 242.284 108.562 242.863 108.312V106.913C242.274 107.123 241.565 107.272 241.015 107.272C240.036 107.272 239.467 106.783 239.387 105.923H243.053C243.602 103.674 242.544 102.214 240.566 102.214ZM239.387 104.873C239.497 104.054 239.896 103.584 240.476 103.584C241.105 103.584 241.475 104.024 241.475 104.873H239.387Z" fill="#4C4C4E"/>
<path d="M247.618 102.214C246.869 102.214 246.16 102.594 245.89 103.174H245.85V102.334H244.152V111.321H245.96V107.842H246C246.32 108.372 246.979 108.732 247.618 108.732C249.187 108.732 250.265 107.412 250.265 105.473C250.265 103.534 249.187 102.214 247.618 102.214ZM247.199 107.133C246.449 107.133 245.97 106.483 245.97 105.473C245.97 104.463 246.459 103.814 247.199 103.814C247.938 103.814 248.407 104.433 248.407 105.473C248.407 106.513 247.958 107.133 247.199 107.133Z" fill="#4C4C4E"/>
<path d="M254.651 102.214C253.902 102.214 253.192 102.594 252.923 103.174H252.883V102.334H251.184V111.321H252.993V107.842H253.032C253.352 108.372 254.011 108.732 254.651 108.732C256.219 108.732 257.298 107.412 257.298 105.473C257.298 103.534 256.219 102.214 254.651 102.214ZM254.231 107.133C253.482 107.133 253.003 106.483 253.003 105.473C253.003 104.463 253.492 103.814 254.231 103.814C254.97 103.814 255.44 104.433 255.44 105.473C255.44 106.513 254.99 107.133 254.231 107.133Z" fill="#4C4C4E"/>
<path d="M260.944 102.214C259.136 102.214 257.997 103.474 257.997 105.473C257.997 107.472 259.256 108.732 261.214 108.732C261.843 108.732 262.662 108.562 263.242 108.312V106.913C262.652 107.123 261.943 107.272 261.394 107.272C260.415 107.272 259.845 106.783 259.765 105.923H263.431C263.981 103.674 262.922 102.214 260.944 102.214ZM259.755 104.873C259.875 104.054 260.265 103.584 260.844 103.584C261.474 103.584 261.843 104.024 261.843 104.873H259.755Z" fill="#4C4C4E"/>
<path d="M266.268 103.304H266.229V102.344H264.53V108.612H266.338V105.723C266.338 104.693 266.928 104.044 267.877 104.044C268.196 104.044 268.546 104.104 268.896 104.254V102.374C268.626 102.274 268.326 102.224 268.077 102.224C267.267 102.224 266.578 102.664 266.268 103.314V103.304Z" fill="#4C4C4E"/>
<path d="M238.877 88.609C255.456 88.609 268.896 75.4642 268.896 59.2493C268.896 43.0343 255.456 29.8895 238.877 29.8895C222.299 29.8895 208.859 43.0343 208.859 59.2493C208.859 75.4642 222.299 88.609 238.877 88.609Z" fill="#BA1319"/>
<path d="M210.887 88.609C227.466 88.609 240.905 75.4642 240.905 59.2493C240.905 43.0343 227.466 29.8895 210.887 29.8895C194.308 29.8895 180.869 43.0343 180.869 59.2493C180.869 75.4642 194.308 88.609 210.887 88.609Z" fill="#BA1319"/>
<path d="M221.796 62.6081C221.796 60.7187 224.323 60.1689 229.368 60.1689L229.897 58.1596L225.262 53.7212H232.794V49.9925H219.468V53.5613L223.833 57.7098C219.518 58.0897 217.47 60.2689 217.47 62.918C217.47 67.1665 221.995 68.516 227.25 68.516C229.867 68.516 232.394 68.1561 234.522 67.3564V62.988C232.984 64.0076 230.356 64.6774 227 64.6774C224.303 64.6774 221.806 64.3475 221.806 62.6181L221.796 62.6081Z" fill="white"/>
<path d="M243.563 47.6733H238.488V70.8252H255.07V66.1868H243.563V47.6733Z" fill="white"/>
<path d="M210.428 58.4895C212.086 57.4599 213.095 55.9404 213.095 53.5613C213.095 49.2328 209.678 47.6733 204.474 47.6733H194.814V70.8252H206.272C212.356 70.8252 214.793 68.2161 214.793 64.4075C214.793 61.1986 213.035 59.4092 210.428 58.4895ZM199.889 52.3017H204.484C207.321 52.3017 208.37 52.9015 208.37 54.4509C208.37 56.0004 207.321 56.6002 204.484 56.6002H199.889V52.3017ZM206.272 66.1868H199.889V61.2286H206.272C208.979 61.2286 210.058 61.9883 210.058 63.6777C210.058 65.3671 208.979 66.1868 206.272 66.1868Z" fill="white"/>
<path d="M374.585 118.952L374.265 119.592L374.146 119.802V200H600V118.952H374.585Z" fill="#BA1319"/>
<path d="M508.23 143.882V140.414L501.754 143.882H508.23Z" fill="#4B4B4A"/>
<path d="M547.91 185.354C559.654 173.589 559.654 154.513 547.91 142.747C536.166 130.981 517.126 130.981 505.383 142.747C493.639 154.513 493.639 173.589 505.383 185.354C517.126 197.12 536.166 197.12 547.91 185.354Z" fill="url(#paint0_linear_25_4)"/>
<path d="M545.455 182.895C555.843 172.487 555.843 155.614 545.455 145.207C535.067 134.8 518.225 134.8 507.838 145.207C497.45 155.614 497.45 172.487 507.838 182.895C518.225 193.302 535.067 193.302 545.455 182.895Z" fill="#F9F9FA"/>
<path d="M540.057 177.489H513.228V178.189H540.057V177.489Z" fill="url(#paint1_linear_25_4)"/>
<path d="M522.687 174.58V174.68L522.707 174.76V174.88C522.707 174.88 522.756 174.84 522.766 174.82L522.697 174.57L522.687 174.58Z" fill="#4B4B4A"/>
<path d="M520.442 173.281C520.322 173.221 520.182 173.191 520.023 173.191C519.843 173.191 519.693 173.221 519.554 173.301C519.444 173.361 519.374 173.451 519.314 173.541V173.741L519.254 173.601C519.254 173.601 519.294 173.571 519.314 173.541V173.211H518.975V175.18H519.334V174.17C519.334 174.03 519.364 173.91 519.404 173.81C519.454 173.711 519.524 173.641 519.624 173.591C519.713 173.541 519.823 173.521 519.953 173.521C520.122 173.521 520.252 173.571 520.342 173.661C520.442 173.76 520.482 173.9 520.482 174.09V175.18H520.841V174.05C520.841 173.86 520.811 173.701 520.741 173.571C520.671 173.441 520.571 173.351 520.452 173.291L520.442 173.281Z" fill="#4B4B4A"/>
<path d="M522.746 174.04H522.687V174.3H522.746V174.04Z" fill="#4B4B4A"/>
<path d="M522.687 174.58C522.647 174.69 522.577 174.78 522.477 174.83C522.377 174.89 522.267 174.92 522.128 174.92C521.988 174.92 521.888 174.89 521.809 174.83C521.729 174.77 521.689 174.69 521.689 174.6C521.689 174.52 521.719 174.44 521.779 174.38C521.838 174.32 521.958 174.29 522.138 174.29H522.677V174.03H522.118C521.918 174.03 521.769 174.06 521.649 174.11C521.539 174.16 521.449 174.23 521.399 174.32C521.35 174.41 521.33 174.5 521.33 174.61C521.33 174.72 521.36 174.82 521.419 174.91C521.479 175 521.559 175.07 521.669 175.11C521.779 175.16 521.908 175.18 522.048 175.18C522.228 175.18 522.377 175.15 522.497 175.08C522.587 175.03 522.637 174.95 522.687 174.86V174.74L522.667 174.66V174.56L522.687 174.58Z" fill="#4B4B4A"/>
<path d="M522.198 173.191C522.038 173.191 521.888 173.211 521.749 173.261C521.609 173.301 521.489 173.361 521.39 173.451L521.539 173.721C521.619 173.661 521.709 173.601 521.819 173.571C521.928 173.531 522.038 173.511 522.158 173.511C522.337 173.511 522.467 173.551 522.547 173.641C522.637 173.721 522.677 173.84 522.677 173.99V174.06H522.736V174.32H522.677V174.6L522.746 174.85C522.746 174.85 522.706 174.89 522.687 174.91V175.2H523.026V174.01C523.026 173.741 522.956 173.541 522.806 173.411C522.657 173.281 522.457 173.211 522.188 173.211L522.198 173.191Z" fill="#4B4B4A"/>
<path d="M526.398 172.371C526.328 172.371 526.268 172.391 526.228 172.441C526.189 172.481 526.159 172.541 526.159 172.611C526.159 172.681 526.179 172.731 526.228 172.771C526.278 172.811 526.328 172.841 526.398 172.841C526.468 172.841 526.528 172.821 526.568 172.781C526.608 172.731 526.637 172.671 526.637 172.611C526.637 172.551 526.618 172.491 526.568 172.451C526.518 172.411 526.468 172.381 526.398 172.381V172.371Z" fill="#4B4B4A"/>
<path d="M527.615 172.421H527.256V175.17H527.615V172.421Z" fill="#4B4B4A"/>
<path d="M528.653 173.211H528.294V175.18H528.653V173.211Z" fill="#4B4B4A"/>
<path d="M526.588 173.211H526.228V175.18H526.588V173.211Z" fill="#4B4B4A"/>
<path d="M523.704 175.17H524.043V174.82C524.043 174.82 523.984 174.77 523.964 174.74C523.884 174.59 523.844 174.41 523.844 174.18C523.844 173.95 523.884 173.77 523.964 173.621C523.984 173.581 524.023 173.561 524.053 173.531V172.411H523.694V175.16L523.704 175.17Z" fill="#4B4B4A"/>
<path d="M519.304 173.741V173.541C519.304 173.541 519.264 173.571 519.244 173.601L519.304 173.741Z" fill="#4B4B4A"/>
<path d="M523.854 174.19C523.854 174.41 523.894 174.6 523.974 174.75C523.994 174.79 524.023 174.8 524.053 174.83V174.65L524.033 174.19L524.073 173.731V173.541C524.073 173.541 524.004 173.591 523.984 173.631C523.904 173.78 523.864 173.96 523.864 174.19H523.854Z" fill="#4B4B4A"/>
<path d="M525.251 173.321C525.101 173.241 524.931 173.191 524.742 173.191C524.582 173.191 524.433 173.231 524.293 173.301C524.193 173.351 524.133 173.451 524.063 173.541V173.731L524.023 174.19L524.043 174.65V174.83C524.113 174.93 524.183 175.03 524.283 175.09C524.423 175.16 524.572 175.2 524.742 175.2C524.931 175.2 525.101 175.16 525.251 175.07C525.4 174.99 525.52 174.87 525.6 174.72C525.69 174.57 525.73 174.4 525.73 174.19C525.73 173.98 525.69 173.81 525.6 173.671C525.51 173.521 525.4 173.401 525.251 173.321ZM525.291 174.56C525.231 174.66 525.161 174.75 525.051 174.8C524.951 174.86 524.842 174.89 524.712 174.89C524.582 174.89 524.472 174.86 524.373 174.8C524.273 174.74 524.193 174.66 524.133 174.56C524.073 174.45 524.043 174.34 524.043 174.19C524.043 174.04 524.073 173.93 524.133 173.83C524.193 173.731 524.273 173.651 524.373 173.591C524.472 173.531 524.582 173.501 524.712 173.501C524.842 173.501 524.951 173.531 525.051 173.591C525.151 173.651 525.231 173.731 525.291 173.83C525.35 173.93 525.38 174.06 525.38 174.19C525.38 174.32 525.35 174.45 525.291 174.56Z" fill="#4B4B4A"/>
<path d="M514.904 174.89C514.805 174.89 514.725 174.86 514.675 174.8C514.625 174.74 514.595 174.66 514.595 174.55V173.491H514.236V174.57C514.236 174.77 514.286 174.92 514.395 175.03C514.505 175.14 514.655 175.19 514.854 175.19C514.934 175.19 515.014 175.18 515.084 175.16C515.164 175.14 515.224 175.1 515.283 175.06L515.174 174.8C515.104 174.86 515.004 174.89 514.894 174.89H514.904Z" fill="#4B4B4A"/>
<path d="M514.246 173.211H513.907V173.501H514.246V173.211Z" fill="#4B4B4A"/>
<path d="M514.605 172.771H514.246V173.201H514.605V172.771Z" fill="#4B4B4A"/>
<path d="M513.497 174.19C513.428 174.15 513.348 174.13 513.258 174.1C513.168 174.08 513.078 174.06 512.989 174.05C512.899 174.04 512.819 174.02 512.739 174C512.669 173.98 512.61 173.95 512.56 173.92C512.52 173.88 512.49 173.83 512.49 173.76C512.49 173.681 512.53 173.621 512.61 173.571C512.689 173.521 512.799 173.491 512.959 173.491C513.059 173.491 513.148 173.491 513.248 173.521C513.348 173.541 513.438 173.581 513.527 173.641L513.677 173.361C513.597 173.301 513.488 173.261 513.348 173.231C513.218 173.201 513.088 173.181 512.959 173.181C512.789 173.181 512.639 173.211 512.52 173.251C512.4 173.301 512.3 173.371 512.24 173.451C512.171 173.541 512.141 173.651 512.141 173.76C512.141 173.87 512.161 173.96 512.21 174.03C512.25 174.1 512.31 174.15 512.39 174.19C512.46 174.23 512.55 174.25 512.639 174.28C512.729 174.3 512.819 174.32 512.909 174.33C512.999 174.34 513.078 174.36 513.148 174.37C513.218 174.39 513.278 174.41 513.328 174.45C513.368 174.48 513.398 174.53 513.398 174.59C513.398 174.67 513.358 174.74 513.288 174.79C513.218 174.84 513.098 174.86 512.929 174.86C512.799 174.86 512.669 174.84 512.55 174.8C512.43 174.76 512.32 174.71 512.24 174.66L512.091 174.94C512.171 175 512.29 175.06 512.44 175.1C512.59 175.14 512.749 175.17 512.909 175.17C513.088 175.17 513.238 175.15 513.358 175.1C513.488 175.05 513.577 174.98 513.647 174.9C513.717 174.81 513.747 174.71 513.747 174.59C513.747 174.48 513.727 174.39 513.677 174.32C513.637 174.25 513.577 174.2 513.497 174.16V174.19Z" fill="#4B4B4A"/>
<path d="M515.164 173.211H514.605V173.501H515.164V173.211Z" fill="#4B4B4A"/>
<path d="M509.028 173.92C508.938 173.87 508.838 173.83 508.718 173.79C508.609 173.76 508.499 173.731 508.389 173.701C508.279 173.671 508.18 173.641 508.08 173.611C507.99 173.581 507.91 173.541 507.85 173.481C507.791 173.431 507.761 173.351 507.761 173.261C507.761 173.181 507.781 173.111 507.82 173.051C507.87 172.991 507.94 172.941 508.03 172.901C508.12 172.861 508.239 172.841 508.389 172.841C508.509 172.841 508.629 172.861 508.748 172.891C508.868 172.921 508.988 172.981 509.098 173.051L509.217 172.751C509.108 172.681 508.978 172.621 508.838 172.581C508.688 172.541 508.539 172.521 508.389 172.521C508.16 172.521 507.97 172.551 507.83 172.621C507.681 172.691 507.571 172.781 507.501 172.891C507.431 173.001 507.401 173.121 507.401 173.261C507.401 173.401 507.431 173.511 507.491 173.601C507.551 173.691 507.621 173.761 507.711 173.81C507.81 173.86 507.91 173.91 508.02 173.94C508.13 173.97 508.25 174 508.359 174.03C508.469 174.06 508.569 174.08 508.659 174.12C508.758 174.15 508.828 174.19 508.888 174.25C508.948 174.31 508.978 174.38 508.978 174.47C508.978 174.55 508.958 174.62 508.908 174.68C508.858 174.74 508.798 174.79 508.698 174.82C508.609 174.85 508.479 174.87 508.329 174.87C508.17 174.87 508.01 174.84 507.85 174.78C507.701 174.72 507.571 174.65 507.471 174.56L507.332 174.85C507.431 174.95 507.581 175.02 507.761 175.09C507.94 175.15 508.13 175.18 508.329 175.18C508.559 175.18 508.748 175.15 508.888 175.08C509.038 175.01 509.147 174.92 509.217 174.81C509.287 174.7 509.327 174.58 509.327 174.44C509.327 174.3 509.297 174.19 509.237 174.11C509.177 174.02 509.108 173.95 509.008 173.9L509.028 173.92Z" fill="#4B4B4A"/>
<path d="M511.302 174.22C511.302 174.36 511.273 174.48 511.233 174.58C511.183 174.68 511.113 174.75 511.023 174.8C510.933 174.85 510.824 174.87 510.704 174.87C510.534 174.87 510.405 174.82 510.315 174.73C510.225 174.63 510.175 174.49 510.175 174.3V173.211H509.816V174.34C509.816 174.53 509.846 174.69 509.916 174.82C509.986 174.95 510.085 175.04 510.215 175.1C510.345 175.16 510.494 175.19 510.664 175.19C510.824 175.19 510.973 175.15 511.093 175.08C511.193 175.02 511.263 174.93 511.322 174.83V174.63L511.382 174.77C511.382 174.77 511.342 174.81 511.322 174.83V175.16H511.662V173.191H511.302V174.22Z" fill="#4B4B4A"/>
<path d="M511.322 174.84C511.322 174.84 511.362 174.81 511.382 174.78L511.322 174.64V174.84Z" fill="#4B4B4A"/>
<path d="M516.98 174.04H516.92V174.3H516.98V174.04Z" fill="#4B4B4A"/>
<path d="M514.605 173.211H514.246V173.501H514.605V173.211Z" fill="#4B4B4A"/>
<path d="M516.92 174.58V174.68L516.94 174.76V174.88C516.94 174.88 516.99 174.84 517 174.82L516.93 174.57L516.92 174.58Z" fill="#4B4B4A"/>
<path d="M518.297 173.211H517.937V175.18H518.297V173.211Z" fill="#4B4B4A"/>
<path d="M516.431 173.191C516.271 173.191 516.122 173.211 515.982 173.261C515.842 173.301 515.722 173.361 515.623 173.451L515.772 173.721C515.852 173.661 515.942 173.601 516.052 173.571C516.161 173.531 516.271 173.511 516.391 173.511C516.57 173.511 516.7 173.551 516.78 173.641C516.87 173.721 516.91 173.84 516.91 173.99V174.06H516.97V174.32H516.91V174.6L516.98 174.85C516.98 174.85 516.94 174.89 516.92 174.91V175.2H517.259V174.01C517.259 173.741 517.189 173.541 517.039 173.411C516.89 173.281 516.69 173.211 516.421 173.211L516.431 173.191Z" fill="#4B4B4A"/>
<path d="M528.473 172.371C528.403 172.371 528.344 172.391 528.304 172.441C528.264 172.481 528.234 172.541 528.234 172.611C528.234 172.681 528.254 172.731 528.304 172.771C528.354 172.811 528.403 172.841 528.473 172.841C528.543 172.841 528.603 172.821 528.643 172.781C528.683 172.731 528.713 172.671 528.713 172.611C528.713 172.551 528.693 172.491 528.643 172.451C528.593 172.411 528.543 172.381 528.473 172.381V172.371Z" fill="#4B4B4A"/>
<path d="M516.92 174.58C516.88 174.69 516.81 174.78 516.71 174.83C516.61 174.89 516.501 174.92 516.361 174.92C516.221 174.92 516.121 174.89 516.042 174.83C515.962 174.77 515.922 174.69 515.922 174.6C515.922 174.52 515.952 174.44 516.012 174.38C516.072 174.32 516.191 174.29 516.371 174.29H516.91V174.03H516.351C516.151 174.03 516.002 174.06 515.882 174.11C515.772 174.16 515.683 174.23 515.633 174.32C515.583 174.41 515.563 174.5 515.563 174.61C515.563 174.72 515.593 174.82 515.653 174.91C515.712 175 515.792 175.07 515.902 175.11C516.012 175.16 516.141 175.18 516.281 175.18C516.461 175.18 516.61 175.15 516.73 175.08C516.82 175.03 516.87 174.95 516.92 174.86V174.74L516.9 174.66V174.56L516.92 174.58Z" fill="#4B4B4A"/>
<path d="M518.117 172.371C518.047 172.371 517.987 172.391 517.947 172.441C517.907 172.481 517.878 172.541 517.878 172.611C517.878 172.681 517.897 172.731 517.947 172.771C517.997 172.811 518.047 172.841 518.117 172.841C518.187 172.841 518.247 172.821 518.287 172.781C518.326 172.731 518.356 172.671 518.356 172.611C518.356 172.551 518.336 172.491 518.287 172.451C518.237 172.411 518.187 172.381 518.117 172.381V172.371Z" fill="#4B4B4A"/>
<path d="M545.395 173.551V173.751L545.415 174.14L545.375 174.53V174.75C545.375 174.75 545.435 174.71 545.455 174.67C545.534 174.53 545.584 174.35 545.584 174.14C545.584 173.93 545.544 173.75 545.455 173.611C545.445 173.581 545.415 173.581 545.395 173.551Z" fill="#4B4B4A"/>
<path d="M539.738 173.211H539.179V173.501H539.738V173.211Z" fill="#4B4B4A"/>
<path d="M539.179 173.211H538.82V173.501H539.179V173.211Z" fill="#4B4B4A"/>
<path d="M539.179 172.781H538.82V173.211H539.179V172.781Z" fill="#4B4B4A"/>
<path d="M537.263 173.191C537.104 173.191 536.954 173.211 536.814 173.261C536.675 173.301 536.555 173.361 536.455 173.451L536.605 173.721C536.685 173.661 536.774 173.601 536.884 173.571C536.994 173.531 537.104 173.511 537.223 173.511C537.403 173.511 537.533 173.551 537.612 173.641C537.702 173.721 537.742 173.84 537.742 173.99V174.06H537.802V174.32H537.742V174.6L537.812 174.85C537.812 174.85 537.772 174.89 537.752 174.91V175.2H538.091V174.01C538.091 173.741 538.021 173.541 537.872 173.411C537.722 173.281 537.523 173.211 537.253 173.211L537.263 173.191Z" fill="#4B4B4A"/>
<path d="M537.752 174.58V174.68L537.772 174.76V174.88C537.772 174.88 537.822 174.84 537.832 174.82L537.762 174.57L537.752 174.58Z" fill="#4B4B4A"/>
<path d="M539.488 174.9C539.388 174.9 539.319 174.87 539.259 174.81C539.209 174.75 539.179 174.67 539.179 174.56V173.501H538.82V174.58C538.82 174.78 538.87 174.93 538.979 175.04C539.089 175.15 539.239 175.2 539.438 175.2C539.518 175.2 539.598 175.19 539.668 175.17C539.748 175.15 539.807 175.11 539.867 175.07L539.758 174.81C539.688 174.87 539.588 174.9 539.478 174.9H539.488Z" fill="#4B4B4A"/>
<path d="M538.82 173.211H538.48V173.501H538.82V173.211Z" fill="#4B4B4A"/>
<path d="M545.395 173.551C545.395 173.551 545.445 173.581 545.455 173.611C545.534 173.75 545.584 173.93 545.584 174.14C545.584 174.35 545.544 174.53 545.455 174.67C545.435 174.7 545.395 174.72 545.375 174.75V174.95C545.375 175.17 545.325 175.34 545.215 175.45C545.105 175.56 544.936 175.61 544.706 175.61C544.557 175.61 544.417 175.59 544.287 175.54C544.158 175.5 544.038 175.43 543.948 175.35L543.778 175.62C543.888 175.72 544.028 175.79 544.187 175.84C544.357 175.89 544.537 175.92 544.716 175.92C545.045 175.92 545.305 175.84 545.474 175.68C545.644 175.52 545.734 175.26 545.734 174.91V173.211H545.395V173.551Z" fill="#4B4B4A"/>
<path d="M540.656 173.211H540.296V175.18H540.656V173.211Z" fill="#4B4B4A"/>
<path d="M542.801 173.291C542.681 173.231 542.541 173.201 542.382 173.201C542.202 173.201 542.052 173.231 541.913 173.311C541.803 173.371 541.733 173.461 541.673 173.551V173.751L541.613 173.611C541.613 173.611 541.653 173.581 541.673 173.551V173.221H541.334V175.19H541.693V174.18C541.693 174.04 541.723 173.92 541.763 173.82C541.813 173.721 541.893 173.651 541.982 173.601C542.072 173.551 542.182 173.531 542.312 173.531C542.481 173.531 542.611 173.581 542.701 173.671C542.801 173.77 542.841 173.91 542.841 174.1V175.19H543.2V174.06C543.2 173.87 543.17 173.711 543.1 173.581C543.03 173.451 542.93 173.361 542.811 173.301L542.801 173.291Z" fill="#4B4B4A"/>
<path d="M537.752 174.58C537.712 174.69 537.642 174.78 537.543 174.83C537.443 174.89 537.333 174.92 537.193 174.92C537.054 174.92 536.954 174.89 536.874 174.83C536.794 174.77 536.754 174.69 536.754 174.6C536.754 174.52 536.784 174.44 536.844 174.38C536.904 174.32 537.024 174.29 537.203 174.29H537.742V174.03H537.183C536.984 174.03 536.834 174.06 536.714 174.11C536.605 174.16 536.515 174.23 536.465 174.32C536.415 174.41 536.395 174.5 536.395 174.61C536.395 174.72 536.425 174.82 536.485 174.91C536.545 175 536.625 175.07 536.734 175.11C536.844 175.16 536.974 175.18 537.114 175.18C537.293 175.18 537.443 175.15 537.563 175.08C537.652 175.03 537.702 174.95 537.752 174.86V174.74L537.732 174.66V174.56L537.752 174.58Z" fill="#4B4B4A"/>
<path d="M545.395 173.551C545.325 173.451 545.235 173.351 545.125 173.301C544.986 173.231 544.836 173.201 544.666 173.201C544.477 173.201 544.307 173.241 544.158 173.321C544.008 173.401 543.888 173.511 543.798 173.651C543.709 173.79 543.669 173.96 543.669 174.15C543.669 174.34 543.709 174.5 543.798 174.65C543.888 174.79 544.008 174.91 544.158 174.99C544.307 175.07 544.477 175.11 544.666 175.11C544.836 175.11 544.986 175.08 545.125 175.01C545.225 174.96 545.305 174.86 545.375 174.77V174.55L545.415 174.16L545.395 173.77V173.551ZM545.295 174.48C545.235 174.58 545.165 174.65 545.055 174.71C544.956 174.76 544.836 174.79 544.706 174.79C544.577 174.79 544.457 174.76 544.357 174.71C544.257 174.65 544.177 174.58 544.118 174.48C544.058 174.38 544.028 174.27 544.028 174.15C544.028 174.03 544.058 173.91 544.118 173.82C544.177 173.721 544.257 173.651 544.357 173.601C544.457 173.551 544.577 173.521 544.706 173.521C544.836 173.521 544.956 173.551 545.055 173.601C545.155 173.651 545.235 173.731 545.295 173.82C545.355 173.91 545.385 174.03 545.385 174.15C545.385 174.27 545.355 174.39 545.295 174.48Z" fill="#4B4B4A"/>
<path d="M540.476 172.371C540.406 172.371 540.346 172.391 540.306 172.441C540.266 172.481 540.236 172.541 540.236 172.611C540.236 172.681 540.256 172.731 540.306 172.771C540.356 172.811 540.406 172.841 540.476 172.841C540.546 172.841 540.606 172.821 540.646 172.781C540.685 172.731 540.715 172.671 540.715 172.611C540.715 172.551 540.695 172.491 540.646 172.451C540.596 172.411 540.546 172.381 540.476 172.381V172.371Z" fill="#4B4B4A"/>
<path d="M541.673 173.741V173.541C541.673 173.541 541.633 173.571 541.613 173.601L541.673 173.741Z" fill="#4B4B4A"/>
<path d="M535.527 172.691C535.368 172.621 535.178 172.581 534.949 172.581H533.941V175.17H534.31V174.38H534.14L534.29 174.23L534.14 174.07H534.31V172.901H534.14L534.31 172.711V172.901H534.939C535.178 172.901 535.358 172.951 535.477 173.051C535.597 173.151 535.667 173.301 535.667 173.481C535.667 173.661 535.607 173.81 535.477 173.91C535.358 174.01 535.178 174.06 534.939 174.06H534.31V174.37H534.949C535.008 174.37 535.048 174.35 535.098 174.34L535.008 174.22H535.407L535.447 174.28C535.447 174.28 535.507 174.28 535.527 174.27C535.687 174.2 535.817 174.1 535.896 173.96C535.986 173.82 536.026 173.661 536.026 173.471C536.026 173.281 535.986 173.121 535.896 172.981C535.807 172.851 535.687 172.741 535.527 172.671V172.691Z" fill="#4B4B4A"/>
<path d="M530.479 173.211L531.347 175.17L531.407 175.04L531.447 174.99L531.536 174.78L530.848 173.211H530.479Z" fill="#4B4B4A"/>
<path d="M530.04 174.9C529.94 174.9 529.86 174.87 529.81 174.81C529.76 174.75 529.73 174.67 529.73 174.56V173.501H529.371V174.58C529.371 174.78 529.421 174.93 529.531 175.04C529.641 175.15 529.79 175.2 529.99 175.2C530.07 175.2 530.149 175.19 530.219 175.17C530.299 175.15 530.359 175.11 530.419 175.07L530.309 174.81C530.239 174.87 530.139 174.9 530.03 174.9H530.04Z" fill="#4B4B4A"/>
<path d="M531.447 174.99L531.407 175.04L531.347 175.17L531.377 175.24L531.616 174.96L531.536 174.78L531.447 174.99Z" fill="#4B4B4A"/>
<path d="M537.812 174.04H537.752V174.3H537.812V174.04Z" fill="#4B4B4A"/>
<path d="M531.536 174.78L531.616 174.96L531.377 175.24L531.347 175.17L531.287 175.31C531.237 175.42 531.187 175.5 531.127 175.55C531.067 175.59 530.998 175.62 530.908 175.62C530.838 175.62 530.778 175.61 530.718 175.58C530.658 175.56 530.608 175.52 530.559 175.47L530.409 175.74C530.469 175.8 530.549 175.84 530.638 175.87C530.728 175.9 530.818 175.92 530.908 175.92C531.008 175.92 531.097 175.9 531.187 175.87C531.267 175.84 531.347 175.78 531.417 175.7C531.486 175.62 531.556 175.51 531.606 175.37L532.554 173.211H532.205L531.526 174.78H531.536Z" fill="#4B4B4A"/>
<path d="M529.74 172.781H529.381V173.211H529.74V172.781Z" fill="#4B4B4A"/>
<path d="M530.299 173.211H529.74V173.501H530.299V173.211Z" fill="#4B4B4A"/>
<path d="M529.74 173.211H529.381V173.501H529.74V173.211Z" fill="#4B4B4A"/>
<path d="M535.008 174.24L535.098 174.36C535.228 174.35 535.348 174.33 535.447 174.3L535.407 174.24H535.008Z" fill="#4B4B4A"/>
<path d="M535.098 174.36L535.667 175.18H536.066L535.437 174.3C535.338 174.34 535.218 174.35 535.088 174.36H535.098Z" fill="#4B4B4A"/>
<path d="M534.3 172.901V172.721L534.14 172.901H534.3Z" fill="#4B4B4A"/>
<path d="M529.381 173.211H529.042V173.501H529.381V173.211Z" fill="#4B4B4A"/>
<path d="M534.14 174.39H534.3V174.25L534.29 174.23L534.14 174.39Z" fill="#4B4B4A"/>
<path d="M534.29 174.23L534.3 174.21V174.07H534.14L534.29 174.23Z" fill="#4B4B4A"/>
<path d="M534.3 174.25V174.21L534.29 174.23L534.3 174.25Z" fill="#4B4B4A"/>
<path d="M506.493 160.716C504.738 160.716 503.52 162.035 503.52 163.814C503.52 165.594 504.837 166.913 506.643 166.913C507.711 166.913 508.399 166.583 508.808 166.254C508.898 166.184 508.938 166.044 508.868 165.944L508.549 165.394C508.499 165.254 508.389 165.254 508.279 165.344C507.85 165.674 507.342 165.844 506.803 165.844C505.795 165.864 504.907 165.174 504.777 164.194H509.068C509.197 164.194 509.267 164.104 509.287 163.974V163.774C509.287 161.995 508.17 160.726 506.513 160.726L506.493 160.716ZM508.08 163.275H504.777C504.957 162.355 505.625 161.775 506.533 161.775C507.362 161.775 508 162.385 508.09 163.265V163.285L508.08 163.275Z" fill="#4B4B4A"/>
<path d="M543.629 160.816H542.781C542.651 160.816 542.581 160.906 542.581 161.036L542.561 166.573C542.561 166.733 542.631 166.793 542.781 166.793H543.629C543.758 166.793 543.828 166.703 543.828 166.573V161.036C543.828 160.896 543.758 160.816 543.629 160.816Z" fill="#4B4B4A"/>
<path d="M543.629 158.397H542.781C542.651 158.397 542.581 158.487 542.581 158.617L542.561 159.516C542.561 159.656 542.631 159.726 542.781 159.736H543.629C543.758 159.736 543.828 159.646 543.828 159.516V158.617C543.828 158.477 543.758 158.397 543.629 158.397Z" fill="#4B4B4A"/>
<path d="M547.62 163.265C546.642 163.005 546.283 162.855 546.283 162.465C546.283 162.015 546.662 161.825 547.22 161.825C547.779 161.825 548.318 161.985 548.787 162.255C548.807 162.275 548.827 162.285 548.847 162.285C548.937 162.315 549.046 162.265 549.076 162.185L549.386 161.575C549.386 161.575 549.406 161.555 549.406 161.545C549.465 161.445 549.425 161.315 549.316 161.265C548.687 160.906 547.979 160.716 547.26 160.726C545.894 160.726 544.986 161.435 544.986 162.495C544.986 163.555 545.903 164.014 547.041 164.294C547.959 164.534 548.268 164.744 548.268 165.154C548.268 165.604 547.869 165.844 547.24 165.844C546.612 165.844 545.993 165.654 545.474 165.304C545.455 165.284 545.435 165.274 545.415 165.274C545.325 165.244 545.215 165.294 545.185 165.374L544.846 165.984C544.776 166.104 544.786 166.204 544.916 166.273C545.604 166.683 546.382 166.893 547.191 166.943C548.667 166.943 549.575 166.214 549.575 165.104C549.575 163.994 548.847 163.565 547.63 163.235L547.62 163.265Z" fill="#4B4B4A"/>
<path d="M513.278 161.905C513.707 161.885 514.106 162.015 514.465 162.215C514.485 162.235 514.505 162.245 514.525 162.245C514.615 162.275 514.725 162.225 514.755 162.145L515.074 161.555C515.144 161.455 515.114 161.295 515.004 161.226C514.445 160.866 513.797 160.686 513.128 160.706C511.362 160.706 509.986 162.055 509.986 163.814C509.986 165.564 511.283 166.913 513.128 166.913C513.797 166.933 514.445 166.753 514.984 166.413C515.094 166.343 515.124 166.224 515.054 166.124L514.715 165.504C514.665 165.404 514.575 165.364 514.445 165.454C514.086 165.664 513.647 165.764 513.218 165.744C512.081 165.744 511.273 164.964 511.273 163.844C511.273 162.725 512.091 161.905 513.278 161.905Z" fill="#4B4B4A"/>
<path d="M518.636 160.716C516.94 160.716 515.553 162.045 515.553 163.834C515.553 165.604 516.96 166.933 518.636 166.933C520.312 166.933 521.699 165.614 521.699 163.834C521.699 162.055 520.332 160.716 518.636 160.716ZM518.616 165.724C517.628 165.724 516.81 164.914 516.81 163.824C516.81 162.735 517.618 161.885 518.616 161.885C519.614 161.885 520.422 162.735 520.422 163.824C520.422 164.914 519.614 165.724 518.616 165.724Z" fill="#4B4B4A"/>
<path d="M533.961 160.836H533.222C533.113 160.836 533.023 160.936 533.023 161.046L532.983 161.635C532.474 161.026 531.716 160.706 530.928 160.716C529.361 160.716 528.134 162.025 528.134 163.814C528.134 165.604 529.341 166.913 530.928 166.913C531.776 166.933 532.564 166.533 533.033 165.854L533.073 166.593V166.613C533.073 166.713 533.163 166.803 533.272 166.803H533.961C534.11 166.803 534.18 166.713 534.18 166.583V161.046C534.18 160.906 534.09 160.836 533.961 160.836ZM531.177 165.734C530.189 165.734 529.391 164.924 529.391 163.814C529.391 162.705 530.189 161.895 531.177 161.895C532.265 161.895 532.963 162.705 532.983 163.814C532.983 164.924 532.245 165.734 531.177 165.734Z" fill="#4B4B4A"/>
<path d="M540.995 158.417H540.147C540.037 158.437 539.947 158.537 539.967 158.637V161.695C539.498 161.086 538.74 160.726 537.942 160.746C536.355 160.746 535.168 162.065 535.168 163.844C535.168 165.624 536.395 166.943 537.982 166.943C538.83 166.963 539.618 166.563 540.107 165.884L540.147 166.613V166.643C540.147 166.743 540.256 166.813 540.366 166.813H541.035C541.144 166.793 541.234 166.693 541.214 166.593V158.617C541.214 158.617 541.214 158.587 541.214 158.607C541.214 158.507 541.104 158.417 540.995 158.417ZM538.211 165.734C537.223 165.734 536.425 164.924 536.425 163.814C536.425 162.705 537.223 161.895 538.211 161.895C539.299 161.895 540.017 162.705 540.017 163.814C540.017 164.924 539.279 165.734 538.211 165.734Z" fill="#4B4B4A"/>
<path d="M522.048 160.836C521.898 160.836 521.828 160.936 521.898 161.096L522.387 162.185C522.587 162.685 523.086 163.015 523.654 163.035H524.073L523.225 160.996C523.185 160.896 523.096 160.826 522.996 160.836H522.048Z" fill="#3DB54A"/>
<path d="M527.745 160.846H526.857C526.747 160.846 526.637 160.916 526.608 161.016L524.951 165.164L524.732 164.644C524.532 164.144 524.043 163.814 523.485 163.794H523.076L524.343 166.683C524.383 166.783 524.472 166.853 524.572 166.843H525.221C525.33 166.863 525.44 166.793 525.45 166.683L527.885 161.106C527.954 160.956 527.885 160.836 527.735 160.836L527.745 160.846Z" fill="#4B4B4A"/>
<path d="M551.591 149.35C551.521 149.19 551.521 149.01 551.591 148.85L553.556 144.712C553.736 144.332 553.456 143.882 553.037 143.882H501.894C501.674 143.882 501.475 144.002 501.375 144.202L496.646 153.469C496.446 153.848 496.726 154.308 497.165 154.308H553.037C553.466 154.308 553.746 153.868 553.556 153.479L551.591 149.34V149.35Z" fill="url(#paint2_linear_25_4)"/>
<path d="M509.147 149.89L509.796 150.84H510.644L509.886 149.75C509.676 149.84 509.427 149.89 509.137 149.89H509.147Z" fill="#4B4B4A"/>
<path d="M517.648 149.5L517.957 149.88H517.648V149.5L515.952 147.431H515.303V150.84H516.082V148.77L515.762 148.391H516.082V148.77L517.778 150.84H518.426V147.431H517.648V149.5Z" fill="#4B4B4A"/>
<path d="M516.082 148.77V148.391H515.762L516.082 148.77Z" fill="#4B4B4A"/>
<path d="M508.948 149.6L509.147 149.89C509.427 149.89 509.686 149.84 509.896 149.75L509.796 149.61H508.958L508.948 149.6Z" fill="#4B4B4A"/>
<path d="M517.648 149.88H517.957L517.648 149.5V149.88Z" fill="#4B4B4A"/>
<path d="M544.686 148.86C544.477 148.76 544.207 148.721 543.878 148.721H543.599L543.569 149.08L543.16 148.721H543.599L543.659 148.071H543.28L543.689 147.711L543.659 148.071H545.075V147.441H543L542.821 149.36H543.689C543.898 149.36 544.058 149.38 544.168 149.41C544.287 149.44 544.367 149.5 544.407 149.57C544.447 149.64 544.477 149.72 544.477 149.8C544.477 149.94 544.417 150.05 544.307 150.13C544.197 150.21 544.038 150.25 543.838 150.25C543.659 150.25 543.489 150.22 543.319 150.17C543.15 150.11 543 150.04 542.87 149.95L542.561 150.55C542.721 150.67 542.92 150.76 543.15 150.82C543.379 150.88 543.619 150.91 543.848 150.91C544.167 150.91 544.437 150.87 544.646 150.76C544.856 150.65 545.016 150.51 545.115 150.34C545.215 150.17 545.265 149.98 545.265 149.78C545.265 149.58 545.215 149.4 545.125 149.24C545.035 149.08 544.886 148.95 544.676 148.86H544.686Z" fill="#4B4B4A"/>
<path d="M509.896 147.581C509.676 147.481 509.417 147.431 509.108 147.431H507.641V150.84H508.429V149.89H508.08L508.389 149.58L508.08 149.25H508.429V148.061H508.08L508.429 147.681V148.061H509.068C509.307 148.061 509.487 148.111 509.606 148.221C509.726 148.321 509.786 148.471 509.786 148.661C509.786 148.85 509.726 148.99 509.606 149.1C509.487 149.2 509.307 149.26 509.068 149.26H508.429V149.89H509.118C509.118 149.89 509.147 149.89 509.157 149.89L508.958 149.6H509.796L509.896 149.74C510.115 149.64 510.285 149.5 510.405 149.32C510.524 149.13 510.584 148.92 510.584 148.661C510.584 148.401 510.524 148.181 510.405 148.001C510.285 147.811 510.115 147.671 509.896 147.581Z" fill="#4B4B4A"/>
<path d="M514.176 147.871C514.016 147.711 513.817 147.591 513.587 147.501C513.368 147.411 513.118 147.371 512.849 147.371C512.58 147.371 512.34 147.411 512.111 147.501C511.881 147.591 511.692 147.711 511.522 147.871C511.352 148.031 511.223 148.221 511.133 148.431C511.043 148.641 510.993 148.88 510.993 149.13C510.993 149.38 511.043 149.62 511.133 149.83C511.233 150.04 511.352 150.23 511.522 150.39C511.692 150.55 511.891 150.67 512.111 150.76C512.34 150.85 512.59 150.89 512.859 150.89C513.128 150.89 513.368 150.85 513.587 150.76C513.817 150.67 514.006 150.55 514.176 150.4C514.346 150.24 514.475 150.05 514.565 149.84C514.665 149.62 514.705 149.39 514.705 149.14C514.705 148.89 514.655 148.651 514.565 148.441C514.465 148.221 514.346 148.041 514.176 147.881V147.871ZM513.837 149.57C513.787 149.7 513.707 149.82 513.617 149.92C513.517 150.02 513.408 150.09 513.278 150.14C513.148 150.19 513.009 150.22 512.859 150.22C512.709 150.22 512.57 150.19 512.44 150.14C512.31 150.09 512.2 150.01 512.101 149.92C512.001 149.82 511.931 149.71 511.881 149.57C511.831 149.43 511.801 149.29 511.801 149.13C511.801 148.97 511.831 148.82 511.881 148.691C511.941 148.561 512.011 148.441 512.111 148.341C512.21 148.241 512.32 148.171 512.45 148.121C512.58 148.071 512.719 148.041 512.869 148.041C513.019 148.041 513.158 148.071 513.288 148.121C513.418 148.171 513.527 148.251 513.627 148.341C513.727 148.441 513.797 148.551 513.847 148.691C513.907 148.82 513.927 148.97 513.927 149.13C513.927 149.29 513.897 149.44 513.847 149.57H513.837Z" fill="#4B4B4A"/>
<path d="M549.076 149.12C548.947 149.04 548.797 149 548.637 149C548.478 149 548.328 149.04 548.198 149.12C548.069 149.2 547.979 149.31 547.899 149.45C547.829 149.59 547.789 149.76 547.789 149.95C547.789 150.14 547.819 150.31 547.899 150.45C547.969 150.59 548.069 150.7 548.198 150.78C548.328 150.85 548.478 150.89 548.637 150.89C548.797 150.89 548.957 150.85 549.076 150.78C549.206 150.7 549.296 150.59 549.376 150.45C549.445 150.31 549.485 150.14 549.485 149.95C549.485 149.76 549.455 149.59 549.376 149.45C549.306 149.31 549.206 149.2 549.076 149.12ZM548.897 150.35C548.837 150.44 548.747 150.48 548.637 150.48C548.528 150.48 548.448 150.44 548.378 150.35C548.318 150.26 548.278 150.12 548.278 149.94C548.278 149.76 548.308 149.62 548.378 149.54C548.448 149.45 548.528 149.4 548.637 149.4C548.747 149.4 548.827 149.45 548.897 149.54C548.957 149.63 548.996 149.76 548.996 149.94C548.996 150.12 548.967 150.26 548.897 150.35Z" fill="#4B4B4A"/>
<path d="M519.813 150.48L520.053 150.2H519.713L519.813 150.48Z" fill="#4B4B4A"/>
<path d="M504.708 148.83H504.648V149.4H504.708V148.83Z" fill="#4B4B4A"/>
<path d="M505.855 149.19C506.055 149.19 506.234 149.16 506.384 149.08C506.384 149.08 506.384 149.08 506.394 149.08C506.254 149.04 506.114 149 505.955 149L505.865 149.2L505.855 149.19Z" fill="#4B4B4A"/>
<path d="M506.513 149.1C506.513 149.1 506.424 149.09 506.384 149.08C506.384 149.08 506.384 149.08 506.374 149.08C506.224 149.15 506.045 149.19 505.845 149.19L505.935 148.99C506.104 148.99 506.244 149.03 506.374 149.07C506.513 149 506.633 148.9 506.723 148.78C506.813 148.651 506.853 148.491 506.853 148.311C506.853 148.041 506.743 147.831 506.523 147.671C506.304 147.511 505.985 147.431 505.566 147.431H503.909V150.84H505.665C506.114 150.84 506.454 150.76 506.683 150.6C506.913 150.44 507.032 150.21 507.032 149.91C507.032 149.71 506.982 149.55 506.893 149.41C506.803 149.28 506.673 149.17 506.513 149.1ZM506.084 150.15C505.985 150.21 505.825 150.25 505.625 150.25H504.708V149.41H504.648V148.84H504.708V148.041H505.486C505.675 148.041 505.825 148.071 505.925 148.141C506.025 148.201 506.084 148.301 506.084 148.441C506.084 148.581 506.035 148.681 505.925 148.75C505.825 148.81 505.675 148.85 505.486 148.85H504.708V149.42H505.625C505.835 149.42 505.985 149.45 506.084 149.53C506.194 149.6 506.244 149.7 506.244 149.85C506.244 150 506.194 150.11 506.084 150.17V150.15Z" fill="#4B4B4A"/>
<path d="M508.419 148.071V147.701L508.07 148.071H508.419Z" fill="#4B4B4A"/>
<path d="M508.419 149.63V149.55L508.379 149.59L508.419 149.63Z" fill="#4B4B4A"/>
<path d="M508.07 149.89H508.419V149.63L508.379 149.59L508.07 149.89Z" fill="#4B4B4A"/>
<path d="M508.379 149.59L508.419 149.55V149.63V149.26H508.07L508.379 149.59Z" fill="#4B4B4A"/>
<path d="M546.033 150.84H546.612L548.937 147.431H548.358L546.033 150.84Z" fill="#4B4B4A"/>
<path d="M537.553 148.401C537.363 148.291 537.134 148.241 536.884 148.241C536.665 148.241 536.465 148.291 536.285 148.391C536.156 148.461 536.056 148.571 535.966 148.691V148.96L535.936 149.56L535.986 150.16V150.44C536.076 150.56 536.176 150.66 536.295 150.73C536.475 150.83 536.675 150.88 536.884 150.88C537.134 150.88 537.363 150.82 537.553 150.71C537.742 150.6 537.902 150.44 538.012 150.25C538.131 150.05 538.181 149.82 538.181 149.56C538.181 149.3 538.121 149.07 538.012 148.87C537.902 148.671 537.742 148.521 537.553 148.411V148.401ZM537.592 150.03C537.523 150.16 537.413 150.27 537.283 150.35C537.153 150.42 537.004 150.46 536.844 150.46C536.685 150.46 536.535 150.42 536.405 150.35C536.275 150.28 536.176 150.17 536.096 150.03C536.026 149.89 535.986 149.73 535.986 149.55C535.986 149.37 536.026 149.2 536.096 149.07C536.176 148.94 536.275 148.83 536.405 148.75C536.535 148.681 536.685 148.641 536.844 148.641C537.004 148.641 537.153 148.681 537.283 148.75C537.413 148.82 537.523 148.93 537.592 149.07C537.672 149.2 537.712 149.36 537.712 149.55C537.712 149.74 537.672 149.89 537.592 150.03Z" fill="#4B4B4A"/>
<path d="M540.895 148.79L541.294 149.02L541.454 148.83C541.344 148.81 541.244 148.79 541.124 148.79H540.895Z" fill="#4B4B4A"/>
<path d="M535.956 148.96V148.691C535.956 148.691 535.886 148.77 535.856 148.83C535.757 149.02 535.707 149.27 535.707 149.56C535.707 149.85 535.757 150.1 535.866 150.29C535.896 150.35 535.936 150.39 535.976 150.44V150.16L535.926 149.56L535.956 148.96Z" fill="#4B4B4A"/>
<path d="M535.707 149.55C535.707 149.26 535.757 149.01 535.856 148.82C535.886 148.77 535.916 148.731 535.956 148.681V148.261H535.507V151.779H535.976V150.43C535.976 150.43 535.896 150.33 535.866 150.28C535.767 150.09 535.707 149.84 535.707 149.55Z" fill="#4B4B4A"/>
<path d="M543.559 149.08L543.589 148.721H543.16L543.559 149.08Z" fill="#4B4B4A"/>
<path d="M541.304 148.071H541.633L541.553 147.791L541.304 148.071Z" fill="#4B4B4A"/>
<path d="M543.649 148.071L543.679 147.711L543.28 148.071H543.649Z" fill="#4B4B4A"/>
<path d="M541.454 148.84L541.294 149.03L540.895 148.8H541.124C541.254 148.8 541.354 148.83 541.454 148.84L542.232 147.951V147.441H539.847V148.071H541.294L541.543 147.791L541.633 148.071H541.294L540.596 148.86V149.38H540.955C541.174 149.38 541.344 149.42 541.444 149.49C541.543 149.56 541.593 149.66 541.593 149.8C541.593 149.94 541.534 150.05 541.424 150.12C541.314 150.2 541.154 150.24 540.955 150.24C540.775 150.24 540.606 150.21 540.436 150.16C540.266 150.1 540.117 150.03 539.987 149.94L539.678 150.54C539.837 150.66 540.037 150.75 540.266 150.81C540.496 150.87 540.735 150.9 540.965 150.9C541.284 150.9 541.553 150.85 541.763 150.75C541.972 150.65 542.122 150.51 542.222 150.35C542.322 150.18 542.372 150 542.372 149.81C542.372 149.52 542.262 149.27 542.052 149.08C541.903 148.95 541.683 148.88 541.434 148.84H541.454Z" fill="#4B4B4A"/>
<path d="M519.813 150.48L519.713 150.2H520.053L521.908 147.941V147.431H519.045V148.071H520.871L521.11 147.791L521.21 148.071H520.871L519.015 150.33V150.84H521.978V150.2H520.053L519.813 150.48Z" fill="#4B4B4A"/>
<path d="M524.842 148.8H523.265V149.41H524.842V148.8Z" fill="#4B4B4A"/>
<path d="M523.265 149.42H523.215V148.8H523.265V148.061H525.061V147.431H522.487V150.84H525.121V150.21H523.265V149.42Z" fill="#4B4B4A"/>
<path d="M523.275 148.8H523.215V149.41H523.275V148.8Z" fill="#4B4B4A"/>
<path d="M520.871 148.071H521.21L521.11 147.791L520.871 148.071Z" fill="#4B4B4A"/>
<path d="M546.772 147.511C546.642 147.431 546.502 147.391 546.333 147.391C546.163 147.391 546.023 147.431 545.894 147.511C545.764 147.591 545.664 147.701 545.594 147.841C545.524 147.981 545.484 148.151 545.484 148.341C545.484 148.531 545.514 148.701 545.594 148.84C545.664 148.98 545.764 149.09 545.894 149.17C546.023 149.24 546.163 149.28 546.333 149.28C546.502 149.28 546.642 149.24 546.772 149.17C546.901 149.09 546.991 148.98 547.071 148.84C547.141 148.701 547.181 148.531 547.181 148.341C547.181 148.151 547.151 147.981 547.071 147.841C547.001 147.701 546.901 147.591 546.772 147.511ZM546.592 148.741C546.532 148.83 546.442 148.87 546.333 148.87C546.223 148.87 546.143 148.82 546.073 148.731C546.013 148.641 545.973 148.511 545.973 148.331C545.973 148.151 546.003 148.011 546.073 147.931C546.143 147.841 546.223 147.791 546.333 147.791C546.442 147.791 546.522 147.841 546.592 147.931C546.652 148.021 546.692 148.151 546.692 148.331C546.692 148.511 546.662 148.651 546.592 148.741Z" fill="#4B4B4A"/>
<path d="M534.22 148.401C534.021 148.281 533.791 148.231 533.532 148.231C533.272 148.231 533.043 148.291 532.843 148.401C532.644 148.511 532.484 148.671 532.364 148.86C532.245 149.06 532.185 149.29 532.185 149.54C532.185 149.79 532.245 150.02 532.364 150.22C532.484 150.42 532.644 150.57 532.843 150.69C533.043 150.81 533.272 150.86 533.532 150.86C533.791 150.86 534.011 150.8 534.22 150.69C534.42 150.58 534.579 150.42 534.699 150.22C534.819 150.02 534.879 149.8 534.879 149.54C534.879 149.28 534.819 149.05 534.699 148.86C534.589 148.661 534.43 148.511 534.22 148.401ZM534.28 150.03C534.21 150.16 534.1 150.27 533.971 150.35C533.841 150.42 533.691 150.46 533.532 150.46C533.372 150.46 533.222 150.42 533.093 150.35C532.963 150.28 532.863 150.17 532.783 150.03C532.704 149.89 532.664 149.73 532.664 149.55C532.664 149.37 532.704 149.2 532.783 149.07C532.863 148.94 532.963 148.83 533.093 148.75C533.222 148.681 533.372 148.641 533.532 148.641C533.691 148.641 533.841 148.681 533.971 148.75C534.1 148.82 534.21 148.93 534.28 149.07C534.35 149.2 534.39 149.36 534.39 149.55C534.39 149.74 534.35 149.89 534.28 150.03Z" fill="#4B4B4A"/>
<path d="M529.421 147.851H530.588V150.84H531.067V147.851H532.235V147.431H529.421V147.851Z" fill="#4B4B4A"/>
<path d="M527.585 147.221H527.156V151.779H527.585V147.221Z" fill="#4B4B4A"/>
<path d="M523.751 183.697H522.581L525.965 174.464H527.117L530.501 183.697H529.331L526.577 175.925H526.505L523.751 183.697ZM524.183 180.09H528.899V181.082H524.183V180.09Z" fill="#4B4B4A"/>
<path d="M531.936 183.697V174.464H535.05C535.773 174.464 536.364 174.595 536.822 174.856C537.284 175.115 537.626 175.465 537.848 175.907C538.07 176.348 538.181 176.841 538.181 177.385C538.181 177.929 538.07 178.424 537.848 178.868C537.629 179.313 537.29 179.668 536.831 179.932C536.373 180.194 535.785 180.325 535.068 180.325H532.836V179.333H535.032C535.527 179.333 535.924 179.247 536.224 179.076C536.524 178.905 536.741 178.673 536.876 178.382C537.014 178.087 537.083 177.755 537.083 177.385C537.083 177.016 537.014 176.685 536.876 176.394C536.741 176.102 536.522 175.874 536.22 175.708C535.917 175.54 535.515 175.456 535.014 175.456H533.052V183.697H531.936Z" fill="#4B4B4A"/>
<path d="M539.979 183.697V174.464H543.093C543.812 174.464 544.403 174.587 544.865 174.834C545.327 175.077 545.669 175.412 545.891 175.839C546.113 176.266 546.224 176.751 546.224 177.295C546.224 177.839 546.113 178.321 545.891 178.742C545.669 179.163 545.329 179.494 544.87 179.734C544.411 179.971 543.825 180.09 543.111 180.09H540.591V179.08H543.075C543.566 179.08 543.962 179.008 544.262 178.864C544.565 178.72 544.784 178.515 544.919 178.251C545.057 177.983 545.126 177.665 545.126 177.295C545.126 176.926 545.057 176.602 544.919 176.326C544.781 176.049 544.561 175.836 544.258 175.686C543.955 175.533 543.555 175.456 543.057 175.456H541.095V183.697H539.979ZM544.316 179.549L546.584 183.697H545.288L543.057 179.549H544.316Z" fill="#4B4B4A"/>
<path d="M551.485 183.697V182.885L554.527 179.549C554.884 179.158 555.178 178.819 555.409 178.53C555.64 178.239 555.811 177.965 555.922 177.71C556.036 177.451 556.093 177.181 556.093 176.898C556.093 176.574 556.015 176.293 555.859 176.055C555.706 175.818 555.496 175.635 555.229 175.505C554.962 175.376 554.662 175.312 554.329 175.312C553.975 175.312 553.666 175.385 553.402 175.533C553.141 175.677 552.939 175.88 552.795 176.141C552.654 176.403 552.583 176.709 552.583 177.061H551.521C551.521 176.52 551.646 176.045 551.895 175.636C552.144 175.227 552.483 174.909 552.912 174.681C553.344 174.452 553.828 174.338 554.365 174.338C554.905 174.338 555.383 174.452 555.8 174.681C556.217 174.909 556.544 175.217 556.781 175.605C557.018 175.992 557.137 176.424 557.137 176.898C557.137 177.238 557.075 177.57 556.952 177.895C556.832 178.216 556.622 178.575 556.322 178.972C556.025 179.366 555.613 179.847 555.085 180.415L553.015 182.633V182.705H557.299V183.697H551.485Z" fill="#4B4B4A"/>
<path d="M562.163 183.823C561.485 183.823 560.907 183.638 560.43 183.268C559.953 182.896 559.589 182.356 559.337 181.65C559.085 180.941 558.959 180.084 558.959 179.08C558.959 178.083 559.085 177.231 559.337 176.524C559.592 175.815 559.958 175.274 560.435 174.901C560.915 174.526 561.491 174.338 562.163 174.338C562.835 174.338 563.409 174.526 563.886 174.901C564.366 175.274 564.732 175.815 564.984 176.524C565.239 177.231 565.366 178.083 565.366 179.08C565.366 180.084 565.24 180.941 564.988 181.65C564.736 182.356 564.372 182.896 563.895 183.268C563.418 183.638 562.841 183.823 562.163 183.823ZM562.163 182.831C562.835 182.831 563.357 182.506 563.729 181.857C564.101 181.208 564.286 180.282 564.286 179.08C564.286 178.281 564.201 177.6 564.03 177.038C563.862 176.476 563.619 176.048 563.301 175.753C562.986 175.459 562.607 175.312 562.163 175.312C561.497 175.312 560.976 175.641 560.601 176.299C560.226 176.954 560.039 177.881 560.039 179.08C560.039 179.88 560.123 180.559 560.291 181.118C560.459 181.677 560.7 182.102 561.015 182.394C561.333 182.685 561.716 182.831 562.163 182.831Z" fill="#4B4B4A"/>
<path d="M567.076 183.697V182.885L570.118 179.549C570.475 179.158 570.769 178.819 571 178.53C571.231 178.239 571.402 177.965 571.513 177.71C571.627 177.451 571.684 177.181 571.684 176.898C571.684 176.574 571.606 176.293 571.45 176.055C571.297 175.818 571.087 175.635 570.82 175.505C570.553 175.376 570.253 175.312 569.92 175.312C569.566 175.312 569.257 175.385 568.993 175.533C568.732 175.677 568.53 175.88 568.386 176.141C568.245 176.403 568.174 176.709 568.174 177.061H567.112C567.112 176.52 567.237 176.045 567.486 175.636C567.735 175.227 568.074 174.909 568.503 174.681C568.935 174.452 569.419 174.338 569.956 174.338C570.496 174.338 570.974 174.452 571.391 174.681C571.808 174.909 572.135 175.217 572.372 175.605C572.609 175.992 572.728 176.424 572.728 176.898C572.728 177.238 572.666 177.57 572.543 177.895C572.423 178.216 572.213 178.575 571.913 178.972C571.616 179.366 571.204 179.847 570.676 180.415L568.606 182.633V182.705H572.89V183.697H567.076Z" fill="#4B4B4A"/>
<path d="M574.334 181.803V180.884L578.384 174.464H579.049V175.889H578.6L575.54 180.739V180.811H580.993V181.803H574.334ZM578.671 183.697V174.464H579.733V183.697H578.671Z" fill="#4B4B4A"/>
<path d="M447.139 135.186H411.84V170.552H447.139V135.186Z" fill="#E60000"/>
<path d="M411.84 185.846L429.599 195.162L447.139 185.846V170.542H411.84V185.846Z" fill="#002171"/>
<path d="M427.803 182.617C428.013 182.507 428.112 182.347 428.112 182.157C428.112 182.027 428.063 181.907 427.953 181.797C427.833 181.667 427.663 181.597 427.464 181.597C427.344 181.597 427.234 181.617 427.145 181.667C427.045 181.717 426.975 181.777 426.915 181.857C426.865 181.937 426.825 182.037 426.795 182.167L427.175 182.227C427.185 182.137 427.215 182.057 427.264 182.007C427.314 181.957 427.374 181.937 427.444 181.937C427.514 181.937 427.574 181.957 427.614 181.997C427.654 182.037 427.673 182.097 427.673 182.167C427.673 182.257 427.644 182.327 427.584 182.377C427.524 182.427 427.444 182.457 427.324 182.447L427.274 182.787C427.344 182.767 427.414 182.757 427.464 182.757C427.544 182.757 427.614 182.787 427.673 182.847C427.733 182.907 427.753 182.987 427.753 183.097C427.753 183.207 427.723 183.297 427.664 183.367C427.604 183.427 427.534 183.467 427.444 183.467C427.364 183.467 427.294 183.437 427.244 183.387C427.185 183.327 427.155 183.257 427.145 183.147L426.746 183.197C426.766 183.377 426.845 183.527 426.975 183.637C427.105 183.746 427.264 183.806 427.464 183.806C427.673 183.806 427.843 183.737 427.983 183.607C428.122 183.477 428.192 183.307 428.192 183.117C428.192 182.987 428.152 182.877 428.083 182.777C428.013 182.687 427.913 182.627 427.783 182.597L427.803 182.617Z" fill="white"/>
<path d="M426.017 183.037C426.147 182.917 426.237 182.827 426.287 182.767C426.366 182.667 426.416 182.577 426.446 182.487C426.486 182.397 426.506 182.307 426.506 182.207C426.506 182.037 426.446 181.887 426.327 181.777C426.207 181.657 426.037 181.607 425.828 181.607C425.628 181.607 425.469 181.657 425.339 181.757C425.209 181.857 425.129 182.017 425.109 182.247L425.518 182.287C425.518 182.167 425.558 182.077 425.608 182.027C425.658 181.977 425.728 181.947 425.818 181.947C425.908 181.947 425.967 181.977 426.017 182.017C426.067 182.067 426.097 182.137 426.097 182.227C426.097 182.307 426.067 182.397 426.007 182.487C425.967 182.547 425.848 182.667 425.658 182.847C425.429 183.067 425.269 183.237 425.189 183.367C425.109 183.497 425.059 183.637 425.049 183.776H426.506V183.387H425.678C425.678 183.387 425.728 183.317 425.758 183.277C425.798 183.237 425.878 183.157 426.007 183.037H426.017Z" fill="white"/>
<path d="M424.122 181.597C423.912 181.597 423.742 181.667 423.633 181.817C423.493 181.997 423.423 182.287 423.423 182.697C423.423 183.107 423.483 183.407 423.613 183.567C423.742 183.727 423.912 183.806 424.122 183.806C424.331 183.806 424.491 183.737 424.61 183.587C424.75 183.407 424.82 183.107 424.82 182.697C424.82 182.287 424.75 181.987 424.61 181.807C424.491 181.657 424.331 181.577 424.122 181.577V181.597ZM424.351 183.257C424.331 183.337 424.301 183.397 424.261 183.427C424.221 183.457 424.181 183.477 424.132 183.477C424.082 183.477 424.032 183.457 423.992 183.427C423.952 183.397 423.922 183.327 423.892 183.237C423.862 183.147 423.852 182.967 423.852 182.717C423.852 182.467 423.862 182.277 423.902 182.167C423.922 182.087 423.952 182.027 423.992 181.997C424.032 181.967 424.072 181.947 424.132 181.947C424.191 181.947 424.221 181.967 424.261 181.997C424.301 182.027 424.331 182.097 424.361 182.187C424.391 182.287 424.401 182.457 424.401 182.717C424.401 182.977 424.391 183.147 424.361 183.257H424.351Z" fill="white"/>
<path d="M416.738 181.567C416.559 181.567 416.409 181.597 416.27 181.657C416.17 181.697 416.07 181.767 415.99 181.857C415.9 181.947 415.84 182.047 415.791 182.157C415.721 182.307 415.691 182.487 415.691 182.717C415.691 183.067 415.781 183.337 415.97 183.527C416.16 183.727 416.419 183.816 416.738 183.816C417.058 183.816 417.307 183.717 417.497 183.527C417.686 183.327 417.786 183.057 417.786 182.707C417.786 182.357 417.686 182.077 417.497 181.877C417.307 181.677 417.048 181.577 416.728 181.577L416.738 181.567ZM417.167 183.257C417.058 183.387 416.908 183.447 416.738 183.447C416.569 183.447 416.419 183.387 416.309 183.257C416.2 183.127 416.14 182.947 416.14 182.697C416.14 182.447 416.2 182.257 416.299 182.137C416.409 182.017 416.559 181.947 416.738 181.947C416.918 181.947 417.068 182.007 417.167 182.127C417.277 182.247 417.327 182.437 417.327 182.687C417.327 182.937 417.267 183.127 417.157 183.257H417.167Z" fill="white"/>
<path d="M419.133 182.867C419.133 183.097 419.123 183.237 419.103 183.297C419.083 183.357 419.043 183.407 418.983 183.447C418.923 183.487 418.864 183.507 418.794 183.507C418.734 183.507 418.684 183.497 418.634 183.467C418.594 183.437 418.564 183.397 418.554 183.347C418.534 183.297 418.534 183.167 418.534 182.937V182.217H418.125V183.217C418.125 183.367 418.145 183.487 418.175 183.567C418.215 183.647 418.275 183.717 418.355 183.766C418.435 183.816 418.534 183.836 418.634 183.836C418.734 183.836 418.834 183.816 418.933 183.766C419.023 183.717 419.103 183.647 419.163 183.567V183.806H419.552V182.237H419.133V182.897V182.867Z" fill="white"/>
<path d="M422.655 183.037C422.785 182.917 422.874 182.827 422.924 182.767C423.004 182.667 423.054 182.577 423.084 182.487C423.124 182.397 423.144 182.307 423.144 182.207C423.144 182.037 423.084 181.887 422.964 181.777C422.844 181.657 422.675 181.607 422.465 181.607C422.266 181.607 422.106 181.657 421.976 181.757C421.847 181.857 421.767 182.017 421.747 182.247L422.156 182.287C422.156 182.167 422.196 182.077 422.246 182.027C422.296 181.977 422.366 181.947 422.455 181.947C422.545 181.947 422.605 181.977 422.655 182.017C422.705 182.067 422.735 182.137 422.735 182.227C422.735 182.307 422.705 182.397 422.645 182.487C422.605 182.547 422.485 182.667 422.296 182.847C422.066 183.067 421.907 183.237 421.827 183.367C421.747 183.497 421.697 183.637 421.687 183.776H423.144V183.387H422.316C422.316 183.387 422.366 183.317 422.396 183.277C422.435 183.237 422.515 183.157 422.645 183.037H422.655Z" fill="white"/>
<path d="M420.53 183.477C420.53 183.477 420.48 183.477 420.46 183.457C420.44 183.447 420.43 183.427 420.42 183.407C420.42 183.387 420.42 183.307 420.42 183.177V182.547H420.699V182.217H420.42V181.657L420.001 181.897V182.207H419.811V182.537H420.001V183.227C420.001 183.377 420.001 183.467 420.011 183.517C420.021 183.587 420.041 183.637 420.071 183.677C420.101 183.717 420.141 183.747 420.201 183.776C420.26 183.796 420.33 183.816 420.4 183.816C420.52 183.816 420.63 183.796 420.729 183.757L420.689 183.437C420.62 183.467 420.56 183.477 420.52 183.477H420.53Z" fill="white"/>
<path d="M420.769 183.816H421.069L421.617 181.567H421.298L420.769 183.816Z" fill="white"/>
<path d="M438.13 183.037C438.259 182.917 438.349 182.827 438.399 182.767C438.479 182.667 438.529 182.577 438.559 182.487C438.599 182.397 438.618 182.307 438.618 182.207C438.618 182.037 438.559 181.887 438.439 181.777C438.319 181.657 438.15 181.607 437.94 181.607C437.74 181.607 437.581 181.657 437.451 181.757C437.321 181.857 437.242 182.017 437.222 182.247L437.631 182.287C437.631 182.167 437.671 182.077 437.721 182.027C437.77 181.977 437.84 181.947 437.93 181.947C438.02 181.947 438.08 181.977 438.13 182.017C438.179 182.067 438.209 182.137 438.209 182.227C438.209 182.307 438.179 182.397 438.12 182.487C438.08 182.547 437.96 182.667 437.77 182.847C437.541 183.067 437.381 183.237 437.301 183.367C437.222 183.497 437.172 183.637 437.162 183.776H438.618V183.387H437.79C437.79 183.387 437.84 183.317 437.87 183.277C437.91 183.237 437.99 183.157 438.12 183.037H438.13Z" fill="white"/>
<path d="M441.502 183.037C441.632 182.917 441.721 182.827 441.771 182.767C441.851 182.667 441.901 182.577 441.931 182.487C441.971 182.397 441.981 182.307 441.981 182.207C441.981 182.037 441.921 181.887 441.801 181.777C441.681 181.657 441.512 181.607 441.302 181.607C441.103 181.607 440.943 181.657 440.813 181.757C440.684 181.857 440.604 182.017 440.584 182.247L440.993 182.287C440.993 182.167 441.033 182.077 441.083 182.027C441.133 181.977 441.203 181.947 441.292 181.947C441.382 181.947 441.442 181.977 441.492 182.017C441.542 182.067 441.572 182.137 441.572 182.227C441.572 182.307 441.542 182.397 441.482 182.487C441.442 182.547 441.322 182.667 441.133 182.847C440.903 183.067 440.744 183.237 440.664 183.367C440.584 183.497 440.534 183.637 440.524 183.776H441.981V183.387H441.153C441.153 183.387 441.203 183.317 441.233 183.277C441.272 183.237 441.352 183.157 441.482 183.037H441.502Z" fill="white"/>
<path d="M439.606 181.597C439.397 181.597 439.227 181.667 439.117 181.817C438.978 181.997 438.908 182.287 438.908 182.697C438.908 183.107 438.968 183.407 439.097 183.567C439.227 183.727 439.397 183.806 439.606 183.806C439.816 183.806 439.975 183.737 440.095 183.587C440.235 183.407 440.305 183.107 440.305 182.697C440.305 182.287 440.235 181.987 440.095 181.807C439.975 181.657 439.816 181.577 439.606 181.577V181.597ZM439.826 183.257C439.806 183.337 439.776 183.397 439.736 183.427C439.696 183.457 439.656 183.477 439.606 183.477C439.556 183.477 439.506 183.457 439.467 183.427C439.427 183.397 439.397 183.327 439.367 183.237C439.337 183.147 439.327 182.967 439.327 182.717C439.327 182.467 439.337 182.277 439.377 182.167C439.397 182.087 439.427 182.027 439.467 181.997C439.506 181.967 439.546 181.947 439.606 181.947C439.666 181.947 439.696 181.967 439.736 181.997C439.776 182.027 439.806 182.097 439.836 182.187C439.866 182.287 439.876 182.457 439.876 182.717C439.876 182.977 439.866 183.147 439.836 183.257H439.826Z" fill="white"/>
<path d="M443.487 181.597H443.138L442.2 182.977V183.347H443.088V183.786H443.487V183.347H443.757V182.977H443.487V181.597ZM443.088 182.977H442.589L443.088 182.237V182.977Z" fill="white"/>
<path d="M430.178 182.787H429.36V183.207H430.178V182.787Z" fill="white"/>
<path d="M434.618 182.867C434.618 183.097 434.608 183.237 434.588 183.297C434.568 183.357 434.528 183.407 434.468 183.447C434.408 183.487 434.348 183.507 434.278 183.507C434.219 183.507 434.169 183.497 434.119 183.467C434.079 183.437 434.049 183.397 434.039 183.347C434.019 183.297 434.019 183.167 434.019 182.937V182.217H433.61V183.217C433.61 183.367 433.63 183.487 433.67 183.567C433.71 183.647 433.77 183.717 433.849 183.766C433.929 183.816 434.029 183.836 434.129 183.836C434.228 183.836 434.328 183.816 434.428 183.766C434.518 183.717 434.598 183.647 434.658 183.567V183.806H435.047V182.237H434.628V182.897L434.618 182.867Z" fill="white"/>
<path d="M432.213 181.567C432.034 181.567 431.884 181.597 431.744 181.657C431.644 181.697 431.545 181.767 431.465 181.857C431.375 181.947 431.315 182.047 431.265 182.157C431.195 182.307 431.165 182.487 431.165 182.717C431.165 183.067 431.255 183.337 431.445 183.527C431.634 183.727 431.894 183.816 432.213 183.816C432.532 183.816 432.782 183.717 432.971 183.527C433.161 183.327 433.261 183.057 433.261 182.707C433.261 182.357 433.161 182.077 432.971 181.877C432.782 181.677 432.522 181.577 432.203 181.577L432.213 181.567ZM432.652 183.257C432.542 183.387 432.393 183.447 432.223 183.447C432.053 183.447 431.904 183.387 431.794 183.257C431.684 183.127 431.624 182.947 431.624 182.697C431.624 182.447 431.674 182.257 431.784 182.137C431.894 182.017 432.043 181.947 432.223 181.947C432.403 181.947 432.542 182.007 432.652 182.127C432.762 182.247 432.812 182.437 432.812 182.687C432.812 182.937 432.752 183.127 432.642 183.257H432.652Z" fill="white"/>
<path d="M436.004 183.477C436.004 183.477 435.955 183.477 435.935 183.457C435.915 183.447 435.905 183.427 435.895 183.407C435.895 183.387 435.895 183.307 435.895 183.177V182.547H436.174V182.217H435.895V181.657L435.476 181.897V182.207H435.286V182.537H435.476V183.227C435.476 183.377 435.476 183.467 435.486 183.517C435.496 183.587 435.516 183.637 435.546 183.677C435.575 183.717 435.615 183.747 435.675 183.776C435.735 183.796 435.805 183.816 435.875 183.816C435.994 183.816 436.104 183.796 436.204 183.757L436.164 183.437C436.094 183.467 436.034 183.477 435.994 183.477H436.004Z" fill="white"/>
<path d="M436.244 183.816H436.553L437.092 181.567H436.783L436.244 183.816Z" fill="white"/>
<path d="M417.676 141.813H419.552C419.442 142.183 419.233 142.473 418.913 142.683C418.604 142.893 418.215 142.993 417.736 142.993C417.098 142.993 416.579 142.803 416.19 142.423C415.801 142.043 415.611 141.553 415.611 140.974C415.611 140.394 415.801 139.884 416.18 139.504C416.559 139.114 417.048 138.924 417.636 138.924C418.006 138.924 418.335 139.004 418.634 139.164C418.933 139.324 419.153 139.534 419.303 139.784L420.35 139.184C420.081 138.745 419.712 138.395 419.233 138.135C418.754 137.865 418.225 137.735 417.646 137.735C416.718 137.735 415.95 138.055 415.322 138.675C414.693 139.304 414.384 140.074 414.384 140.974C414.384 141.873 414.703 142.633 415.332 143.263C415.96 143.892 416.758 144.202 417.716 144.202C418.614 144.202 419.352 143.922 419.911 143.373C420.48 142.823 420.769 142.103 420.769 141.214V140.734H417.656V141.823L417.676 141.813Z" fill="white"/>
<path d="M422.595 139.544H421.448V143.992H422.595V141.863C422.595 141.433 422.735 141.134 423.004 140.954C423.283 140.774 423.593 140.704 423.942 140.744V139.464C423.643 139.464 423.363 139.534 423.124 139.684C422.874 139.824 422.705 140.044 422.595 140.324V139.544Z" fill="white"/>
<path d="M426.776 139.414C426.087 139.414 425.528 139.634 425.089 140.084C424.65 140.534 424.431 141.094 424.431 141.763C424.431 142.433 424.65 143.003 425.099 143.443C425.548 143.882 426.137 144.112 426.865 144.112C427.713 144.112 428.362 143.792 428.801 143.163L427.883 142.633C427.654 142.933 427.324 143.083 426.885 143.083C426.207 143.083 425.788 142.803 425.638 142.243H428.99C429.02 142.073 429.04 141.923 429.04 141.773C429.04 141.114 428.831 140.554 428.402 140.104C427.973 139.654 427.444 139.424 426.786 139.424L426.776 139.414ZM425.618 141.353C425.678 141.074 425.818 140.844 426.017 140.694C426.217 140.534 426.476 140.454 426.786 140.454C427.045 140.454 427.274 140.524 427.484 140.674C427.683 140.824 427.823 141.044 427.893 141.353H425.618Z" fill="white"/>
<path d="M433.101 140.064C432.762 139.634 432.273 139.414 431.654 139.414C431.036 139.414 430.557 139.644 430.128 140.094C429.709 140.554 429.499 141.104 429.499 141.763C429.499 142.423 429.709 142.973 430.128 143.433C430.547 143.882 431.056 144.112 431.654 144.112C432.253 144.112 432.762 143.892 433.101 143.463V143.982H434.248V139.534H433.101V140.064ZM432.752 142.673C432.522 142.903 432.223 143.023 431.864 143.023C431.505 143.023 431.215 142.903 430.986 142.673C430.756 142.443 430.637 142.133 430.637 141.763C430.637 141.393 430.746 141.094 430.986 140.864C431.215 140.634 431.505 140.514 431.864 140.514C432.223 140.514 432.512 140.634 432.752 140.864C432.981 141.094 433.101 141.393 433.101 141.763C433.101 142.133 432.981 142.433 432.752 142.673Z" fill="white"/>
<path d="M437.022 138.305L435.875 138.655V139.554H435.107V140.654H435.875V142.503C435.875 143.113 436.034 143.533 436.354 143.772C436.673 144.012 437.232 144.082 438.02 143.992V142.953C437.8 142.963 437.621 142.973 437.471 142.953C437.321 142.943 437.212 142.903 437.132 142.833C437.052 142.763 437.012 142.653 437.012 142.493V140.644H438.02V139.544H437.012V138.305H437.022Z" fill="white"/>
<path d="M417.517 145.602H415.202V151.829H416.429V149.78H417.517C418.115 149.78 418.614 149.58 419.023 149.18C419.432 148.78 419.632 148.281 419.632 147.701C419.632 147.121 419.422 146.621 419.023 146.212C418.614 145.812 418.115 145.612 417.517 145.612V145.602ZM418.165 148.361C417.996 148.541 417.776 148.631 417.517 148.631H416.429V146.751H417.517C417.776 146.751 417.996 146.841 418.165 147.021C418.335 147.201 418.425 147.421 418.425 147.691C418.425 147.961 418.335 148.181 418.165 148.361Z" fill="white"/>
<path d="M421.667 145.442H420.52V151.929H421.667V145.442Z" fill="white"/>
<path d="M426.117 147.911C425.778 147.481 425.289 147.261 424.67 147.261C424.052 147.261 423.573 147.491 423.144 147.941C422.725 148.391 422.515 148.95 422.515 149.61C422.515 150.27 422.725 150.82 423.144 151.279C423.563 151.739 424.072 151.959 424.67 151.959C425.269 151.959 425.778 151.739 426.117 151.309V151.829H427.264V147.381H426.117V147.911ZM425.768 150.51C425.538 150.74 425.239 150.86 424.88 150.86C424.521 150.86 424.231 150.74 424.002 150.51C423.772 150.28 423.653 149.97 423.653 149.6C423.653 149.23 423.762 148.93 424.002 148.701C424.231 148.471 424.521 148.351 424.88 148.351C425.239 148.351 425.528 148.471 425.768 148.701C425.997 148.93 426.117 149.23 426.117 149.6C426.117 149.97 425.997 150.27 425.768 150.51Z" fill="white"/>
<path d="M431.185 150.66C431.006 150.76 430.796 150.82 430.567 150.82C430.218 150.82 429.938 150.71 429.709 150.48C429.489 150.25 429.37 149.96 429.37 149.61C429.37 149.26 429.479 148.96 429.709 148.731C429.938 148.501 430.218 148.391 430.567 148.391C430.786 148.391 430.996 148.441 431.175 148.551C431.355 148.661 431.495 148.8 431.575 148.98L432.562 148.401C432.373 148.051 432.103 147.771 431.754 147.571C431.395 147.361 431.006 147.261 430.577 147.261C429.908 147.261 429.35 147.491 428.901 147.941C428.452 148.391 428.232 148.95 428.232 149.61C428.232 150.27 428.452 150.83 428.901 151.279C429.35 151.729 429.908 151.959 430.577 151.959C431.006 151.959 431.405 151.849 431.754 151.639C432.113 151.429 432.383 151.15 432.582 150.8L431.585 150.23C431.495 150.41 431.365 150.56 431.185 150.66Z" fill="white"/>
<path d="M435.536 147.261C434.847 147.261 434.288 147.481 433.849 147.931C433.41 148.381 433.191 148.94 433.191 149.61C433.191 150.28 433.41 150.85 433.859 151.289C434.308 151.729 434.897 151.959 435.625 151.959C436.473 151.959 437.122 151.639 437.561 151.01L436.643 150.48C436.414 150.78 436.084 150.93 435.645 150.93C434.967 150.93 434.548 150.65 434.398 150.09H437.75C437.78 149.92 437.8 149.77 437.8 149.62C437.8 148.96 437.591 148.401 437.162 147.951C436.733 147.501 436.204 147.271 435.546 147.271L435.536 147.261ZM434.368 149.19C434.428 148.91 434.568 148.681 434.767 148.531C434.967 148.371 435.226 148.291 435.536 148.291C435.795 148.291 436.024 148.361 436.234 148.511C436.433 148.661 436.573 148.88 436.643 149.19H434.368Z" fill="white"/>
<path d="M414.434 154.738H416.1V159.796H417.327V154.738H419.003V153.569H414.434V154.738Z" fill="white"/>
<path d="M420.879 155.078C420.22 155.078 419.672 155.308 419.213 155.758C418.764 156.218 418.534 156.767 418.534 157.427C418.534 158.087 418.764 158.637 419.213 159.096C419.662 159.556 420.22 159.776 420.879 159.776C421.537 159.776 422.096 159.546 422.545 159.096C423.004 158.647 423.234 158.087 423.234 157.427C423.234 156.767 423.004 156.218 422.545 155.758C422.086 155.308 421.528 155.078 420.879 155.078ZM421.737 158.307C421.508 158.537 421.218 158.657 420.879 158.657C420.54 158.657 420.25 158.547 420.021 158.307C419.791 158.077 419.682 157.777 419.682 157.427C419.682 157.077 419.791 156.777 420.021 156.547C420.25 156.317 420.53 156.198 420.879 156.198C421.228 156.198 421.508 156.317 421.737 156.547C421.967 156.777 422.086 157.067 422.086 157.427C422.086 157.787 421.967 158.077 421.737 158.307Z" fill="white"/>
<path d="M420.679 166.104L419.372 161.485H418.325L417.028 166.104L415.84 161.485H414.553L416.299 167.713H417.686L418.854 163.605L420.021 167.713H421.418L423.154 161.485H421.867L420.679 166.104Z" fill="white"/>
<path d="M425.379 163.055C424.72 163.055 424.171 163.285 423.713 163.735C423.264 164.184 423.034 164.744 423.034 165.404C423.034 166.064 423.264 166.613 423.713 167.073C424.161 167.523 424.72 167.753 425.379 167.753C426.037 167.753 426.596 167.523 427.045 167.073C427.504 166.623 427.733 166.064 427.733 165.404C427.733 164.744 427.504 164.194 427.045 163.735C426.586 163.285 426.027 163.055 425.379 163.055ZM426.237 166.293C426.007 166.523 425.718 166.643 425.379 166.643C425.039 166.643 424.75 166.533 424.521 166.293C424.291 166.064 424.181 165.764 424.181 165.414C424.181 165.064 424.291 164.764 424.521 164.534C424.75 164.304 425.03 164.184 425.379 164.184C425.728 164.184 426.007 164.304 426.237 164.534C426.466 164.764 426.586 165.054 426.586 165.414C426.586 165.774 426.466 166.064 426.237 166.293Z" fill="white"/>
<path d="M429.669 163.265H428.522V167.713H429.669V165.584C429.669 165.154 429.809 164.854 430.078 164.674C430.357 164.494 430.667 164.424 431.016 164.464V163.185C430.717 163.185 430.437 163.255 430.198 163.405C429.948 163.545 429.779 163.764 429.669 164.044V163.265Z" fill="white"/>
<path d="M435.875 163.245H434.508L432.971 165.204V161.465H431.834V167.693H432.971V165.674L434.588 167.693H435.925L434.089 165.444L435.875 163.245Z" fill="white"/>
<path d="M437.701 166.943C437.74 166.893 437.76 166.833 437.76 166.773C437.76 166.683 437.731 166.603 437.661 166.533C437.601 166.463 437.521 166.433 437.421 166.433H437.012V167.453H437.212V167.103H437.361L437.561 167.453H437.78L437.551 167.073C437.611 167.043 437.661 167.003 437.691 166.953L437.701 166.943ZM437.511 166.873C437.511 166.873 437.451 166.913 437.421 166.913H437.212V166.613H437.421C437.421 166.613 437.491 166.633 437.511 166.663C437.541 166.693 437.551 166.723 437.551 166.773C437.551 166.823 437.541 166.853 437.511 166.883V166.873Z" fill="white"/>
<path d="M437.331 165.954C436.803 165.954 436.384 166.373 436.384 166.903C436.384 167.433 436.803 167.853 437.331 167.853C437.86 167.853 438.279 167.423 438.279 166.903C438.279 166.383 437.86 165.954 437.331 165.954ZM437.331 167.603C436.952 167.603 436.633 167.293 436.633 166.903C436.633 166.513 436.942 166.204 437.331 166.204C437.721 166.204 438.02 166.513 438.02 166.903C438.02 167.293 437.711 167.603 437.331 167.603Z" fill="white"/>
<path d="M416.808 176.309C416.599 176.469 416.349 176.539 416.06 176.539C415.88 176.539 415.711 176.509 415.561 176.449C415.411 176.389 415.272 176.299 415.162 176.18C415.052 176.06 414.953 175.91 414.893 175.73C414.833 175.55 414.793 175.34 414.793 175.11C414.793 174.89 414.823 174.69 414.883 174.52C414.943 174.34 415.032 174.19 415.142 174.07C415.252 173.95 415.382 173.85 415.541 173.78C415.701 173.711 415.87 173.681 416.06 173.681C416.359 173.681 416.609 173.761 416.818 173.92C417.018 174.08 417.148 174.31 417.207 174.62L418.135 174.54C418.095 174.28 418.016 174.05 417.896 173.85C417.776 173.651 417.626 173.471 417.447 173.331C417.267 173.191 417.058 173.081 416.828 173.001C416.599 172.921 416.349 172.891 416.09 172.891C415.771 172.891 415.481 172.941 415.212 173.041C414.943 173.141 414.713 173.281 414.514 173.481C414.314 173.671 414.164 173.9 414.055 174.18C413.945 174.46 413.895 174.77 413.895 175.12C413.895 175.47 413.945 175.78 414.055 176.05C414.164 176.329 414.314 176.559 414.514 176.749C414.713 176.939 414.943 177.089 415.212 177.189C415.481 177.289 415.781 177.339 416.09 177.339C416.349 177.339 416.599 177.299 416.828 177.229C417.058 177.149 417.267 177.049 417.447 176.909C417.626 176.769 417.776 176.599 417.896 176.399C418.016 176.2 418.105 175.97 418.145 175.71L417.207 175.63C417.148 175.93 417.018 176.16 416.818 176.319L416.808 176.309Z" fill="white"/>
<path d="M421.158 174.61C421.029 174.48 420.879 174.38 420.709 174.32C420.53 174.25 420.34 174.22 420.121 174.22C419.901 174.22 419.692 174.26 419.512 174.33C419.323 174.4 419.163 174.5 419.033 174.64C418.903 174.77 418.794 174.94 418.724 175.13C418.644 175.32 418.614 175.54 418.614 175.78C418.614 176.02 418.654 176.24 418.724 176.429C418.804 176.619 418.903 176.789 419.033 176.919C419.173 177.049 419.333 177.159 419.522 177.229C419.712 177.299 419.921 177.339 420.151 177.339C420.32 177.339 420.49 177.319 420.64 177.269C420.799 177.219 420.939 177.149 421.059 177.069C421.178 176.979 421.278 176.879 421.358 176.759C421.438 176.639 421.498 176.509 421.518 176.369L420.669 176.329C420.64 176.429 420.58 176.509 420.48 176.569C420.38 176.629 420.26 176.659 420.121 176.659C419.931 176.659 419.781 176.599 419.672 176.499C419.562 176.389 419.512 176.24 419.502 176.06H421.557V175.72C421.557 175.49 421.527 175.28 421.458 175.1C421.388 174.91 421.298 174.76 421.168 174.63L421.158 174.61ZM419.492 175.48C419.502 175.29 419.562 175.14 419.672 175.04C419.781 174.93 419.931 174.88 420.111 174.88C420.3 174.88 420.45 174.93 420.54 175.04C420.63 175.15 420.689 175.29 420.689 175.48H419.492Z" fill="white"/>
<path d="M422.984 174.61V174.27H422.166V177.259H423.014V175.74C423.014 175.53 423.084 175.37 423.224 175.24C423.363 175.11 423.553 175.05 423.802 175.05V174.24C423.573 174.24 423.393 174.28 423.264 174.35C423.134 174.42 423.044 174.51 422.984 174.61Z" fill="white"/>
<path d="M425.419 173.261H424.581V174.25H424.022V174.98H424.561V176.299C424.561 176.469 424.581 176.629 424.63 176.749C424.68 176.879 424.76 176.979 424.85 177.059C424.94 177.139 425.059 177.199 425.189 177.239C425.329 177.279 425.468 177.299 425.638 177.299C425.758 177.299 425.848 177.299 425.908 177.289C425.977 177.289 426.037 177.279 426.097 177.269V176.519C426.097 176.519 426.027 176.539 425.987 176.539C425.947 176.539 425.898 176.539 425.838 176.539C425.718 176.539 425.608 176.509 425.518 176.439C425.429 176.369 425.379 176.25 425.379 176.09V174.98H426.087V174.25H425.389V173.261H425.419Z" fill="white"/>
<path d="M427.494 174.28H426.646V177.269H427.494V174.28Z" fill="white"/>
<path d="M427.065 172.781C426.995 172.781 426.935 172.791 426.875 172.821C426.815 172.851 426.766 172.881 426.716 172.931C426.666 172.981 426.636 173.031 426.606 173.091C426.576 173.151 426.566 173.221 426.566 173.291C426.566 173.431 426.616 173.551 426.716 173.651C426.815 173.751 426.935 173.8 427.075 173.8C427.215 173.8 427.334 173.751 427.434 173.651C427.534 173.551 427.584 173.431 427.584 173.291C427.584 173.151 427.534 173.021 427.434 172.931C427.334 172.831 427.215 172.781 427.075 172.781H427.065Z" fill="white"/>
<path d="M429.719 172.731C429.529 172.731 429.36 172.761 429.21 172.821C429.06 172.881 428.931 172.961 428.821 173.071C428.711 173.181 428.631 173.311 428.571 173.461C428.512 173.611 428.482 173.78 428.482 173.97V174.28H427.943V175.01H428.482V177.279H429.32V175.01H430.008V174.28H429.32V173.95C429.32 173.81 429.37 173.691 429.459 173.611C429.549 173.521 429.669 173.481 429.819 173.481C429.858 173.481 429.898 173.481 429.928 173.481C429.958 173.481 429.988 173.481 430.018 173.481V172.751C430.018 172.751 429.928 172.741 429.888 172.741C429.849 172.741 429.789 172.741 429.729 172.741L429.719 172.731Z" fill="white"/>
<path d="M431.375 174.28H430.527V177.269H431.375V174.28Z" fill="white"/>
<path d="M430.946 172.781C430.876 172.781 430.816 172.791 430.756 172.821C430.697 172.851 430.647 172.881 430.597 172.931C430.547 172.981 430.517 173.031 430.487 173.091C430.457 173.151 430.447 173.221 430.447 173.291C430.447 173.431 430.497 173.551 430.597 173.651C430.697 173.751 430.816 173.8 430.956 173.8C431.096 173.8 431.215 173.751 431.315 173.651C431.415 173.551 431.465 173.431 431.465 173.291C431.465 173.151 431.415 173.021 431.315 172.931C431.215 172.831 431.096 172.781 430.956 172.781H430.946Z" fill="white"/>
<path d="M433.49 174.94C433.65 174.94 433.79 174.99 433.889 175.08C433.999 175.17 434.059 175.29 434.079 175.45L434.907 175.38C434.877 175.2 434.827 175.04 434.737 174.9C434.658 174.76 434.548 174.63 434.428 174.53C434.298 174.43 434.159 174.35 433.999 174.3C433.839 174.25 433.67 174.22 433.49 174.22C433.271 174.22 433.071 174.25 432.882 174.32C432.692 174.39 432.532 174.49 432.393 174.62C432.263 174.75 432.153 174.92 432.073 175.11C431.994 175.3 431.954 175.52 431.954 175.77C431.954 176.02 431.994 176.23 432.073 176.429C432.153 176.619 432.253 176.779 432.393 176.919C432.532 177.049 432.692 177.149 432.882 177.229C433.071 177.299 433.271 177.339 433.49 177.339C433.68 177.339 433.849 177.309 433.999 177.259C434.159 177.209 434.298 177.129 434.428 177.029C434.548 176.929 434.658 176.809 434.737 176.669C434.817 176.529 434.877 176.369 434.907 176.19L434.089 176.11C434.069 176.259 433.999 176.379 433.899 176.469C433.799 176.559 433.66 176.599 433.5 176.599C433.301 176.599 433.141 176.529 433.011 176.389C432.882 176.249 432.822 176.04 432.822 175.78C432.822 175.52 432.882 175.31 433.011 175.16C433.141 175.02 433.301 174.94 433.5 174.94H433.49Z" fill="white"/>
<path d="M432.024 189.174C431.954 189.124 431.874 189.074 431.774 189.044C431.674 189.004 431.565 188.974 431.455 188.944C431.375 188.924 431.305 188.904 431.245 188.894C431.185 188.874 431.146 188.854 431.106 188.834C431.076 188.814 431.046 188.784 431.026 188.755C431.006 188.725 430.996 188.685 430.996 188.645C430.996 188.565 431.026 188.495 431.086 188.445C431.146 188.395 431.235 188.365 431.345 188.365C431.455 188.365 431.545 188.395 431.604 188.455C431.664 188.515 431.694 188.595 431.704 188.695L432.193 188.665C432.193 188.555 432.163 188.455 432.123 188.365C432.083 188.275 432.024 188.205 431.944 188.135C431.864 188.075 431.784 188.025 431.674 187.995C431.575 187.965 431.455 187.945 431.335 187.945C431.195 187.945 431.076 187.965 430.976 188.005C430.876 188.045 430.786 188.095 430.717 188.165C430.647 188.225 430.597 188.305 430.557 188.395C430.527 188.485 430.507 188.575 430.507 188.665C430.507 188.774 430.527 188.874 430.567 188.944C430.607 189.024 430.667 189.084 430.726 189.134C430.796 189.184 430.876 189.224 430.976 189.254C431.066 189.284 431.166 189.314 431.275 189.334C431.435 189.374 431.545 189.414 431.624 189.464C431.704 189.504 431.744 189.574 431.744 189.654C431.744 189.754 431.714 189.824 431.644 189.864C431.575 189.904 431.495 189.924 431.385 189.924C431.325 189.924 431.265 189.924 431.215 189.904C431.166 189.884 431.116 189.864 431.076 189.834C431.036 189.804 431.006 189.764 430.986 189.724C430.966 189.674 430.956 189.634 430.946 189.574L430.457 189.604C430.457 189.724 430.487 189.834 430.527 189.924C430.577 190.014 430.637 190.094 430.717 190.164C430.796 190.224 430.896 190.274 431.006 190.304C431.116 190.334 431.245 190.354 431.375 190.354C431.495 190.354 431.604 190.344 431.704 190.314C431.804 190.284 431.894 190.244 431.974 190.184C432.053 190.124 432.113 190.054 432.153 189.964C432.203 189.874 432.223 189.764 432.223 189.644C432.223 189.544 432.203 189.454 432.163 189.384C432.123 189.314 432.073 189.244 432.004 189.194L432.024 189.174Z" fill="white"/>
<path d="M433.091 187.975H432.612V190.294H433.091V187.975Z" fill="white"/>
<path d="M433.999 187.975H433.52V190.294H435.007V189.874H433.999V187.975Z" fill="white"/>
<path d="M436.623 174.2C436.433 174.2 436.254 174.23 436.104 174.29C435.955 174.35 435.825 174.43 435.715 174.54C435.605 174.64 435.526 174.76 435.466 174.88C435.406 175.01 435.376 175.14 435.376 175.27L436.224 175.31C436.224 175.21 436.254 175.12 436.324 175.04C436.384 174.96 436.493 174.92 436.643 174.92C436.902 174.92 437.032 175.07 437.032 175.38V175.5L436.503 175.53C436.344 175.53 436.194 175.56 436.044 175.59C435.905 175.62 435.775 175.67 435.665 175.75C435.555 175.82 435.466 175.91 435.396 176.02C435.336 176.13 435.296 176.269 435.296 176.439C435.296 176.729 435.386 176.949 435.565 177.099C435.745 177.249 435.984 177.329 436.284 177.329C436.453 177.329 436.603 177.299 436.733 177.239C436.853 177.179 436.962 177.109 437.052 177.019V177.259H437.86V175.41C437.86 175.01 437.75 174.71 437.541 174.51C437.331 174.31 437.022 174.21 436.623 174.21V174.2ZM437.032 176.17C437.032 176.329 436.982 176.449 436.872 176.539C436.773 176.619 436.643 176.659 436.493 176.659C436.394 176.659 436.304 176.639 436.244 176.599C436.184 176.559 436.144 176.489 436.144 176.389C436.144 176.279 436.184 176.21 436.264 176.16C436.344 176.11 436.453 176.08 436.573 176.08L437.022 176.05V176.18L437.032 176.17Z" fill="white"/>
<path d="M440.704 174.55C440.624 174.46 440.514 174.39 440.364 174.33C440.225 174.27 440.045 174.24 439.856 174.24C439.646 174.24 439.447 174.28 439.267 174.35C439.097 174.42 438.938 174.53 438.818 174.67C438.688 174.81 438.589 174.97 438.519 175.16C438.449 175.35 438.409 175.56 438.409 175.8C438.409 176.04 438.449 176.249 438.519 176.439C438.589 176.629 438.688 176.789 438.818 176.929C438.948 177.069 439.097 177.169 439.267 177.249C439.447 177.319 439.636 177.359 439.856 177.359C440.075 177.359 440.255 177.319 440.404 177.249C440.554 177.179 440.674 177.089 440.754 176.989V177.299H441.552V172.801H440.714V174.57L440.704 174.55ZM440.704 175.86C440.704 176.1 440.634 176.289 440.504 176.429C440.374 176.559 440.205 176.629 439.995 176.629C439.786 176.629 439.616 176.559 439.477 176.419C439.337 176.279 439.277 176.07 439.277 175.81C439.277 175.55 439.347 175.34 439.477 175.19C439.616 175.05 439.786 174.97 439.995 174.97C440.205 174.97 440.374 175.04 440.504 175.17C440.634 175.3 440.704 175.49 440.704 175.73V175.86Z" fill="white"/>
<path d="M443.457 174.22C443.268 174.22 443.088 174.25 442.939 174.31C442.789 174.37 442.659 174.45 442.55 174.56C442.44 174.66 442.36 174.78 442.3 174.9C442.24 175.03 442.21 175.16 442.21 175.29L443.058 175.33C443.058 175.23 443.088 175.14 443.158 175.06C443.218 174.98 443.328 174.94 443.477 174.94C443.737 174.94 443.867 175.09 443.867 175.4V175.52L443.338 175.55C443.178 175.55 443.028 175.58 442.879 175.61C442.739 175.64 442.609 175.69 442.5 175.77C442.39 175.84 442.3 175.93 442.23 176.04C442.17 176.15 442.13 176.289 442.13 176.459C442.13 176.749 442.22 176.969 442.4 177.119C442.579 177.269 442.819 177.349 443.118 177.349C443.288 177.349 443.437 177.319 443.567 177.259C443.687 177.199 443.797 177.129 443.886 177.039V177.279H444.695V175.43C444.695 175.03 444.585 174.73 444.375 174.53C444.166 174.33 443.857 174.23 443.457 174.23V174.22ZM443.857 176.19C443.857 176.349 443.807 176.469 443.697 176.559C443.597 176.639 443.467 176.679 443.318 176.679C443.218 176.679 443.128 176.659 443.068 176.619C443.008 176.579 442.969 176.509 442.969 176.409C442.969 176.299 443.008 176.23 443.088 176.18C443.168 176.13 443.278 176.1 443.398 176.1L443.847 176.07V176.2L443.857 176.19Z" fill="white"/>
<path d="M425.449 189.074C425.518 189.034 425.568 188.974 425.608 188.894C425.648 188.814 425.668 188.725 425.668 188.615C425.668 188.505 425.648 188.415 425.608 188.335C425.578 188.255 425.528 188.185 425.459 188.135C425.399 188.085 425.319 188.045 425.229 188.015C425.139 187.985 425.039 187.975 424.94 187.975H423.972V190.294H425.01C425.119 190.294 425.219 190.284 425.309 190.254C425.399 190.224 425.478 190.184 425.548 190.124C425.618 190.064 425.668 189.994 425.708 189.914C425.748 189.834 425.768 189.734 425.768 189.624C425.768 189.474 425.738 189.354 425.668 189.264C425.608 189.174 425.528 189.114 425.439 189.074H425.449ZM424.461 188.395H424.9C424.99 188.395 425.059 188.415 425.109 188.455C425.159 188.495 425.189 188.565 425.189 188.645C425.189 188.725 425.159 188.794 425.119 188.834C425.069 188.874 425.01 188.894 424.93 188.894H424.471V188.385L424.461 188.395ZM425.189 189.814C425.129 189.854 425.049 189.874 424.96 189.874H424.461V189.314H424.97C425.059 189.314 425.129 189.334 425.189 189.384C425.249 189.424 425.279 189.494 425.279 189.594C425.279 189.694 425.249 189.764 425.189 189.804V189.814Z" fill="white"/>
<path d="M427.793 189.134C427.863 189.024 427.893 188.884 427.893 188.725C427.893 188.605 427.873 188.505 427.833 188.405C427.793 188.315 427.743 188.235 427.673 188.175C427.614 188.115 427.534 188.065 427.434 188.035C427.344 188.005 427.244 187.985 427.135 187.985H426.147V190.304H426.626V189.474H427.015L427.464 190.304H428.003L427.514 189.394C427.634 189.334 427.723 189.254 427.783 189.144L427.793 189.134ZM427.314 188.954C427.254 189.004 427.175 189.034 427.085 189.034H426.626V188.395H427.085C427.175 188.395 427.254 188.425 427.314 188.475C427.374 188.525 427.404 188.605 427.404 188.715C427.404 188.824 427.374 188.894 427.314 188.954Z" fill="white"/>
<path d="M429.07 187.975L428.073 190.294H428.591L428.781 189.844H429.749L429.938 190.294H430.467L429.469 187.975H429.07ZM428.951 189.464L429.26 188.725L429.569 189.464H428.941H428.951Z" fill="white"/>
<path d="M444.525 188.335H444.884V189.134H445.213V188.335H445.573V188.015H444.525V188.335Z" fill="#002171"/>
<path d="M446.391 188.695L446.012 188.015H445.732V189.134H446.062V188.675L446.311 189.124H446.461L446.71 188.675V189.134H447.049V188.015H446.76L446.391 188.695Z" fill="#002171"/>
<defs>
<linearGradient id="paint0_linear_25_4" x1="87.9046" y1="29.2855" x2="172.757" y2="283.844" gradientUnits="userSpaceOnUse">
<stop stop-color="#E1B090"/>
<stop offset="0.12" stop-color="#C29375"/>
<stop offset="0.19" stop-color="#C69779"/>
<stop offset="0.26" stop-color="#D1A486"/>
<stop offset="0.34" stop-color="#E3BA9C"/>
<stop offset="0.4" stop-color="#F6D0B2"/>
<stop offset="0.91" stop-color="#B17F60"/>
</linearGradient>
<linearGradient id="paint1_linear_25_4" x1="0" y1="100" x2="600.223" y2="100" gradientUnits="userSpaceOnUse">
<stop stop-color="#E1B090"/>
<stop offset="0.12" stop-color="#C29375"/>
<stop offset="0.19" stop-color="#C69779"/>
<stop offset="0.91" stop-color="#B17F60"/>
</linearGradient>
<linearGradient id="paint2_linear_25_4" x1="54.8478" y1="391.179" x2="582.6" y2="220.763" gradientUnits="userSpaceOnUse">
<stop stop-color="#B17F60"/>
<stop offset="0.18" stop-color="#E2B191"/>
<stop offset="0.96" stop-color="#F6D0B2"/>
</linearGradient>
</defs>
</svg>
