<svg width="372" height="200" viewBox="0 0 372 200" fill="none" xmlns="http://www.w3.org/2000/svg">
<g clip-path="url(#clip0_17_2041)">
<path d="M216.77 35.5018L212.265 40.002L202.753 48.5024L203.754 63.5032L208.26 74.0037L213.266 79.0039L217.271 83.5042L220.274 85.0042H222.277L223.278 84.0042L227.283 82.0041L234.792 74.0037L236.795 65.0032L234.792 46.0023L231.788 39.502L225.28 34.0017L221.276 33.5017L216.77 35.5018Z" fill="#BA1319"/>
<path d="M-4 200H372V118.916H360.746C343.936 143.647 302.875 177.879 204.335 177.879C67.968 177.879 8.06476 112.326 -4 97.1249" fill="#BA1319"/>
<path d="M209.481 198.62C315.04 198.62 360.736 137.957 370.508 118.916H350.744C328.787 139.167 288.588 164.388 224.59 164.388C133.248 164.388 48.4141 70.3935 12.1598 0H-4V100.925C9.5666 117.586 82.0853 198.62 209.481 198.62Z" fill="#4C4C4E"/>
<path d="M209.481 198.62C315.04 198.62 360.736 137.957 370.508 118.916H369.717C325.573 179.589 204.896 222.201 106.755 149.617C45.9912 104.665 5.82202 41.8021 -4 25.5113V100.925C9.5666 117.586 82.0853 198.62 209.481 198.62Z" fill="#EBEBEB"/>
<path d="M182.398 104.125V104.085C183.249 103.735 183.79 102.945 183.79 101.945C183.79 100.575 182.628 99.655 180.906 99.655H177.282V108.645H180.896C182.879 108.645 184.1 107.745 184.1 106.305C184.1 105.185 183.459 104.435 182.398 104.125ZM179.254 101.355H180.776C181.397 101.355 181.807 101.745 181.807 102.315C181.807 102.975 181.437 103.395 180.806 103.395H179.264V101.355H179.254ZM180.786 106.955H179.254V104.925H180.886C181.607 104.925 182.068 105.345 182.068 105.945C182.068 106.545 181.557 106.955 180.776 106.955H180.786Z" fill="#4C4C4E"/>
<path d="M188.966 105.615C188.966 106.595 188.455 107.165 187.735 107.165C187.094 107.165 186.753 106.805 186.753 105.875V102.365H184.941V106.115C184.941 107.775 185.782 108.765 187.204 108.765C187.985 108.765 188.746 108.405 189.056 107.865H189.096V108.635H190.778V102.365H188.966V105.615Z" fill="#4C4C4E"/>
<path d="M193.512 104.205C193.512 103.875 193.862 103.675 194.363 103.675C194.893 103.675 195.614 103.825 196.245 104.085V102.655C195.714 102.415 194.943 102.245 194.243 102.245C192.661 102.245 191.749 102.995 191.749 104.175C191.749 106.385 194.793 105.945 194.793 106.805C194.793 107.165 194.463 107.355 193.782 107.355C193.241 107.355 192.5 107.185 191.92 106.935V108.365C192.51 108.625 193.291 108.775 193.902 108.775C195.584 108.775 196.585 108.055 196.585 106.805C196.585 104.585 193.522 105.045 193.522 104.195L193.512 104.205Z" fill="#4C4C4E"/>
<path d="M197.266 105.515C197.266 107.505 198.538 108.775 200.53 108.775C201.071 108.775 201.762 108.655 202.282 108.445V106.865C201.812 107.075 201.291 107.185 200.871 107.185C199.789 107.185 199.108 106.525 199.108 105.515C199.108 104.505 199.789 103.845 200.871 103.845C201.291 103.845 201.812 103.965 202.282 104.165V102.585C201.772 102.365 201.071 102.255 200.53 102.255C198.538 102.255 197.266 103.525 197.266 105.515Z" fill="#4C4C4E"/>
<path d="M206.668 102.255C205.947 102.255 205.256 102.625 204.946 103.155H204.906V99.665H203.093V108.655H204.906V105.495C204.906 104.485 205.396 103.865 206.117 103.865C206.768 103.865 207.118 104.305 207.118 105.145V108.655H208.93V104.905C208.93 103.245 208.089 102.255 206.668 102.255Z" fill="#4C4C4E"/>
<path d="M211.904 99.655H210.092V108.645H211.904V99.655Z" fill="#4C4C4E"/>
<path d="M215.789 102.255C213.977 102.255 212.835 103.515 212.835 105.515C212.835 107.515 214.097 108.775 216.059 108.775C216.69 108.775 217.511 108.605 218.092 108.355V106.955C217.501 107.165 216.79 107.315 216.239 107.315C215.258 107.315 214.688 106.825 214.607 105.965H218.282C218.833 103.715 217.771 102.255 215.789 102.255ZM214.607 104.915C214.718 104.095 215.118 103.625 215.699 103.625C216.33 103.625 216.7 104.065 216.7 104.915H214.607Z" fill="#4C4C4E"/>
<path d="M222.767 106.745C222.767 106.295 223.228 106.095 223.699 106.095H224.7V105.165L223.158 103.845H225.461V102.385H221.296V103.845L222.787 105.085C221.776 105.215 221.135 105.895 221.135 106.795C221.135 107.985 222.117 108.775 223.588 108.775C224.339 108.775 225.14 108.655 225.581 108.445V107.185C225.07 107.375 224.349 107.495 223.689 107.495C223.028 107.495 222.767 107.195 222.767 106.745Z" fill="#4C4C4E"/>
<path d="M230.287 99.655H228.284V108.645H234.031V106.895H230.287V99.655Z" fill="#4C4C4E"/>
<path d="M237.115 102.255C235.303 102.255 234.161 103.515 234.161 105.515C234.161 107.515 235.423 108.775 237.385 108.775C238.016 108.775 238.837 108.605 239.418 108.355V106.955C238.827 107.165 238.116 107.315 237.566 107.315C236.584 107.315 236.014 106.825 235.934 105.965H239.608C240.159 103.715 239.097 102.255 237.115 102.255ZM235.934 104.915C236.044 104.095 236.444 103.625 237.025 103.625C237.656 103.625 238.026 104.065 238.026 104.915H235.934Z" fill="#4C4C4E"/>
<path d="M244.184 102.255C243.433 102.255 242.722 102.635 242.451 103.215H242.411V102.375H240.709V111.366H242.522V107.885H242.562C242.882 108.415 243.543 108.775 244.184 108.775C245.756 108.775 246.837 107.455 246.837 105.515C246.837 103.575 245.756 102.255 244.184 102.255ZM243.763 107.175C243.012 107.175 242.532 106.525 242.532 105.515C242.532 104.505 243.022 103.855 243.763 103.855C244.504 103.855 244.975 104.475 244.975 105.515C244.975 106.555 244.524 107.175 243.763 107.175Z" fill="#4C4C4E"/>
<path d="M251.232 102.255C250.481 102.255 249.77 102.635 249.5 103.215H249.46V102.375H247.758V111.366H249.57V107.885H249.61C249.931 108.415 250.591 108.775 251.232 108.775C252.804 108.775 253.885 107.455 253.885 105.515C253.885 103.575 252.804 102.255 251.232 102.255ZM250.812 107.175C250.061 107.175 249.58 106.525 249.58 105.515C249.58 104.505 250.071 103.855 250.812 103.855C251.553 103.855 252.023 104.475 252.023 105.515C252.023 106.555 251.573 107.175 250.812 107.175Z" fill="#4C4C4E"/>
<path d="M257.54 102.255C255.728 102.255 254.586 103.515 254.586 105.515C254.586 107.515 255.848 108.775 257.81 108.775C258.441 108.775 259.262 108.605 259.843 108.355V106.955C259.252 107.165 258.541 107.315 257.991 107.315C257.009 107.315 256.439 106.825 256.359 105.965H260.033C260.584 103.715 259.522 102.255 257.54 102.255ZM256.349 104.915C256.469 104.095 256.859 103.625 257.44 103.625C258.071 103.625 258.441 104.065 258.441 104.915H256.349Z" fill="#4C4C4E"/>
<path d="M262.876 103.345H262.836V102.385H261.134V108.655H262.947V105.765C262.947 104.735 263.537 104.085 264.488 104.085C264.809 104.085 265.159 104.145 265.51 104.295V102.415C265.239 102.315 264.939 102.265 264.689 102.265C263.878 102.265 263.187 102.705 262.876 103.355V103.345Z" fill="#4C4C4E"/>
<path d="M235.423 88.6444C252.039 88.6444 265.51 75.4944 265.51 59.273C265.51 43.0515 252.039 29.9015 235.423 29.9015C218.806 29.9015 205.336 43.0515 205.336 59.273C205.336 75.4944 218.806 88.6444 235.423 88.6444Z" fill="#BA1319"/>
<path d="M207.369 88.6444C223.985 88.6444 237.455 75.4944 237.455 59.273C237.455 43.0515 223.985 29.9015 207.369 29.9015C190.752 29.9015 177.282 43.0515 177.282 59.273C177.282 75.4944 190.752 88.6444 207.369 88.6444Z" fill="#BA1319"/>
<path d="M218.302 62.6331C218.302 60.743 220.835 60.193 225.891 60.193L226.422 58.1829L221.776 53.7427H229.325V50.0125H215.969V53.5827L220.344 57.7329C216.019 58.1129 213.967 60.293 213.967 62.9431C213.967 67.1934 218.502 68.5434 223.769 68.5434C226.392 68.5434 228.925 68.1834 231.058 67.3834V63.0131C229.516 64.0332 226.882 64.7032 223.518 64.7032C220.815 64.7032 218.312 64.3732 218.312 62.6431L218.302 62.6331Z" fill="white"/>
<path d="M240.119 47.6924H235.032V70.8535H251.653V66.2133H240.119V47.6924Z" fill="white"/>
<path d="M206.908 58.5129C208.57 57.4829 209.581 55.9628 209.581 53.5827C209.581 49.2525 206.157 47.6924 200.941 47.6924H191.259V70.8535H202.743C208.84 70.8535 211.283 68.2434 211.283 64.4332C211.283 61.2231 209.521 59.433 206.908 58.5129ZM196.345 52.3226H200.951C203.794 52.3226 204.845 52.9226 204.845 54.4727C204.845 56.0228 203.794 56.6228 200.951 56.6228H196.345V52.3226ZM202.743 66.2133H196.345V61.2531H202.743C205.456 61.2531 206.538 62.0131 206.538 63.7032C206.538 65.3933 205.456 66.2133 202.743 66.2133Z" fill="white"/>
</g>
<defs>
<clipPath id="clip0_17_2041">
<rect width="372" height="200" fill="white"/>
</clipPath>
</defs>
</svg>
