<svg width="229" height="81" viewBox="0 0 229 81" fill="none" xmlns="http://www.w3.org/2000/svg">
<g clip-path="url(#clip0_17_2054)">
<rect width="229" height="81" fill="#BA1319"/>
<path d="M0.44 0L0.12 0.64L0 0.85V81.08H226.37V0H0.44Z" fill="#BA1319"/>
<path d="M134.39 24.94V21.47L127.9 24.94H134.39Z" fill="#4B4B4A"/>
<path d="M174.161 66.4285C185.931 54.6581 185.931 35.5745 174.161 23.8041C162.391 12.0337 143.307 12.0337 131.537 23.8041C119.766 35.5745 119.766 54.6581 131.537 66.4285C143.307 78.1989 162.391 78.1989 174.161 66.4285Z" fill="url(#paint0_linear_17_2054)"/>
<path d="M171.7 63.9678C182.112 53.5564 182.112 36.6762 171.7 26.2649C161.289 15.8535 144.409 15.8535 133.997 26.2648C123.586 36.6762 123.586 53.5564 133.997 63.9678C144.409 74.3792 161.289 74.3792 171.7 63.9678Z" fill="#F9F9FA"/>
<path d="M166.29 58.56H139.4V59.26H166.29V58.56Z" fill="url(#paint1_linear_17_2054)"/>
<path d="M148.88 55.65V55.75L148.9 55.83V55.95C148.9 55.95 148.95 55.91 148.96 55.89L148.89 55.64L148.88 55.65Z" fill="#4B4B4A"/>
<path d="M146.63 54.35C146.51 54.29 146.37 54.26 146.21 54.26C146.03 54.26 145.88 54.29 145.74 54.37C145.63 54.43 145.56 54.52 145.5 54.61V54.81L145.44 54.67C145.44 54.67 145.48 54.64 145.5 54.61V54.28H145.16V56.25H145.52V55.24C145.52 55.1 145.55 54.98 145.59 54.88C145.64 54.78 145.71 54.71 145.81 54.66C145.9 54.61 146.01 54.59 146.14 54.59C146.31 54.59 146.44 54.64 146.53 54.73C146.63 54.83 146.67 54.97 146.67 55.16V56.25H147.03V55.12C147.03 54.93 147 54.77 146.93 54.64C146.86 54.51 146.76 54.42 146.64 54.36L146.63 54.35Z" fill="#4B4B4A"/>
<path d="M148.94 55.11H148.88V55.37H148.94V55.11Z" fill="#4B4B4A"/>
<path d="M148.88 55.65C148.84 55.76 148.77 55.85 148.67 55.9C148.57 55.96 148.46 55.99 148.32 55.99C148.18 55.99 148.08 55.96 148 55.9C147.92 55.84 147.88 55.76 147.88 55.67C147.88 55.59 147.91 55.51 147.97 55.45C148.03 55.39 148.15 55.36 148.33 55.36H148.87V55.1H148.31C148.11 55.1 147.96 55.13 147.84 55.18C147.73 55.23 147.64 55.3 147.59 55.39C147.54 55.48 147.52 55.57 147.52 55.68C147.52 55.79 147.55 55.89 147.61 55.98C147.67 56.07 147.75 56.14 147.86 56.18C147.97 56.23 148.1 56.25 148.24 56.25C148.42 56.25 148.57 56.22 148.69 56.15C148.78 56.1 148.83 56.02 148.88 55.93V55.81L148.86 55.73V55.63L148.88 55.65Z" fill="#4B4B4A"/>
<path d="M148.39 54.26C148.23 54.26 148.08 54.28 147.94 54.33C147.8 54.37 147.68 54.43 147.58 54.52L147.73 54.79C147.81 54.73 147.9 54.67 148.01 54.64C148.12 54.6 148.23 54.58 148.35 54.58C148.53 54.58 148.66 54.62 148.74 54.71C148.83 54.79 148.87 54.91 148.87 55.06V55.13H148.93V55.39H148.87V55.67L148.94 55.92C148.94 55.92 148.9 55.96 148.88 55.98V56.27H149.22V55.08C149.22 54.81 149.15 54.61 149 54.48C148.85 54.35 148.65 54.28 148.38 54.28L148.39 54.26Z" fill="#4B4B4A"/>
<path d="M152.6 53.44C152.53 53.44 152.47 53.46 152.43 53.51C152.39 53.55 152.36 53.61 152.36 53.68C152.36 53.75 152.38 53.8 152.43 53.84C152.48 53.88 152.53 53.91 152.6 53.91C152.67 53.91 152.73 53.89 152.77 53.85C152.81 53.8 152.84 53.74 152.84 53.68C152.84 53.62 152.82 53.56 152.77 53.52C152.72 53.48 152.67 53.45 152.6 53.45V53.44Z" fill="#4B4B4A"/>
<path d="M153.82 53.49H153.46V56.24H153.82V53.49Z" fill="#4B4B4A"/>
<path d="M154.86 54.28H154.5V56.25H154.86V54.28Z" fill="#4B4B4A"/>
<path d="M152.79 54.28H152.43V56.25H152.79V54.28Z" fill="#4B4B4A"/>
<path d="M149.9 56.24H150.24V55.89C150.24 55.89 150.18 55.84 150.16 55.81C150.08 55.66 150.04 55.48 150.04 55.25C150.04 55.02 150.08 54.84 150.16 54.69C150.18 54.65 150.22 54.63 150.25 54.6V53.48H149.89V56.23L149.9 56.24Z" fill="#4B4B4A"/>
<path d="M145.49 54.81V54.61C145.49 54.61 145.45 54.64 145.43 54.67L145.49 54.81Z" fill="#4B4B4A"/>
<path d="M150.05 55.26C150.05 55.48 150.09 55.67 150.17 55.82C150.19 55.86 150.22 55.87 150.25 55.9V55.72L150.23 55.26L150.27 54.8V54.61C150.27 54.61 150.2 54.66 150.18 54.7C150.1 54.85 150.06 55.03 150.06 55.26H150.05Z" fill="#4B4B4A"/>
<path d="M151.45 54.39C151.3 54.31 151.13 54.26 150.94 54.26C150.78 54.26 150.63 54.3 150.49 54.37C150.39 54.42 150.33 54.52 150.26 54.61V54.8L150.22 55.26L150.24 55.72V55.9C150.31 56 150.38 56.1 150.48 56.16C150.62 56.23 150.77 56.27 150.94 56.27C151.13 56.27 151.3 56.23 151.45 56.14C151.6 56.06 151.72 55.94 151.8 55.79C151.89 55.64 151.93 55.47 151.93 55.26C151.93 55.05 151.89 54.88 151.8 54.74C151.71 54.59 151.6 54.47 151.45 54.39ZM151.49 55.63C151.43 55.73 151.36 55.82 151.25 55.87C151.15 55.93 151.04 55.96 150.91 55.96C150.78 55.96 150.67 55.93 150.57 55.87C150.47 55.81 150.39 55.73 150.33 55.63C150.27 55.52 150.24 55.41 150.24 55.26C150.24 55.11 150.27 55 150.33 54.9C150.39 54.8 150.47 54.72 150.57 54.66C150.67 54.6 150.78 54.57 150.91 54.57C151.04 54.57 151.15 54.6 151.25 54.66C151.35 54.72 151.43 54.8 151.49 54.9C151.55 55 151.58 55.13 151.58 55.26C151.58 55.39 151.55 55.52 151.49 55.63Z" fill="#4B4B4A"/>
<path d="M141.08 55.96C140.98 55.96 140.9 55.93 140.85 55.87C140.8 55.81 140.77 55.73 140.77 55.62V54.56H140.41V55.64C140.41 55.84 140.46 55.99 140.57 56.1C140.68 56.21 140.83 56.26 141.03 56.26C141.11 56.26 141.19 56.25 141.26 56.23C141.34 56.21 141.4 56.17 141.46 56.13L141.35 55.87C141.28 55.93 141.18 55.96 141.07 55.96H141.08Z" fill="#4B4B4A"/>
<path d="M140.42 54.28H140.08V54.57H140.42V54.28Z" fill="#4B4B4A"/>
<path d="M140.78 53.84H140.42V54.27H140.78V53.84Z" fill="#4B4B4A"/>
<path d="M139.67 55.26C139.6 55.22 139.52 55.2 139.43 55.17C139.34 55.15 139.25 55.13 139.16 55.12C139.07 55.11 138.99 55.09 138.91 55.07C138.84 55.05 138.78 55.02 138.73 54.99C138.69 54.95 138.66 54.9 138.66 54.83C138.66 54.75 138.7 54.69 138.78 54.64C138.86 54.59 138.97 54.56 139.13 54.56C139.23 54.56 139.32 54.56 139.42 54.59C139.52 54.61 139.61 54.65 139.7 54.71L139.85 54.43C139.77 54.37 139.66 54.33 139.52 54.3C139.39 54.27 139.26 54.25 139.13 54.25C138.96 54.25 138.81 54.28 138.69 54.32C138.57 54.37 138.47 54.44 138.41 54.52C138.34 54.61 138.31 54.72 138.31 54.83C138.31 54.94 138.33 55.03 138.38 55.1C138.42 55.17 138.48 55.22 138.56 55.26C138.63 55.3 138.72 55.32 138.81 55.35C138.9 55.37 138.99 55.39 139.08 55.4C139.17 55.41 139.25 55.43 139.32 55.44C139.39 55.46 139.45 55.48 139.5 55.52C139.54 55.55 139.57 55.6 139.57 55.66C139.57 55.74 139.53 55.81 139.46 55.86C139.39 55.91 139.27 55.93 139.1 55.93C138.97 55.93 138.84 55.91 138.72 55.87C138.6 55.83 138.49 55.78 138.41 55.73L138.26 56.01C138.34 56.07 138.46 56.13 138.61 56.17C138.76 56.21 138.92 56.24 139.08 56.24C139.26 56.24 139.41 56.22 139.53 56.17C139.66 56.12 139.75 56.05 139.82 55.97C139.89 55.88 139.92 55.78 139.92 55.66C139.92 55.55 139.9 55.46 139.85 55.39C139.81 55.32 139.75 55.27 139.67 55.23V55.26Z" fill="#4B4B4A"/>
<path d="M141.34 54.28H140.78V54.57H141.34V54.28Z" fill="#4B4B4A"/>
<path d="M135.19 54.99C135.1 54.94 135 54.9 134.88 54.86C134.77 54.83 134.66 54.8 134.55 54.77C134.44 54.74 134.34 54.71 134.24 54.68C134.15 54.65 134.07 54.61 134.01 54.55C133.95 54.5 133.92 54.42 133.92 54.33C133.92 54.25 133.94 54.18 133.98 54.12C134.03 54.06 134.1 54.01 134.19 53.97C134.28 53.93 134.4 53.91 134.55 53.91C134.67 53.91 134.79 53.93 134.91 53.96C135.03 53.99 135.15 54.05 135.26 54.12L135.38 53.82C135.27 53.75 135.14 53.69 135 53.65C134.85 53.61 134.7 53.59 134.55 53.59C134.32 53.59 134.13 53.62 133.99 53.69C133.84 53.76 133.73 53.85 133.66 53.96C133.59 54.07 133.56 54.19 133.56 54.33C133.56 54.47 133.59 54.58 133.65 54.67C133.71 54.76 133.78 54.83 133.87 54.88C133.97 54.93 134.07 54.98 134.18 55.01C134.29 55.04 134.41 55.07 134.52 55.1C134.63 55.13 134.73 55.15 134.82 55.19C134.92 55.22 134.99 55.26 135.05 55.32C135.11 55.38 135.14 55.45 135.14 55.54C135.14 55.62 135.12 55.69 135.07 55.75C135.02 55.81 134.96 55.86 134.86 55.89C134.77 55.92 134.64 55.94 134.49 55.94C134.33 55.94 134.17 55.91 134.01 55.85C133.86 55.79 133.73 55.72 133.63 55.63L133.49 55.92C133.59 56.02 133.74 56.09 133.92 56.16C134.1 56.22 134.29 56.25 134.49 56.25C134.72 56.25 134.91 56.22 135.05 56.15C135.2 56.08 135.31 55.99 135.38 55.88C135.45 55.77 135.49 55.65 135.49 55.51C135.49 55.37 135.46 55.26 135.4 55.18C135.34 55.09 135.27 55.02 135.17 54.97L135.19 54.99Z" fill="#4B4B4A"/>
<path d="M137.47 55.29C137.47 55.43 137.44 55.55 137.4 55.65C137.35 55.75 137.28 55.82 137.19 55.87C137.1 55.92 136.99 55.94 136.87 55.94C136.7 55.94 136.57 55.89 136.48 55.8C136.39 55.7 136.34 55.56 136.34 55.37V54.28H135.98V55.41C135.98 55.6 136.01 55.76 136.08 55.89C136.15 56.02 136.25 56.11 136.38 56.17C136.51 56.23 136.66 56.26 136.83 56.26C136.99 56.26 137.14 56.22 137.26 56.15C137.36 56.09 137.43 56 137.49 55.9V55.7L137.55 55.84C137.55 55.84 137.51 55.88 137.49 55.9V56.23H137.83V54.26H137.47V55.29Z" fill="#4B4B4A"/>
<path d="M137.49 55.91C137.49 55.91 137.53 55.88 137.55 55.85L137.49 55.71V55.91Z" fill="#4B4B4A"/>
<path d="M143.16 55.11H143.1V55.37H143.16V55.11Z" fill="#4B4B4A"/>
<path d="M140.78 54.28H140.42V54.57H140.78V54.28Z" fill="#4B4B4A"/>
<path d="M143.1 55.65V55.75L143.12 55.83V55.95C143.12 55.95 143.17 55.91 143.18 55.89L143.11 55.64L143.1 55.65Z" fill="#4B4B4A"/>
<path d="M144.48 54.28H144.12V56.25H144.48V54.28Z" fill="#4B4B4A"/>
<path d="M142.61 54.26C142.45 54.26 142.3 54.28 142.16 54.33C142.02 54.37 141.9 54.43 141.8 54.52L141.95 54.79C142.03 54.73 142.12 54.67 142.23 54.64C142.34 54.6 142.45 54.58 142.57 54.58C142.75 54.58 142.88 54.62 142.96 54.71C143.05 54.79 143.09 54.91 143.09 55.06V55.13H143.15V55.39H143.09V55.67L143.16 55.92C143.16 55.92 143.12 55.96 143.1 55.98V56.27H143.44V55.08C143.44 54.81 143.37 54.61 143.22 54.48C143.07 54.35 142.87 54.28 142.6 54.28L142.61 54.26Z" fill="#4B4B4A"/>
<path d="M154.68 53.44C154.61 53.44 154.55 53.46 154.51 53.51C154.47 53.55 154.44 53.61 154.44 53.68C154.44 53.75 154.46 53.8 154.51 53.84C154.56 53.88 154.61 53.91 154.68 53.91C154.75 53.91 154.81 53.89 154.85 53.85C154.89 53.8 154.92 53.74 154.92 53.68C154.92 53.62 154.9 53.56 154.85 53.52C154.8 53.48 154.75 53.45 154.68 53.45V53.44Z" fill="#4B4B4A"/>
<path d="M143.1 55.65C143.06 55.76 142.99 55.85 142.89 55.9C142.79 55.96 142.68 55.99 142.54 55.99C142.4 55.99 142.3 55.96 142.22 55.9C142.14 55.84 142.1 55.76 142.1 55.67C142.1 55.59 142.13 55.51 142.19 55.45C142.25 55.39 142.37 55.36 142.55 55.36H143.09V55.1H142.53C142.33 55.1 142.18 55.13 142.06 55.18C141.95 55.23 141.86 55.3 141.81 55.39C141.76 55.48 141.74 55.57 141.74 55.68C141.74 55.79 141.77 55.89 141.83 55.98C141.89 56.07 141.97 56.14 142.08 56.18C142.19 56.23 142.32 56.25 142.46 56.25C142.64 56.25 142.79 56.22 142.91 56.15C143 56.1 143.05 56.02 143.1 55.93V55.81L143.08 55.73V55.63L143.1 55.65Z" fill="#4B4B4A"/>
<path d="M144.3 53.44C144.23 53.44 144.17 53.46 144.13 53.51C144.09 53.55 144.06 53.61 144.06 53.68C144.06 53.75 144.08 53.8 144.13 53.84C144.18 53.88 144.23 53.91 144.3 53.91C144.37 53.91 144.43 53.89 144.47 53.85C144.51 53.8 144.54 53.74 144.54 53.68C144.54 53.62 144.52 53.56 144.47 53.52C144.42 53.48 144.37 53.45 144.3 53.45V53.44Z" fill="#4B4B4A"/>
<path d="M171.64 54.62V54.82L171.66 55.21L171.62 55.6V55.82C171.62 55.82 171.68 55.78 171.7 55.74C171.78 55.6 171.83 55.42 171.83 55.21C171.83 55 171.79 54.82 171.7 54.68C171.69 54.65 171.66 54.65 171.64 54.62Z" fill="#4B4B4A"/>
<path d="M165.97 54.28H165.41V54.57H165.97V54.28Z" fill="#4B4B4A"/>
<path d="M165.41 54.28H165.05V54.57H165.41V54.28Z" fill="#4B4B4A"/>
<path d="M165.41 53.85H165.05V54.28H165.41V53.85Z" fill="#4B4B4A"/>
<path d="M163.49 54.26C163.33 54.26 163.18 54.28 163.04 54.33C162.9 54.37 162.78 54.43 162.68 54.52L162.83 54.79C162.91 54.73 163 54.67 163.11 54.64C163.22 54.6 163.33 54.58 163.45 54.58C163.63 54.58 163.76 54.62 163.84 54.71C163.93 54.79 163.97 54.91 163.97 55.06V55.13H164.03V55.39H163.97V55.67L164.04 55.92C164.04 55.92 164 55.96 163.98 55.98V56.27H164.32V55.08C164.32 54.81 164.25 54.61 164.1 54.48C163.95 54.35 163.75 54.28 163.48 54.28L163.49 54.26Z" fill="#4B4B4A"/>
<path d="M163.98 55.65V55.75L164 55.83V55.95C164 55.95 164.05 55.91 164.06 55.89L163.99 55.64L163.98 55.65Z" fill="#4B4B4A"/>
<path d="M165.72 55.97C165.62 55.97 165.55 55.94 165.49 55.88C165.44 55.82 165.41 55.74 165.41 55.63V54.57H165.05V55.65C165.05 55.85 165.1 56 165.21 56.11C165.32 56.22 165.47 56.27 165.67 56.27C165.75 56.27 165.83 56.26 165.9 56.24C165.98 56.22 166.04 56.18 166.1 56.14L165.99 55.88C165.92 55.94 165.82 55.97 165.71 55.97H165.72Z" fill="#4B4B4A"/>
<path d="M165.05 54.28H164.71V54.57H165.05V54.28Z" fill="#4B4B4A"/>
<path d="M171.64 54.62C171.64 54.62 171.69 54.65 171.7 54.68C171.78 54.82 171.83 55 171.83 55.21C171.83 55.42 171.79 55.6 171.7 55.74C171.68 55.77 171.64 55.79 171.62 55.82V56.02C171.62 56.24 171.57 56.41 171.46 56.52C171.35 56.63 171.18 56.68 170.95 56.68C170.8 56.68 170.66 56.66 170.53 56.61C170.4 56.57 170.28 56.5 170.19 56.42L170.02 56.69C170.13 56.79 170.27 56.86 170.43 56.91C170.6 56.96 170.78 56.99 170.96 56.99C171.29 56.99 171.55 56.91 171.72 56.75C171.89 56.59 171.98 56.33 171.98 55.98V54.28H171.64V54.62Z" fill="#4B4B4A"/>
<path d="M166.89 54.28H166.53V56.25H166.89V54.28Z" fill="#4B4B4A"/>
<path d="M169.04 54.36C168.92 54.3 168.78 54.27 168.62 54.27C168.44 54.27 168.29 54.3 168.15 54.38C168.04 54.44 167.97 54.53 167.91 54.62V54.82L167.85 54.68C167.85 54.68 167.89 54.65 167.91 54.62V54.29H167.57V56.26H167.93V55.25C167.93 55.11 167.96 54.99 168 54.89C168.05 54.79 168.13 54.72 168.22 54.67C168.31 54.62 168.42 54.6 168.55 54.6C168.72 54.6 168.85 54.65 168.94 54.74C169.04 54.84 169.08 54.98 169.08 55.17V56.26H169.44V55.13C169.44 54.94 169.41 54.78 169.34 54.65C169.27 54.52 169.17 54.43 169.05 54.37L169.04 54.36Z" fill="#4B4B4A"/>
<path d="M163.98 55.65C163.94 55.76 163.87 55.85 163.77 55.9C163.67 55.96 163.56 55.99 163.42 55.99C163.28 55.99 163.18 55.96 163.1 55.9C163.02 55.84 162.98 55.76 162.98 55.67C162.98 55.59 163.01 55.51 163.07 55.45C163.13 55.39 163.25 55.36 163.43 55.36H163.97V55.1H163.41C163.21 55.1 163.06 55.13 162.94 55.18C162.83 55.23 162.74 55.3 162.69 55.39C162.64 55.48 162.62 55.57 162.62 55.68C162.62 55.79 162.65 55.89 162.71 55.98C162.77 56.07 162.85 56.14 162.96 56.18C163.07 56.23 163.2 56.25 163.34 56.25C163.52 56.25 163.67 56.22 163.79 56.15C163.88 56.1 163.93 56.02 163.98 55.93V55.81L163.96 55.73V55.63L163.98 55.65Z" fill="#4B4B4A"/>
<path d="M171.64 54.62C171.57 54.52 171.48 54.42 171.37 54.37C171.23 54.3 171.08 54.27 170.91 54.27C170.72 54.27 170.55 54.31 170.4 54.39C170.25 54.47 170.13 54.58 170.04 54.72C169.95 54.86 169.91 55.03 169.91 55.22C169.91 55.41 169.95 55.57 170.04 55.72C170.13 55.86 170.25 55.98 170.4 56.06C170.55 56.14 170.72 56.18 170.91 56.18C171.08 56.18 171.23 56.15 171.37 56.08C171.47 56.03 171.55 55.93 171.62 55.84V55.62L171.66 55.23L171.64 54.84V54.62ZM171.54 55.55C171.48 55.65 171.41 55.72 171.3 55.78C171.2 55.83 171.08 55.86 170.95 55.86C170.82 55.86 170.7 55.83 170.6 55.78C170.5 55.72 170.42 55.65 170.36 55.55C170.3 55.45 170.27 55.34 170.27 55.22C170.27 55.1 170.3 54.98 170.36 54.89C170.42 54.79 170.5 54.72 170.6 54.67C170.7 54.62 170.82 54.59 170.95 54.59C171.08 54.59 171.2 54.62 171.3 54.67C171.4 54.72 171.48 54.8 171.54 54.89C171.6 54.98 171.63 55.1 171.63 55.22C171.63 55.34 171.6 55.46 171.54 55.55Z" fill="#4B4B4A"/>
<path d="M166.71 53.44C166.64 53.44 166.58 53.46 166.54 53.51C166.5 53.55 166.47 53.61 166.47 53.68C166.47 53.75 166.49 53.8 166.54 53.84C166.59 53.88 166.64 53.91 166.71 53.91C166.78 53.91 166.84 53.89 166.88 53.85C166.92 53.8 166.95 53.74 166.95 53.68C166.95 53.62 166.93 53.56 166.88 53.52C166.83 53.48 166.78 53.45 166.71 53.45V53.44Z" fill="#4B4B4A"/>
<path d="M167.91 54.81V54.61C167.91 54.61 167.87 54.64 167.85 54.67L167.91 54.81Z" fill="#4B4B4A"/>
<path d="M161.75 53.76C161.59 53.69 161.4 53.65 161.17 53.65H160.16V56.24H160.53V55.45H160.36L160.51 55.3L160.36 55.14H160.53V53.97H160.36L160.53 53.78V53.97H161.16C161.4 53.97 161.58 54.02 161.7 54.12C161.82 54.22 161.89 54.37 161.89 54.55C161.89 54.73 161.83 54.88 161.7 54.98C161.58 55.08 161.4 55.13 161.16 55.13H160.53V55.44H161.17C161.23 55.44 161.27 55.42 161.32 55.41L161.23 55.29H161.63L161.67 55.35C161.67 55.35 161.73 55.35 161.75 55.34C161.91 55.27 162.04 55.17 162.12 55.03C162.21 54.89 162.25 54.73 162.25 54.54C162.25 54.35 162.21 54.19 162.12 54.05C162.03 53.92 161.91 53.81 161.75 53.74V53.76Z" fill="#4B4B4A"/>
<path d="M156.69 54.28L157.56 56.24L157.62 56.11L157.66 56.06L157.75 55.85L157.06 54.28H156.69Z" fill="#4B4B4A"/>
<path d="M156.25 55.97C156.15 55.97 156.07 55.94 156.02 55.88C155.97 55.82 155.94 55.74 155.94 55.63V54.57H155.58V55.65C155.58 55.85 155.63 56 155.74 56.11C155.85 56.22 156 56.27 156.2 56.27C156.28 56.27 156.36 56.26 156.43 56.24C156.51 56.22 156.57 56.18 156.63 56.14L156.52 55.88C156.45 55.94 156.35 55.97 156.24 55.97H156.25Z" fill="#4B4B4A"/>
<path d="M157.66 56.06L157.62 56.11L157.56 56.24L157.59 56.31L157.83 56.03L157.75 55.85L157.66 56.06Z" fill="#4B4B4A"/>
<path d="M164.04 55.11H163.98V55.37H164.04V55.11Z" fill="#4B4B4A"/>
<path d="M157.75 55.85L157.83 56.03L157.59 56.31L157.56 56.24L157.5 56.38C157.45 56.49 157.4 56.57 157.34 56.62C157.28 56.66 157.21 56.69 157.12 56.69C157.05 56.69 156.99 56.68 156.93 56.65C156.87 56.63 156.82 56.59 156.77 56.54L156.62 56.81C156.68 56.87 156.76 56.91 156.85 56.94C156.94 56.97 157.03 56.99 157.12 56.99C157.22 56.99 157.31 56.97 157.4 56.94C157.48 56.91 157.56 56.85 157.63 56.77C157.7 56.69 157.77 56.58 157.82 56.44L158.77 54.28H158.42L157.74 55.85H157.75Z" fill="#4B4B4A"/>
<path d="M155.95 53.85H155.59V54.28H155.95V53.85Z" fill="#4B4B4A"/>
<path d="M156.51 54.28H155.95V54.57H156.51V54.28Z" fill="#4B4B4A"/>
<path d="M155.95 54.28H155.59V54.57H155.95V54.28Z" fill="#4B4B4A"/>
<path d="M161.23 55.31L161.32 55.43C161.45 55.42 161.57 55.4 161.67 55.37L161.63 55.31H161.23Z" fill="#4B4B4A"/>
<path d="M161.32 55.43L161.89 56.25H162.29L161.66 55.37C161.56 55.41 161.44 55.42 161.31 55.43H161.32Z" fill="#4B4B4A"/>
<path d="M160.52 53.97V53.79L160.36 53.97H160.52Z" fill="#4B4B4A"/>
<path d="M155.59 54.28H155.25V54.57H155.59V54.28Z" fill="#4B4B4A"/>
<path d="M160.36 55.46H160.52V55.32L160.51 55.3L160.36 55.46Z" fill="#4B4B4A"/>
<path d="M160.51 55.3L160.52 55.28V55.14H160.36L160.51 55.3Z" fill="#4B4B4A"/>
<path d="M160.52 55.32V55.28L160.51 55.3L160.52 55.32Z" fill="#4B4B4A"/>
<path d="M132.65 41.78C130.89 41.78 129.67 43.1 129.67 44.88C129.67 46.66 130.99 47.98 132.8 47.98C133.87 47.98 134.56 47.65 134.97 47.32C135.06 47.25 135.1 47.11 135.03 47.01L134.71 46.46C134.66 46.32 134.55 46.32 134.44 46.41C134.01 46.74 133.5 46.91 132.96 46.91C131.95 46.93 131.06 46.24 130.93 45.26H135.23C135.36 45.26 135.43 45.17 135.45 45.04V44.84C135.45 43.06 134.33 41.79 132.67 41.79L132.65 41.78ZM134.24 44.34H130.93C131.11 43.42 131.78 42.84 132.69 42.84C133.52 42.84 134.16 43.45 134.25 44.33V44.35L134.24 44.34Z" fill="#4B4B4A"/>
<path d="M169.87 41.88H169.02C168.89 41.88 168.82 41.97 168.82 42.1L168.8 47.64C168.8 47.8 168.87 47.86 169.02 47.86H169.87C170 47.86 170.07 47.77 170.07 47.64V42.1C170.07 41.96 170 41.88 169.87 41.88Z" fill="#4B4B4A"/>
<path d="M169.87 39.46H169.02C168.89 39.46 168.82 39.55 168.82 39.68L168.8 40.58C168.8 40.72 168.87 40.79 169.02 40.8H169.87C170 40.8 170.07 40.71 170.07 40.58V39.68C170.07 39.54 170 39.46 169.87 39.46Z" fill="#4B4B4A"/>
<path d="M173.87 44.33C172.89 44.07 172.53 43.92 172.53 43.53C172.53 43.08 172.91 42.89 173.47 42.89C174.03 42.89 174.57 43.05 175.04 43.32C175.06 43.34 175.08 43.35 175.1 43.35C175.19 43.38 175.3 43.33 175.33 43.25L175.64 42.64C175.64 42.64 175.66 42.62 175.66 42.61C175.72 42.51 175.68 42.38 175.57 42.33C174.94 41.97 174.23 41.78 173.51 41.79C172.14 41.79 171.23 42.5 171.23 43.56C171.23 44.62 172.15 45.08 173.29 45.36C174.21 45.6 174.52 45.81 174.52 46.22C174.52 46.67 174.12 46.91 173.49 46.91C172.86 46.91 172.24 46.72 171.72 46.37C171.7 46.35 171.68 46.34 171.66 46.34C171.57 46.31 171.46 46.36 171.43 46.44L171.09 47.05C171.02 47.17 171.03 47.27 171.16 47.34C171.85 47.75 172.63 47.96 173.44 48.01C174.92 48.01 175.83 47.28 175.83 46.17C175.83 45.06 175.1 44.63 173.88 44.3L173.87 44.33Z" fill="#4B4B4A"/>
<path d="M139.45 42.97C139.88 42.95 140.28 43.08 140.64 43.28C140.66 43.3 140.68 43.31 140.7 43.31C140.79 43.34 140.9 43.29 140.93 43.21L141.25 42.62C141.32 42.52 141.29 42.36 141.18 42.29C140.62 41.93 139.97 41.75 139.3 41.77C137.53 41.77 136.15 43.12 136.15 44.88C136.15 46.63 137.45 47.98 139.3 47.98C139.97 48 140.62 47.82 141.16 47.48C141.27 47.41 141.3 47.29 141.23 47.19L140.89 46.57C140.84 46.47 140.75 46.43 140.62 46.52C140.26 46.73 139.82 46.83 139.39 46.81C138.25 46.81 137.44 46.03 137.44 44.91C137.44 43.79 138.26 42.97 139.45 42.97Z" fill="#4B4B4A"/>
<path d="M144.82 41.78C143.12 41.78 141.73 43.11 141.73 44.9C141.73 46.67 143.14 48 144.82 48C146.5 48 147.89 46.68 147.89 44.9C147.89 43.12 146.52 41.78 144.82 41.78ZM144.8 46.79C143.81 46.79 142.99 45.98 142.99 44.89C142.99 43.8 143.8 42.95 144.8 42.95C145.8 42.95 146.61 43.8 146.61 44.89C146.61 45.98 145.8 46.79 144.8 46.79Z" fill="#4B4B4A"/>
<path d="M160.18 41.9H159.44C159.33 41.9 159.24 42 159.24 42.11L159.2 42.7C158.69 42.09 157.93 41.77 157.14 41.78C155.57 41.78 154.34 43.09 154.34 44.88C154.34 46.67 155.55 47.98 157.14 47.98C157.99 48 158.78 47.6 159.25 46.92L159.29 47.66V47.68C159.29 47.78 159.38 47.87 159.49 47.87H160.18C160.33 47.87 160.4 47.78 160.4 47.65V42.11C160.4 41.97 160.31 41.9 160.18 41.9ZM157.39 46.8C156.4 46.8 155.6 45.99 155.6 44.88C155.6 43.77 156.4 42.96 157.39 42.96C158.48 42.96 159.18 43.77 159.2 44.88C159.2 45.99 158.46 46.8 157.39 46.8Z" fill="#4B4B4A"/>
<path d="M167.23 39.48H166.38C166.27 39.5 166.18 39.6 166.2 39.7V42.76C165.73 42.15 164.97 41.79 164.17 41.81C162.58 41.81 161.39 43.13 161.39 44.91C161.39 46.69 162.62 48.01 164.21 48.01C165.06 48.03 165.85 47.63 166.34 46.95L166.38 47.68V47.71C166.38 47.81 166.49 47.88 166.6 47.88H167.27C167.38 47.86 167.47 47.76 167.45 47.66V39.68C167.45 39.68 167.45 39.65 167.45 39.67C167.45 39.57 167.34 39.48 167.23 39.48ZM164.44 46.8C163.45 46.8 162.65 45.99 162.65 44.88C162.65 43.77 163.45 42.96 164.44 42.96C165.53 42.96 166.25 43.77 166.25 44.88C166.25 45.99 165.51 46.8 164.44 46.8Z" fill="#4B4B4A"/>
<path d="M148.24 41.9C148.09 41.9 148.02 42 148.09 42.16L148.58 43.25C148.78 43.75 149.28 44.08 149.85 44.1H150.27L149.42 42.06C149.38 41.96 149.29 41.89 149.19 41.9H148.24Z" fill="#3DB54A"/>
<path d="M153.95 41.91H153.06C152.95 41.91 152.84 41.98 152.81 42.08L151.15 46.23L150.93 45.71C150.73 45.21 150.24 44.88 149.68 44.86H149.27L150.54 47.75C150.58 47.85 150.67 47.92 150.77 47.91H151.42C151.53 47.93 151.64 47.86 151.65 47.75L154.09 42.17C154.16 42.02 154.09 41.9 153.94 41.9L153.95 41.91Z" fill="#4B4B4A"/>
<path d="M177.85 30.41C177.78 30.25 177.78 30.07 177.85 29.91L179.82 25.77C180 25.39 179.72 24.94 179.3 24.94H128.04C127.82 24.94 127.62 25.06 127.52 25.26L122.78 34.53C122.58 34.91 122.86 35.37 123.3 35.37H179.3C179.73 35.37 180.01 34.93 179.82 34.54L177.85 30.4V30.41Z" fill="url(#paint2_linear_17_2054)"/>
<path d="M135.31 30.95L135.96 31.9H136.81L136.05 30.81C135.84 30.9 135.59 30.95 135.3 30.95H135.31Z" fill="#4B4B4A"/>
<path d="M143.83 30.56L144.14 30.94H143.83V30.56L142.13 28.49H141.48V31.9H142.26V29.83L141.94 29.45H142.26V29.83L143.96 31.9H144.61V28.49H143.83V30.56Z" fill="#4B4B4A"/>
<path d="M142.26 29.83V29.45H141.94L142.26 29.83Z" fill="#4B4B4A"/>
<path d="M135.11 30.66L135.31 30.95C135.59 30.95 135.85 30.9 136.06 30.81L135.96 30.67H135.12L135.11 30.66Z" fill="#4B4B4A"/>
<path d="M143.83 30.94H144.14L143.83 30.56V30.94Z" fill="#4B4B4A"/>
<path d="M170.93 29.92C170.72 29.82 170.45 29.78 170.12 29.78H169.84L169.81 30.14L169.4 29.78H169.84L169.9 29.13H169.52L169.93 28.77L169.9 29.13H171.32V28.5H169.24L169.06 30.42H169.93C170.14 30.42 170.3 30.44 170.41 30.47C170.53 30.5 170.61 30.56 170.65 30.63C170.69 30.7 170.72 30.78 170.72 30.86C170.72 31 170.66 31.11 170.55 31.19C170.44 31.27 170.28 31.31 170.08 31.31C169.9 31.31 169.73 31.28 169.56 31.23C169.39 31.17 169.24 31.1 169.11 31.01L168.8 31.61C168.96 31.73 169.16 31.82 169.39 31.88C169.62 31.94 169.86 31.97 170.09 31.97C170.41 31.97 170.68 31.93 170.89 31.82C171.1 31.71 171.26 31.57 171.36 31.4C171.46 31.23 171.51 31.04 171.51 30.84C171.51 30.64 171.46 30.46 171.37 30.3C171.28 30.14 171.13 30.01 170.92 29.92H170.93Z" fill="#4B4B4A"/>
<path d="M136.06 28.64C135.84 28.54 135.58 28.49 135.27 28.49H133.8V31.9H134.59V30.95H134.24L134.55 30.64L134.24 30.31H134.59V29.12H134.24L134.59 28.74V29.12H135.23C135.47 29.12 135.65 29.17 135.77 29.28C135.89 29.38 135.95 29.53 135.95 29.72C135.95 29.91 135.89 30.05 135.77 30.16C135.65 30.26 135.47 30.32 135.23 30.32H134.59V30.95H135.28C135.28 30.95 135.31 30.95 135.32 30.95L135.12 30.66H135.96L136.06 30.8C136.28 30.7 136.45 30.56 136.57 30.38C136.69 30.19 136.75 29.98 136.75 29.72C136.75 29.46 136.69 29.24 136.57 29.06C136.45 28.87 136.28 28.73 136.06 28.64Z" fill="#4B4B4A"/>
<path d="M140.35 28.93C140.19 28.77 139.99 28.65 139.76 28.56C139.54 28.47 139.29 28.43 139.02 28.43C138.75 28.43 138.51 28.47 138.28 28.56C138.05 28.65 137.86 28.77 137.69 28.93C137.52 29.09 137.39 29.28 137.3 29.49C137.21 29.7 137.16 29.94 137.16 30.19C137.16 30.44 137.21 30.68 137.3 30.89C137.4 31.1 137.52 31.29 137.69 31.45C137.86 31.61 138.06 31.73 138.28 31.82C138.51 31.91 138.76 31.95 139.03 31.95C139.3 31.95 139.54 31.91 139.76 31.82C139.99 31.73 140.18 31.61 140.35 31.46C140.52 31.3 140.65 31.11 140.74 30.9C140.84 30.68 140.88 30.45 140.88 30.2C140.88 29.95 140.83 29.71 140.74 29.5C140.64 29.28 140.52 29.1 140.35 28.94V28.93ZM140.01 30.63C139.96 30.76 139.88 30.88 139.79 30.98C139.69 31.08 139.58 31.15 139.45 31.2C139.32 31.25 139.18 31.28 139.03 31.28C138.88 31.28 138.74 31.25 138.61 31.2C138.48 31.15 138.37 31.07 138.27 30.98C138.17 30.88 138.1 30.77 138.05 30.63C138 30.49 137.97 30.35 137.97 30.19C137.97 30.03 138 29.88 138.05 29.75C138.11 29.62 138.18 29.5 138.28 29.4C138.38 29.3 138.49 29.23 138.62 29.18C138.75 29.13 138.89 29.1 139.04 29.1C139.19 29.1 139.33 29.13 139.46 29.18C139.59 29.23 139.7 29.31 139.8 29.4C139.9 29.5 139.97 29.61 140.02 29.75C140.08 29.88 140.1 30.03 140.1 30.19C140.1 30.35 140.07 30.5 140.02 30.63H140.01Z" fill="#4B4B4A"/>
<path d="M175.33 30.18C175.2 30.1 175.05 30.06 174.89 30.06C174.73 30.06 174.58 30.1 174.45 30.18C174.32 30.26 174.23 30.37 174.15 30.51C174.08 30.65 174.04 30.82 174.04 31.01C174.04 31.2 174.07 31.37 174.15 31.51C174.22 31.65 174.32 31.76 174.45 31.84C174.58 31.91 174.73 31.95 174.89 31.95C175.05 31.95 175.21 31.91 175.33 31.84C175.46 31.76 175.55 31.65 175.63 31.51C175.7 31.37 175.74 31.2 175.74 31.01C175.74 30.82 175.71 30.65 175.63 30.51C175.56 30.37 175.46 30.26 175.33 30.18ZM175.15 31.41C175.09 31.5 175 31.54 174.89 31.54C174.78 31.54 174.7 31.5 174.63 31.41C174.57 31.32 174.53 31.18 174.53 31C174.53 30.82 174.56 30.68 174.63 30.6C174.7 30.51 174.78 30.46 174.89 30.46C175 30.46 175.08 30.51 175.15 30.6C175.21 30.69 175.25 30.82 175.25 31C175.25 31.18 175.22 31.32 175.15 31.41Z" fill="#4B4B4A"/>
<path d="M146 31.54L146.24 31.26H145.9L146 31.54Z" fill="#4B4B4A"/>
<path d="M130.86 29.89H130.8V30.46H130.86V29.89Z" fill="#4B4B4A"/>
<path d="M132.01 30.25C132.21 30.25 132.39 30.22 132.54 30.14C132.54 30.14 132.54 30.14 132.55 30.14C132.41 30.1 132.27 30.06 132.11 30.06L132.02 30.26L132.01 30.25Z" fill="#4B4B4A"/>
<path d="M132.67 30.16C132.67 30.16 132.58 30.15 132.54 30.14C132.54 30.14 132.54 30.14 132.53 30.14C132.38 30.21 132.2 30.25 132 30.25L132.09 30.05C132.26 30.05 132.4 30.09 132.53 30.13C132.67 30.06 132.79 29.96 132.88 29.84C132.97 29.71 133.01 29.55 133.01 29.37C133.01 29.1 132.9 28.89 132.68 28.73C132.46 28.57 132.14 28.49 131.72 28.49H130.06V31.9H131.82C132.27 31.9 132.61 31.82 132.84 31.66C133.07 31.5 133.19 31.27 133.19 30.97C133.19 30.77 133.14 30.61 133.05 30.47C132.96 30.34 132.83 30.23 132.67 30.16ZM132.24 31.21C132.14 31.27 131.98 31.31 131.78 31.31H130.86V30.47H130.8V29.9H130.86V29.1H131.64C131.83 29.1 131.98 29.13 132.08 29.2C132.18 29.26 132.24 29.36 132.24 29.5C132.24 29.64 132.19 29.74 132.08 29.81C131.98 29.87 131.83 29.91 131.64 29.91H130.86V30.48H131.78C131.99 30.48 132.14 30.51 132.24 30.59C132.35 30.66 132.4 30.76 132.4 30.91C132.4 31.06 132.35 31.17 132.24 31.23V31.21Z" fill="#4B4B4A"/>
<path d="M134.58 29.13V28.76L134.23 29.13H134.58Z" fill="#4B4B4A"/>
<path d="M134.58 30.69V30.61L134.54 30.65L134.58 30.69Z" fill="#4B4B4A"/>
<path d="M134.23 30.95H134.58V30.69L134.54 30.65L134.23 30.95Z" fill="#4B4B4A"/>
<path d="M134.54 30.65L134.58 30.61V30.69V30.32H134.23L134.54 30.65Z" fill="#4B4B4A"/>
<path d="M172.28 31.9H172.86L175.19 28.49H174.61L172.28 31.9Z" fill="#4B4B4A"/>
<path d="M163.78 29.46C163.59 29.35 163.36 29.3 163.11 29.3C162.89 29.3 162.69 29.35 162.51 29.45C162.38 29.52 162.28 29.63 162.19 29.75V30.02L162.16 30.62L162.21 31.22V31.5C162.3 31.62 162.4 31.72 162.52 31.79C162.7 31.89 162.9 31.94 163.11 31.94C163.36 31.94 163.59 31.88 163.78 31.77C163.97 31.66 164.13 31.5 164.24 31.31C164.36 31.11 164.41 30.88 164.41 30.62C164.41 30.36 164.35 30.13 164.24 29.93C164.13 29.73 163.97 29.58 163.78 29.47V29.46ZM163.82 31.09C163.75 31.22 163.64 31.33 163.51 31.41C163.38 31.48 163.23 31.52 163.07 31.52C162.91 31.52 162.76 31.48 162.63 31.41C162.5 31.34 162.4 31.23 162.32 31.09C162.25 30.95 162.21 30.79 162.21 30.61C162.21 30.43 162.25 30.26 162.32 30.13C162.4 30 162.5 29.89 162.63 29.81C162.76 29.74 162.91 29.7 163.07 29.7C163.23 29.7 163.38 29.74 163.51 29.81C163.64 29.88 163.75 29.99 163.82 30.13C163.9 30.26 163.94 30.42 163.94 30.61C163.94 30.8 163.9 30.95 163.82 31.09Z" fill="#4B4B4A"/>
<path d="M167.13 29.85L167.53 30.08L167.69 29.89C167.58 29.87 167.48 29.85 167.36 29.85H167.13Z" fill="#4B4B4A"/>
<path d="M162.18 30.02V29.75C162.18 29.75 162.11 29.83 162.08 29.89C161.98 30.08 161.93 30.33 161.93 30.62C161.93 30.91 161.98 31.16 162.09 31.35C162.12 31.41 162.16 31.45 162.2 31.5V31.22L162.15 30.62L162.18 30.02Z" fill="#4B4B4A"/>
<path d="M161.93 30.61C161.93 30.32 161.98 30.07 162.08 29.88C162.11 29.83 162.14 29.79 162.18 29.74V29.32H161.73V32.84H162.2V31.49C162.2 31.49 162.12 31.39 162.09 31.34C161.99 31.15 161.93 30.9 161.93 30.61Z" fill="#4B4B4A"/>
<path d="M169.8 30.14L169.83 29.78H169.4L169.8 30.14Z" fill="#4B4B4A"/>
<path d="M167.54 29.13H167.87L167.79 28.85L167.54 29.13Z" fill="#4B4B4A"/>
<path d="M169.89 29.13L169.92 28.77L169.52 29.13H169.89Z" fill="#4B4B4A"/>
<path d="M167.69 29.9L167.53 30.09L167.13 29.86H167.36C167.49 29.86 167.59 29.89 167.69 29.9L168.47 29.01V28.5H166.08V29.13H167.53L167.78 28.85L167.87 29.13H167.53L166.83 29.92V30.44H167.19C167.41 30.44 167.58 30.48 167.68 30.55C167.78 30.62 167.83 30.72 167.83 30.86C167.83 31 167.77 31.11 167.66 31.18C167.55 31.26 167.39 31.3 167.19 31.3C167.01 31.3 166.84 31.27 166.67 31.22C166.5 31.16 166.35 31.09 166.22 31L165.91 31.6C166.07 31.72 166.27 31.81 166.5 31.87C166.73 31.93 166.97 31.96 167.2 31.96C167.52 31.96 167.79 31.91 168 31.81C168.21 31.71 168.36 31.57 168.46 31.41C168.56 31.24 168.61 31.06 168.61 30.87C168.61 30.58 168.5 30.33 168.29 30.14C168.14 30.01 167.92 29.94 167.67 29.9H167.69Z" fill="#4B4B4A"/>
<path d="M146 31.54L145.9 31.26H146.24L148.1 29V28.49H145.23V29.13H147.06L147.3 28.85L147.4 29.13H147.06L145.2 31.39V31.9H148.17V31.26H146.24L146 31.54Z" fill="#4B4B4A"/>
<path d="M151.04 29.86H149.46V30.47H151.04V29.86Z" fill="#4B4B4A"/>
<path d="M149.46 30.48H149.41V29.86H149.46V29.12H151.26V28.49H148.68V31.9H151.32V31.27H149.46V30.48Z" fill="#4B4B4A"/>
<path d="M149.47 29.86H149.41V30.47H149.47V29.86Z" fill="#4B4B4A"/>
<path d="M147.06 29.13H147.4L147.3 28.85L147.06 29.13Z" fill="#4B4B4A"/>
<path d="M173.02 28.57C172.89 28.49 172.75 28.45 172.58 28.45C172.41 28.45 172.27 28.49 172.14 28.57C172.01 28.65 171.91 28.76 171.84 28.9C171.77 29.04 171.73 29.21 171.73 29.4C171.73 29.59 171.76 29.76 171.84 29.9C171.91 30.04 172.01 30.15 172.14 30.23C172.27 30.3 172.41 30.34 172.58 30.34C172.75 30.34 172.89 30.3 173.02 30.23C173.15 30.15 173.24 30.04 173.32 29.9C173.39 29.76 173.43 29.59 173.43 29.4C173.43 29.21 173.4 29.04 173.32 28.9C173.25 28.76 173.15 28.65 173.02 28.57ZM172.84 29.8C172.78 29.89 172.69 29.93 172.58 29.93C172.47 29.93 172.39 29.88 172.32 29.79C172.26 29.7 172.22 29.57 172.22 29.39C172.22 29.21 172.25 29.07 172.32 28.99C172.39 28.9 172.47 28.85 172.58 28.85C172.69 28.85 172.77 28.9 172.84 28.99C172.9 29.08 172.94 29.21 172.94 29.39C172.94 29.57 172.91 29.71 172.84 29.8Z" fill="#4B4B4A"/>
<path d="M160.44 29.46C160.24 29.34 160.01 29.29 159.75 29.29C159.49 29.29 159.26 29.35 159.06 29.46C158.86 29.57 158.7 29.73 158.58 29.92C158.46 30.12 158.4 30.35 158.4 30.6C158.4 30.85 158.46 31.08 158.58 31.28C158.7 31.48 158.86 31.63 159.06 31.75C159.26 31.87 159.49 31.92 159.75 31.92C160.01 31.92 160.23 31.86 160.44 31.75C160.64 31.64 160.8 31.48 160.92 31.28C161.04 31.08 161.1 30.86 161.1 30.6C161.1 30.34 161.04 30.11 160.92 29.92C160.81 29.72 160.65 29.57 160.44 29.46ZM160.5 31.09C160.43 31.22 160.32 31.33 160.19 31.41C160.06 31.48 159.91 31.52 159.75 31.52C159.59 31.52 159.44 31.48 159.31 31.41C159.18 31.34 159.08 31.23 159 31.09C158.92 30.95 158.88 30.79 158.88 30.61C158.88 30.43 158.92 30.26 159 30.13C159.08 30 159.18 29.89 159.31 29.81C159.44 29.74 159.59 29.7 159.75 29.7C159.91 29.7 160.06 29.74 160.19 29.81C160.32 29.88 160.43 29.99 160.5 30.13C160.57 30.26 160.61 30.42 160.61 30.61C160.61 30.8 160.57 30.95 160.5 31.09Z" fill="#4B4B4A"/>
<path d="M155.63 28.91H156.8V31.9H157.28V28.91H158.45V28.49H155.63V28.91Z" fill="#4B4B4A"/>
<path d="M153.79 28.28H153.36V32.84H153.79V28.28Z" fill="#4B4B4A"/>
<path d="M149.947 64.77H148.775L152.166 55.5339H153.321L156.712 64.77H155.539L152.779 56.9951H152.707L149.947 64.77ZM150.38 61.1622H155.106V62.1543H150.38V61.1622Z" fill="#4B4B4A"/>
<path d="M158.151 64.77V55.5339H161.271C161.996 55.5339 162.588 55.6647 163.048 55.9263C163.511 56.1848 163.854 56.5351 164.076 56.9771C164.299 57.419 164.41 57.9121 164.41 58.4563C164.41 59.0005 164.299 59.495 164.076 59.94C163.857 60.385 163.517 60.7397 163.057 61.0043C162.597 61.2659 162.008 61.3967 161.289 61.3967H159.053V60.4045H161.253C161.749 60.4045 162.148 60.3188 162.448 60.1475C162.749 59.9761 162.967 59.7446 163.102 59.4529C163.241 59.1583 163.31 58.8261 163.31 58.4563C163.31 58.0865 163.241 57.7558 163.102 57.4641C162.967 57.1725 162.748 56.944 162.444 56.7786C162.14 56.6103 161.737 56.5261 161.235 56.5261H159.269V64.77H158.151Z" fill="#4B4B4A"/>
<path d="M166.212 64.77V55.5339H169.333C170.054 55.5339 170.646 55.6572 171.109 55.9037C171.573 56.1473 171.915 56.4825 172.138 56.9094C172.36 57.3363 172.471 57.8219 172.471 58.3661C172.471 58.9103 172.36 59.3928 172.138 59.8137C171.915 60.2346 171.574 60.5654 171.114 60.8059C170.654 61.0434 170.066 61.1622 169.351 61.1622H166.825V60.152H169.315C169.808 60.152 170.205 60.0798 170.505 59.9355C170.809 59.7912 171.028 59.5867 171.164 59.3222C171.302 59.0546 171.371 58.7359 171.371 58.3661C171.371 57.9963 171.302 57.6731 171.164 57.3965C171.025 57.1199 170.804 56.9064 170.501 56.7561C170.197 56.6027 169.796 56.5261 169.297 56.5261H167.33V64.77H166.212ZM170.559 60.621L172.832 64.77H171.533L169.297 60.621H170.559Z" fill="#4B4B4A"/>
<path d="M177.745 64.77V63.9582L180.793 60.621C181.151 60.2301 181.446 59.8904 181.677 59.6018C181.909 59.3101 182.08 59.0365 182.191 58.781C182.305 58.5224 182.363 58.2518 182.363 57.9692C182.363 57.6445 182.284 57.3634 182.128 57.1259C181.975 56.8884 181.764 56.705 181.497 56.5757C181.229 56.4464 180.928 56.3818 180.595 56.3818C180.24 56.3818 179.93 56.4554 179.666 56.6027C179.404 56.7471 179.201 56.95 179.057 57.2116C178.916 57.4731 178.845 57.7798 178.845 58.1316H177.781C177.781 57.5904 177.905 57.1154 178.155 56.7065C178.404 56.2976 178.744 55.9789 179.174 55.7504C179.607 55.5219 180.093 55.4076 180.631 55.4076C181.172 55.4076 181.652 55.5219 182.069 55.7504C182.487 55.9789 182.815 56.2871 183.053 56.6749C183.29 57.0627 183.409 57.4942 183.409 57.9692C183.409 58.309 183.347 58.6412 183.224 58.9659C183.104 59.2876 182.893 59.6469 182.593 60.0437C182.295 60.4376 181.882 60.9186 181.352 61.4869L179.278 63.7057V63.7778H183.571V64.77H177.745Z" fill="#4B4B4A"/>
<path d="M188.446 64.8963C187.767 64.8963 187.188 64.7114 186.71 64.3416C186.232 63.9688 185.867 63.4291 185.614 62.7225C185.362 62.013 185.235 61.1561 185.235 60.152C185.235 59.1538 185.362 58.3014 185.614 57.5949C185.87 56.8854 186.237 56.3442 186.715 55.9714C187.196 55.5956 187.773 55.4076 188.446 55.4076C189.12 55.4076 189.696 55.5956 190.174 55.9714C190.655 56.3442 191.021 56.8854 191.274 57.5949C191.53 58.3014 191.657 59.1538 191.657 60.152C191.657 61.1561 191.531 62.013 191.278 62.7225C191.026 63.4291 190.661 63.9688 190.183 64.3416C189.705 64.7114 189.126 64.8963 188.446 64.8963ZM188.446 63.9041C189.12 63.9041 189.643 63.5794 190.016 62.93C190.389 62.2806 190.575 61.3546 190.575 60.152C190.575 59.3522 190.489 58.6712 190.318 58.109C190.15 57.5468 189.906 57.1184 189.587 56.8237C189.272 56.5291 188.891 56.3818 188.446 56.3818C187.779 56.3818 187.257 56.711 186.881 57.3694C186.506 58.0248 186.318 58.9524 186.318 60.152C186.318 60.9517 186.402 61.6312 186.57 62.1904C186.739 62.7496 186.981 63.175 187.296 63.4667C187.615 63.7583 187.998 63.9041 188.446 63.9041Z" fill="#4B4B4A"/>
<path d="M193.371 64.77V63.9582L196.42 60.621C196.777 60.2301 197.072 59.8904 197.304 59.6018C197.535 59.3101 197.706 59.0365 197.818 58.781C197.932 58.5224 197.989 58.2518 197.989 57.9692C197.989 57.6445 197.911 57.3634 197.755 57.1259C197.601 56.8884 197.391 56.705 197.123 56.5757C196.856 56.4464 196.555 56.3818 196.221 56.3818C195.866 56.3818 195.557 56.4554 195.292 56.6027C195.031 56.7471 194.828 56.95 194.683 57.2116C194.542 57.4731 194.471 57.7798 194.471 58.1316H193.407C193.407 57.5904 193.532 57.1154 193.781 56.7065C194.031 56.2976 194.371 55.9789 194.801 55.7504C195.234 55.5219 195.719 55.4076 196.257 55.4076C196.798 55.4076 197.278 55.5219 197.696 55.7504C198.114 55.9789 198.442 56.2871 198.679 56.6749C198.917 57.0627 199.035 57.4942 199.035 57.9692C199.035 58.309 198.974 58.6412 198.85 58.9659C198.73 59.2876 198.52 59.6469 198.219 60.0437C197.921 60.4376 197.508 60.9186 196.979 61.4869L194.904 63.7057V63.7778H199.198V64.77H193.371Z" fill="#4B4B4A"/>
<path d="M200.645 62.8759V61.9559L204.704 55.5339H205.372V56.959H204.921L201.854 61.8116V61.8837H207.32V62.8759H200.645ZM204.993 64.77V55.5339H206.057V64.77H204.993Z" fill="#4B4B4A"/>
<path d="M73.16 16.24H37.78V51.62H73.16V16.24Z" fill="#E60000"/>
<path d="M37.78 66.92L55.58 76.24L73.16 66.92V51.61H37.78V66.92Z" fill="#002171"/>
<path d="M53.78 63.69C53.99 63.58 54.09 63.42 54.09 63.23C54.09 63.1 54.04 62.98 53.93 62.87C53.81 62.74 53.64 62.67 53.44 62.67C53.32 62.67 53.21 62.69 53.12 62.74C53.02 62.79 52.95 62.85 52.89 62.93C52.84 63.01 52.8 63.11 52.77 63.24L53.15 63.3C53.16 63.21 53.19 63.13 53.24 63.08C53.29 63.03 53.35 63.01 53.42 63.01C53.49 63.01 53.55 63.03 53.59 63.07C53.63 63.11 53.65 63.17 53.65 63.24C53.65 63.33 53.62 63.4 53.56 63.45C53.5 63.5 53.42 63.53 53.3 63.52L53.25 63.86C53.32 63.84 53.39 63.83 53.44 63.83C53.52 63.83 53.59 63.86 53.65 63.92C53.71 63.98 53.73 64.06 53.73 64.17C53.73 64.28 53.7 64.37 53.64 64.44C53.58 64.5 53.51 64.54 53.42 64.54C53.34 64.54 53.27 64.51 53.22 64.46C53.16 64.4 53.13 64.33 53.12 64.22L52.72 64.27C52.74 64.45 52.82 64.6 52.95 64.71C53.08 64.82 53.24 64.88 53.44 64.88C53.65 64.88 53.82 64.81 53.96 64.68C54.1 64.55 54.17 64.38 54.17 64.19C54.17 64.06 54.13 63.95 54.06 63.85C53.99 63.76 53.89 63.7 53.76 63.67L53.78 63.69Z" fill="white"/>
<path d="M51.99 64.11C52.12 63.99 52.21 63.9 52.26 63.84C52.34 63.74 52.39 63.65 52.42 63.56C52.46 63.47 52.48 63.38 52.48 63.28C52.48 63.11 52.42 62.96 52.3 62.85C52.18 62.73 52.01 62.68 51.8 62.68C51.6 62.68 51.44 62.73 51.31 62.83C51.18 62.93 51.1 63.09 51.08 63.32L51.49 63.36C51.49 63.24 51.53 63.15 51.58 63.1C51.63 63.05 51.7 63.02 51.79 63.02C51.88 63.02 51.94 63.05 51.99 63.09C52.04 63.14 52.07 63.21 52.07 63.3C52.07 63.38 52.04 63.47 51.98 63.56C51.94 63.62 51.82 63.74 51.63 63.92C51.4 64.14 51.24 64.31 51.16 64.44C51.08 64.57 51.03 64.71 51.02 64.85H52.48V64.46H51.65C51.65 64.46 51.7 64.39 51.73 64.35C51.77 64.31 51.85 64.23 51.98 64.11H51.99Z" fill="white"/>
<path d="M50.09 62.67C49.88 62.67 49.71 62.74 49.6 62.89C49.46 63.07 49.39 63.36 49.39 63.77C49.39 64.18 49.45 64.48 49.58 64.64C49.71 64.8 49.88 64.88 50.09 64.88C50.3 64.88 50.46 64.81 50.58 64.66C50.72 64.48 50.79 64.18 50.79 63.77C50.79 63.36 50.72 63.06 50.58 62.88C50.46 62.73 50.3 62.65 50.09 62.65V62.67ZM50.32 64.33C50.3 64.41 50.27 64.47 50.23 64.5C50.19 64.53 50.15 64.55 50.1 64.55C50.05 64.55 50 64.53 49.96 64.5C49.92 64.47 49.89 64.4 49.86 64.31C49.83 64.22 49.82 64.04 49.82 63.79C49.82 63.54 49.83 63.35 49.87 63.24C49.89 63.16 49.92 63.1 49.96 63.07C50 63.04 50.04 63.02 50.1 63.02C50.16 63.02 50.19 63.04 50.23 63.07C50.27 63.1 50.3 63.17 50.33 63.26C50.36 63.36 50.37 63.53 50.37 63.79C50.37 64.05 50.36 64.22 50.33 64.33H50.32Z" fill="white"/>
<path d="M42.69 62.64C42.51 62.64 42.36 62.67 42.22 62.73C42.12 62.77 42.02 62.84 41.94 62.93C41.85 63.02 41.79 63.12 41.74 63.23C41.67 63.38 41.64 63.56 41.64 63.79C41.64 64.14 41.73 64.41 41.92 64.6C42.11 64.8 42.37 64.89 42.69 64.89C43.01 64.89 43.26 64.79 43.45 64.6C43.64 64.4 43.74 64.13 43.74 63.78C43.74 63.43 43.64 63.15 43.45 62.95C43.26 62.75 43 62.65 42.68 62.65L42.69 62.64ZM43.12 64.33C43.01 64.46 42.86 64.52 42.69 64.52C42.52 64.52 42.37 64.46 42.26 64.33C42.15 64.2 42.09 64.02 42.09 63.77C42.09 63.52 42.15 63.33 42.25 63.21C42.36 63.09 42.51 63.02 42.69 63.02C42.87 63.02 43.02 63.08 43.12 63.2C43.23 63.32 43.28 63.51 43.28 63.76C43.28 64.01 43.22 64.2 43.11 64.33H43.12Z" fill="white"/>
<path d="M45.09 63.94C45.09 64.17 45.08 64.31 45.06 64.37C45.04 64.43 45 64.48 44.94 64.52C44.88 64.56 44.82 64.58 44.75 64.58C44.69 64.58 44.64 64.57 44.59 64.54C44.55 64.51 44.52 64.47 44.51 64.42C44.49 64.37 44.49 64.24 44.49 64.01V63.29H44.08V64.29C44.08 64.44 44.1 64.56 44.13 64.64C44.17 64.72 44.23 64.79 44.31 64.84C44.39 64.89 44.49 64.91 44.59 64.91C44.69 64.91 44.79 64.89 44.89 64.84C44.98 64.79 45.06 64.72 45.12 64.64V64.88H45.51V63.31H45.09V63.97V63.94Z" fill="white"/>
<path d="M48.62 64.11C48.75 63.99 48.84 63.9 48.89 63.84C48.97 63.74 49.02 63.65 49.05 63.56C49.09 63.47 49.11 63.38 49.11 63.28C49.11 63.11 49.05 62.96 48.93 62.85C48.81 62.73 48.64 62.68 48.43 62.68C48.23 62.68 48.07 62.73 47.94 62.83C47.81 62.93 47.73 63.09 47.71 63.32L48.12 63.36C48.12 63.24 48.16 63.15 48.21 63.1C48.26 63.05 48.33 63.02 48.42 63.02C48.51 63.02 48.57 63.05 48.62 63.09C48.67 63.14 48.7 63.21 48.7 63.3C48.7 63.38 48.67 63.47 48.61 63.56C48.57 63.62 48.45 63.74 48.26 63.92C48.03 64.14 47.87 64.31 47.79 64.44C47.71 64.57 47.66 64.71 47.65 64.85H49.11V64.46H48.28C48.28 64.46 48.33 64.39 48.36 64.35C48.4 64.31 48.48 64.23 48.61 64.11H48.62Z" fill="white"/>
<path d="M46.49 64.55C46.49 64.55 46.44 64.55 46.42 64.53C46.4 64.52 46.39 64.5 46.38 64.48C46.38 64.46 46.38 64.38 46.38 64.25V63.62H46.66V63.29H46.38V62.73L45.96 62.97V63.28H45.77V63.61H45.96V64.3C45.96 64.45 45.96 64.54 45.97 64.59C45.98 64.66 46 64.71 46.03 64.75C46.06 64.79 46.1 64.82 46.16 64.85C46.22 64.87 46.29 64.89 46.36 64.89C46.48 64.89 46.59 64.87 46.69 64.83L46.65 64.51C46.58 64.54 46.52 64.55 46.48 64.55H46.49Z" fill="white"/>
<path d="M46.73 64.89H47.03L47.58 62.64H47.26L46.73 64.89Z" fill="white"/>
<path d="M64.13 64.11C64.26 63.99 64.35 63.9 64.4 63.84C64.48 63.74 64.53 63.65 64.56 63.56C64.6 63.47 64.62 63.38 64.62 63.28C64.62 63.11 64.56 62.96 64.44 62.85C64.32 62.73 64.15 62.68 63.94 62.68C63.74 62.68 63.58 62.73 63.45 62.83C63.32 62.93 63.24 63.09 63.22 63.32L63.63 63.36C63.63 63.24 63.67 63.15 63.72 63.1C63.77 63.05 63.84 63.02 63.93 63.02C64.02 63.02 64.08 63.05 64.13 63.09C64.18 63.14 64.21 63.21 64.21 63.3C64.21 63.38 64.18 63.47 64.12 63.56C64.08 63.62 63.96 63.74 63.77 63.92C63.54 64.14 63.38 64.31 63.3 64.44C63.22 64.57 63.17 64.71 63.16 64.85H64.62V64.46H63.79C63.79 64.46 63.84 64.39 63.87 64.35C63.91 64.31 63.99 64.23 64.12 64.11H64.13Z" fill="white"/>
<path d="M67.51 64.11C67.64 63.99 67.73 63.9 67.78 63.84C67.86 63.74 67.91 63.65 67.94 63.56C67.98 63.47 67.99 63.38 67.99 63.28C67.99 63.11 67.93 62.96 67.81 62.85C67.69 62.73 67.52 62.68 67.31 62.68C67.11 62.68 66.95 62.73 66.82 62.83C66.69 62.93 66.61 63.09 66.59 63.32L67 63.36C67 63.24 67.04 63.15 67.09 63.1C67.14 63.05 67.21 63.02 67.3 63.02C67.39 63.02 67.45 63.05 67.5 63.09C67.55 63.14 67.58 63.21 67.58 63.3C67.58 63.38 67.55 63.47 67.49 63.56C67.45 63.62 67.33 63.74 67.14 63.92C66.91 64.14 66.75 64.31 66.67 64.44C66.59 64.57 66.54 64.71 66.53 64.85H67.99V64.46H67.16C67.16 64.46 67.21 64.39 67.24 64.35C67.28 64.31 67.36 64.23 67.49 64.11H67.51Z" fill="white"/>
<path d="M65.61 62.67C65.4 62.67 65.23 62.74 65.12 62.89C64.98 63.07 64.91 63.36 64.91 63.77C64.91 64.18 64.97 64.48 65.1 64.64C65.23 64.8 65.4 64.88 65.61 64.88C65.82 64.88 65.98 64.81 66.1 64.66C66.24 64.48 66.31 64.18 66.31 63.77C66.31 63.36 66.24 63.06 66.1 62.88C65.98 62.73 65.82 62.65 65.61 62.65V62.67ZM65.83 64.33C65.81 64.41 65.78 64.47 65.74 64.5C65.7 64.53 65.66 64.55 65.61 64.55C65.56 64.55 65.51 64.53 65.47 64.5C65.43 64.47 65.4 64.4 65.37 64.31C65.34 64.22 65.33 64.04 65.33 63.79C65.33 63.54 65.34 63.35 65.38 63.24C65.4 63.16 65.43 63.1 65.47 63.07C65.51 63.04 65.55 63.02 65.61 63.02C65.67 63.02 65.7 63.04 65.74 63.07C65.78 63.1 65.81 63.17 65.84 63.26C65.87 63.36 65.88 63.53 65.88 63.79C65.88 64.05 65.87 64.22 65.84 64.33H65.83Z" fill="white"/>
<path d="M69.5 62.67H69.15L68.21 64.05V64.42H69.1V64.86H69.5V64.42H69.77V64.05H69.5V62.67ZM69.1 64.05H68.6L69.1 63.31V64.05Z" fill="white"/>
<path d="M56.16 63.86H55.34V64.28H56.16V63.86Z" fill="white"/>
<path d="M60.61 63.94C60.61 64.17 60.6 64.31 60.58 64.37C60.56 64.43 60.52 64.48 60.46 64.52C60.4 64.56 60.34 64.58 60.27 64.58C60.21 64.58 60.16 64.57 60.11 64.54C60.07 64.51 60.04 64.47 60.03 64.42C60.01 64.37 60.01 64.24 60.01 64.01V63.29H59.6V64.29C59.6 64.44 59.62 64.56 59.66 64.64C59.7 64.72 59.76 64.79 59.84 64.84C59.92 64.89 60.02 64.91 60.12 64.91C60.22 64.91 60.32 64.89 60.42 64.84C60.51 64.79 60.59 64.72 60.65 64.64V64.88H61.04V63.31H60.62V63.97L60.61 63.94Z" fill="white"/>
<path d="M58.2 62.64C58.02 62.64 57.87 62.67 57.73 62.73C57.63 62.77 57.53 62.84 57.45 62.93C57.36 63.02 57.3 63.12 57.25 63.23C57.18 63.38 57.15 63.56 57.15 63.79C57.15 64.14 57.24 64.41 57.43 64.6C57.62 64.8 57.88 64.89 58.2 64.89C58.52 64.89 58.77 64.79 58.96 64.6C59.15 64.4 59.25 64.13 59.25 63.78C59.25 63.43 59.15 63.15 58.96 62.95C58.77 62.75 58.51 62.65 58.19 62.65L58.2 62.64ZM58.64 64.33C58.53 64.46 58.38 64.52 58.21 64.52C58.04 64.52 57.89 64.46 57.78 64.33C57.67 64.2 57.61 64.02 57.61 63.77C57.61 63.52 57.66 63.33 57.77 63.21C57.88 63.09 58.03 63.02 58.21 63.02C58.39 63.02 58.53 63.08 58.64 63.2C58.75 63.32 58.8 63.51 58.8 63.76C58.8 64.01 58.74 64.2 58.63 64.33H58.64Z" fill="white"/>
<path d="M62 64.55C62 64.55 61.95 64.55 61.93 64.53C61.91 64.52 61.9 64.5 61.89 64.48C61.89 64.46 61.89 64.38 61.89 64.25V63.62H62.17V63.29H61.89V62.73L61.47 62.97V63.28H61.28V63.61H61.47V64.3C61.47 64.45 61.47 64.54 61.48 64.59C61.49 64.66 61.51 64.71 61.54 64.75C61.57 64.79 61.61 64.82 61.67 64.85C61.73 64.87 61.8 64.89 61.87 64.89C61.99 64.89 62.1 64.87 62.2 64.83L62.16 64.51C62.09 64.54 62.03 64.55 61.99 64.55H62Z" fill="white"/>
<path d="M62.24 64.89H62.55L63.09 62.64H62.78L62.24 64.89Z" fill="white"/>
<path d="M43.63 22.87H45.51C45.4 23.24 45.19 23.53 44.87 23.74C44.56 23.95 44.17 24.05 43.69 24.05C43.05 24.05 42.53 23.86 42.14 23.48C41.75 23.1 41.56 22.61 41.56 22.03C41.56 21.45 41.75 20.94 42.13 20.56C42.51 20.17 43 19.98 43.59 19.98C43.96 19.98 44.29 20.06 44.59 20.22C44.89 20.38 45.11 20.59 45.26 20.84L46.31 20.24C46.04 19.8 45.67 19.45 45.19 19.19C44.71 18.92 44.18 18.79 43.6 18.79C42.67 18.79 41.9 19.11 41.27 19.73C40.64 20.36 40.33 21.13 40.33 22.03C40.33 22.93 40.65 23.69 41.28 24.32C41.91 24.95 42.71 25.26 43.67 25.26C44.57 25.26 45.31 24.98 45.87 24.43C46.44 23.88 46.73 23.16 46.73 22.27V21.79H43.61V22.88L43.63 22.87Z" fill="white"/>
<path d="M48.56 20.6H47.41V25.05H48.56V22.92C48.56 22.49 48.7 22.19 48.97 22.01C49.25 21.83 49.56 21.76 49.91 21.8V20.52C49.61 20.52 49.33 20.59 49.09 20.74C48.84 20.88 48.67 21.1 48.56 21.38V20.6Z" fill="white"/>
<path d="M52.75 20.47C52.06 20.47 51.5 20.69 51.06 21.14C50.62 21.59 50.4 22.15 50.4 22.82C50.4 23.49 50.62 24.06 51.07 24.5C51.52 24.94 52.11 25.17 52.84 25.17C53.69 25.17 54.34 24.85 54.78 24.22L53.86 23.69C53.63 23.99 53.3 24.14 52.86 24.14C52.18 24.14 51.76 23.86 51.61 23.3H54.97C55 23.13 55.02 22.98 55.02 22.83C55.02 22.17 54.81 21.61 54.38 21.16C53.95 20.71 53.42 20.48 52.76 20.48L52.75 20.47ZM51.59 22.41C51.65 22.13 51.79 21.9 51.99 21.75C52.19 21.59 52.45 21.51 52.76 21.51C53.02 21.51 53.25 21.58 53.46 21.73C53.66 21.88 53.8 22.1 53.87 22.41H51.59Z" fill="white"/>
<path d="M59.09 21.12C58.75 20.69 58.26 20.47 57.64 20.47C57.02 20.47 56.54 20.7 56.11 21.15C55.69 21.61 55.48 22.16 55.48 22.82C55.48 23.48 55.69 24.03 56.11 24.49C56.53 24.94 57.04 25.17 57.64 25.17C58.24 25.17 58.75 24.95 59.09 24.52V25.04H60.24V20.59H59.09V21.12ZM58.74 23.73C58.51 23.96 58.21 24.08 57.85 24.08C57.49 24.08 57.2 23.96 56.97 23.73C56.74 23.5 56.62 23.19 56.62 22.82C56.62 22.45 56.73 22.15 56.97 21.92C57.2 21.69 57.49 21.57 57.85 21.57C58.21 21.57 58.5 21.69 58.74 21.92C58.97 22.15 59.09 22.45 59.09 22.82C59.09 23.19 58.97 23.49 58.74 23.73Z" fill="white"/>
<path d="M63.02 19.36L61.87 19.71V20.61H61.1V21.71H61.87V23.56C61.87 24.17 62.03 24.59 62.35 24.83C62.67 25.07 63.23 25.14 64.02 25.05V24.01C63.8 24.02 63.62 24.03 63.47 24.01C63.32 24 63.21 23.96 63.13 23.89C63.05 23.82 63.01 23.71 63.01 23.55V21.7H64.02V20.6H63.01V19.36H63.02Z" fill="white"/>
<path d="M43.47 26.66H41.15V32.89H42.38V30.84H43.47C44.07 30.84 44.57 30.64 44.98 30.24C45.39 29.84 45.59 29.34 45.59 28.76C45.59 28.18 45.38 27.68 44.98 27.27C44.57 26.87 44.07 26.67 43.47 26.67V26.66ZM44.12 29.42C43.95 29.6 43.73 29.69 43.47 29.69H42.38V27.81H43.47C43.73 27.81 43.95 27.9 44.12 28.08C44.29 28.26 44.38 28.48 44.38 28.75C44.38 29.02 44.29 29.24 44.12 29.42Z" fill="white"/>
<path d="M47.63 26.5H46.48V32.99H47.63V26.5Z" fill="white"/>
<path d="M52.09 28.97C51.75 28.54 51.26 28.32 50.64 28.32C50.02 28.32 49.54 28.55 49.11 29C48.69 29.45 48.48 30.01 48.48 30.67C48.48 31.33 48.69 31.88 49.11 32.34C49.53 32.8 50.04 33.02 50.64 33.02C51.24 33.02 51.75 32.8 52.09 32.37V32.89H53.24V28.44H52.09V28.97ZM51.74 31.57C51.51 31.8 51.21 31.92 50.85 31.92C50.49 31.92 50.2 31.8 49.97 31.57C49.74 31.34 49.62 31.03 49.62 30.66C49.62 30.29 49.73 29.99 49.97 29.76C50.2 29.53 50.49 29.41 50.85 29.41C51.21 29.41 51.5 29.53 51.74 29.76C51.97 29.99 52.09 30.29 52.09 30.66C52.09 31.03 51.97 31.33 51.74 31.57Z" fill="white"/>
<path d="M57.17 31.72C56.99 31.82 56.78 31.88 56.55 31.88C56.2 31.88 55.92 31.77 55.69 31.54C55.47 31.31 55.35 31.02 55.35 30.67C55.35 30.32 55.46 30.02 55.69 29.79C55.92 29.56 56.2 29.45 56.55 29.45C56.77 29.45 56.98 29.5 57.16 29.61C57.34 29.72 57.48 29.86 57.56 30.04L58.55 29.46C58.36 29.11 58.09 28.83 57.74 28.63C57.38 28.42 56.99 28.32 56.56 28.32C55.89 28.32 55.33 28.55 54.88 29C54.43 29.45 54.21 30.01 54.21 30.67C54.21 31.33 54.43 31.89 54.88 32.34C55.33 32.79 55.89 33.02 56.56 33.02C56.99 33.02 57.39 32.91 57.74 32.7C58.1 32.49 58.37 32.21 58.57 31.86L57.57 31.29C57.48 31.47 57.35 31.62 57.17 31.72Z" fill="white"/>
<path d="M61.53 28.32C60.84 28.32 60.28 28.54 59.84 28.99C59.4 29.44 59.18 30 59.18 30.67C59.18 31.34 59.4 31.91 59.85 32.35C60.3 32.79 60.89 33.02 61.62 33.02C62.47 33.02 63.12 32.7 63.56 32.07L62.64 31.54C62.41 31.84 62.08 31.99 61.64 31.99C60.96 31.99 60.54 31.71 60.39 31.15H63.75C63.78 30.98 63.8 30.83 63.8 30.68C63.8 30.02 63.59 29.46 63.16 29.01C62.73 28.56 62.2 28.33 61.54 28.33L61.53 28.32ZM60.36 30.25C60.42 29.97 60.56 29.74 60.76 29.59C60.96 29.43 61.22 29.35 61.53 29.35C61.79 29.35 62.02 29.42 62.23 29.57C62.43 29.72 62.57 29.94 62.64 30.25H60.36Z" fill="white"/>
<path d="M40.38 35.8H42.05V40.86H43.28V35.8H44.96V34.63H40.38V35.8Z" fill="white"/>
<path d="M46.84 36.14C46.18 36.14 45.63 36.37 45.17 36.82C44.72 37.28 44.49 37.83 44.49 38.49C44.49 39.15 44.72 39.7 45.17 40.16C45.62 40.62 46.18 40.84 46.84 40.84C47.5 40.84 48.06 40.61 48.51 40.16C48.97 39.71 49.2 39.15 49.2 38.49C49.2 37.83 48.97 37.28 48.51 36.82C48.05 36.37 47.49 36.14 46.84 36.14ZM47.7 39.37C47.47 39.6 47.18 39.72 46.84 39.72C46.5 39.72 46.21 39.61 45.98 39.37C45.75 39.14 45.64 38.84 45.64 38.49C45.64 38.14 45.75 37.84 45.98 37.61C46.21 37.38 46.49 37.26 46.84 37.26C47.19 37.26 47.47 37.38 47.7 37.61C47.93 37.84 48.05 38.13 48.05 38.49C48.05 38.85 47.93 39.14 47.7 39.37Z" fill="white"/>
<path d="M46.64 47.17L45.33 42.55H44.28L42.98 47.17L41.79 42.55H40.5L42.25 48.78H43.64L44.81 44.67L45.98 48.78H47.38L49.12 42.55H47.83L46.64 47.17Z" fill="white"/>
<path d="M51.35 44.12C50.69 44.12 50.14 44.35 49.68 44.8C49.23 45.25 49 45.81 49 46.47C49 47.13 49.23 47.68 49.68 48.14C50.13 48.59 50.69 48.82 51.35 48.82C52.01 48.82 52.57 48.59 53.02 48.14C53.48 47.69 53.71 47.13 53.71 46.47C53.71 45.81 53.48 45.26 53.02 44.8C52.56 44.35 52 44.12 51.35 44.12ZM52.21 47.36C51.98 47.59 51.69 47.71 51.35 47.71C51.01 47.71 50.72 47.6 50.49 47.36C50.26 47.13 50.15 46.83 50.15 46.48C50.15 46.13 50.26 45.83 50.49 45.6C50.72 45.37 51 45.25 51.35 45.25C51.7 45.25 51.98 45.37 52.21 45.6C52.44 45.83 52.56 46.12 52.56 46.48C52.56 46.84 52.44 47.13 52.21 47.36Z" fill="white"/>
<path d="M55.65 44.33H54.5V48.78H55.65V46.65C55.65 46.22 55.79 45.92 56.06 45.74C56.34 45.56 56.65 45.49 57 45.53V44.25C56.7 44.25 56.42 44.32 56.18 44.47C55.93 44.61 55.76 44.83 55.65 45.11V44.33Z" fill="white"/>
<path d="M61.87 44.31H60.5L58.96 46.27V42.53H57.82V48.76H58.96V46.74L60.58 48.76H61.92L60.08 46.51L61.87 44.31Z" fill="white"/>
<path d="M63.7 48.01C63.74 47.96 63.76 47.9 63.76 47.84C63.76 47.75 63.73 47.67 63.66 47.6C63.6 47.53 63.52 47.5 63.42 47.5H63.01V48.52H63.21V48.17H63.36L63.56 48.52H63.78L63.55 48.14C63.61 48.11 63.66 48.07 63.69 48.02L63.7 48.01ZM63.51 47.94C63.51 47.94 63.45 47.98 63.42 47.98H63.21V47.68H63.42C63.42 47.68 63.49 47.7 63.51 47.73C63.54 47.76 63.55 47.79 63.55 47.84C63.55 47.89 63.54 47.92 63.51 47.95V47.94Z" fill="white"/>
<path d="M63.33 47.02C62.8 47.02 62.38 47.44 62.38 47.97C62.38 48.5 62.8 48.92 63.33 48.92C63.86 48.92 64.28 48.49 64.28 47.97C64.28 47.45 63.86 47.02 63.33 47.02ZM63.33 48.67C62.95 48.67 62.63 48.36 62.63 47.97C62.63 47.58 62.94 47.27 63.33 47.27C63.72 47.27 64.02 47.58 64.02 47.97C64.02 48.36 63.71 48.67 63.33 48.67Z" fill="white"/>
<path d="M42.76 57.38C42.55 57.54 42.3 57.61 42.01 57.61C41.83 57.61 41.66 57.58 41.51 57.52C41.36 57.46 41.22 57.37 41.11 57.25C41 57.13 40.9 56.98 40.84 56.8C40.78 56.62 40.74 56.41 40.74 56.18C40.74 55.96 40.77 55.76 40.83 55.59C40.89 55.41 40.98 55.26 41.09 55.14C41.2 55.02 41.33 54.92 41.49 54.85C41.65 54.78 41.82 54.75 42.01 54.75C42.31 54.75 42.56 54.83 42.77 54.99C42.97 55.15 43.1 55.38 43.16 55.69L44.09 55.61C44.05 55.35 43.97 55.12 43.85 54.92C43.73 54.72 43.58 54.54 43.4 54.4C43.22 54.26 43.01 54.15 42.78 54.07C42.55 53.99 42.3 53.96 42.04 53.96C41.72 53.96 41.43 54.01 41.16 54.11C40.89 54.21 40.66 54.35 40.46 54.55C40.26 54.74 40.11 54.97 40 55.25C39.89 55.53 39.84 55.84 39.84 56.19C39.84 56.54 39.89 56.85 40 57.12C40.11 57.4 40.26 57.63 40.46 57.82C40.66 58.01 40.89 58.16 41.16 58.26C41.43 58.36 41.73 58.41 42.04 58.41C42.3 58.41 42.55 58.37 42.78 58.3C43.01 58.22 43.22 58.12 43.4 57.98C43.58 57.84 43.73 57.67 43.85 57.47C43.97 57.27 44.06 57.04 44.1 56.78L43.16 56.7C43.1 57 42.97 57.23 42.77 57.39L42.76 57.38Z" fill="white"/>
<path d="M47.12 55.68C46.99 55.55 46.84 55.45 46.67 55.39C46.49 55.32 46.3 55.29 46.08 55.29C45.86 55.29 45.65 55.33 45.47 55.4C45.28 55.47 45.12 55.57 44.99 55.71C44.86 55.84 44.75 56.01 44.68 56.2C44.6 56.39 44.57 56.61 44.57 56.85C44.57 57.09 44.61 57.31 44.68 57.5C44.76 57.69 44.86 57.86 44.99 57.99C45.13 58.12 45.29 58.23 45.48 58.3C45.67 58.37 45.88 58.41 46.11 58.41C46.28 58.41 46.45 58.39 46.6 58.34C46.76 58.29 46.9 58.22 47.02 58.14C47.14 58.05 47.24 57.95 47.32 57.83C47.4 57.71 47.46 57.58 47.48 57.44L46.63 57.4C46.6 57.5 46.54 57.58 46.44 57.64C46.34 57.7 46.22 57.73 46.08 57.73C45.89 57.73 45.74 57.67 45.63 57.57C45.52 57.46 45.47 57.31 45.46 57.13H47.52V56.79C47.52 56.56 47.49 56.35 47.42 56.17C47.35 55.98 47.26 55.83 47.13 55.7L47.12 55.68ZM45.45 56.55C45.46 56.36 45.52 56.21 45.63 56.11C45.74 56 45.89 55.95 46.07 55.95C46.26 55.95 46.41 56 46.5 56.11C46.59 56.22 46.65 56.36 46.65 56.55H45.45Z" fill="white"/>
<path d="M48.95 55.68V55.34H48.13V58.33H48.98V56.81C48.98 56.6 49.05 56.44 49.19 56.31C49.33 56.18 49.52 56.12 49.77 56.12V55.31C49.54 55.31 49.36 55.35 49.23 55.42C49.1 55.49 49.01 55.58 48.95 55.68Z" fill="white"/>
<path d="M51.39 54.33H50.55V55.32H49.99V56.05H50.53V57.37C50.53 57.54 50.55 57.7 50.6 57.82C50.65 57.95 50.73 58.05 50.82 58.13C50.91 58.21 51.03 58.27 51.16 58.31C51.3 58.35 51.44 58.37 51.61 58.37C51.73 58.37 51.82 58.37 51.88 58.36C51.95 58.36 52.01 58.35 52.07 58.34V57.59C52.07 57.59 52 57.61 51.96 57.61C51.92 57.61 51.87 57.61 51.81 57.61C51.69 57.61 51.58 57.58 51.49 57.51C51.4 57.44 51.35 57.32 51.35 57.16V56.05H52.06V55.32H51.36V54.33H51.39Z" fill="white"/>
<path d="M53.47 55.35H52.62V58.34H53.47V55.35Z" fill="white"/>
<path d="M53.04 53.85C52.97 53.85 52.91 53.86 52.85 53.89C52.79 53.92 52.74 53.95 52.69 54C52.64 54.05 52.61 54.1 52.58 54.16C52.55 54.22 52.54 54.29 52.54 54.36C52.54 54.5 52.59 54.62 52.69 54.72C52.79 54.82 52.91 54.87 53.05 54.87C53.19 54.87 53.31 54.82 53.41 54.72C53.51 54.62 53.56 54.5 53.56 54.36C53.56 54.22 53.51 54.09 53.41 54C53.31 53.9 53.19 53.85 53.05 53.85H53.04Z" fill="white"/>
<path d="M55.7 53.8C55.51 53.8 55.34 53.83 55.19 53.89C55.04 53.95 54.91 54.03 54.8 54.14C54.69 54.25 54.61 54.38 54.55 54.53C54.49 54.68 54.46 54.85 54.46 55.04V55.35H53.92V56.08H54.46V58.35H55.3V56.08H55.99V55.35H55.3V55.02C55.3 54.88 55.35 54.76 55.44 54.68C55.53 54.59 55.65 54.55 55.8 54.55C55.84 54.55 55.88 54.55 55.91 54.55C55.94 54.55 55.97 54.55 56 54.55V53.82C56 53.82 55.91 53.81 55.87 53.81C55.83 53.81 55.77 53.81 55.71 53.81L55.7 53.8Z" fill="white"/>
<path d="M57.36 55.35H56.51V58.34H57.36V55.35Z" fill="white"/>
<path d="M56.93 53.85C56.86 53.85 56.8 53.86 56.74 53.89C56.68 53.92 56.63 53.95 56.58 54C56.53 54.05 56.5 54.1 56.47 54.16C56.44 54.22 56.43 54.29 56.43 54.36C56.43 54.5 56.48 54.62 56.58 54.72C56.68 54.82 56.8 54.87 56.94 54.87C57.08 54.87 57.2 54.82 57.3 54.72C57.4 54.62 57.45 54.5 57.45 54.36C57.45 54.22 57.4 54.09 57.3 54C57.2 53.9 57.08 53.85 56.94 53.85H56.93Z" fill="white"/>
<path d="M59.48 56.01C59.64 56.01 59.78 56.06 59.88 56.15C59.99 56.24 60.05 56.36 60.07 56.52L60.9 56.45C60.87 56.27 60.82 56.11 60.73 55.97C60.65 55.83 60.54 55.7 60.42 55.6C60.29 55.5 60.15 55.42 59.99 55.37C59.83 55.32 59.66 55.29 59.48 55.29C59.26 55.29 59.06 55.32 58.87 55.39C58.68 55.46 58.52 55.56 58.38 55.69C58.25 55.82 58.14 55.99 58.06 56.18C57.98 56.37 57.94 56.59 57.94 56.84C57.94 57.09 57.98 57.3 58.06 57.5C58.14 57.69 58.24 57.85 58.38 57.99C58.52 58.12 58.68 58.22 58.87 58.3C59.06 58.37 59.26 58.41 59.48 58.41C59.67 58.41 59.84 58.38 59.99 58.33C60.15 58.28 60.29 58.2 60.42 58.1C60.54 58 60.65 57.88 60.73 57.74C60.81 57.6 60.87 57.44 60.9 57.26L60.08 57.18C60.06 57.33 59.99 57.45 59.89 57.54C59.79 57.63 59.65 57.67 59.49 57.67C59.29 57.67 59.13 57.6 59 57.46C58.87 57.32 58.81 57.11 58.81 56.85C58.81 56.59 58.87 56.38 59 56.23C59.13 56.09 59.29 56.01 59.49 56.01H59.48Z" fill="white"/>
<path d="M58.01 70.25C57.94 70.2 57.86 70.15 57.76 70.12C57.66 70.08 57.55 70.05 57.44 70.02C57.36 70 57.29 69.98 57.23 69.97C57.17 69.95 57.13 69.93 57.09 69.91C57.06 69.89 57.03 69.86 57.01 69.83C56.99 69.8 56.98 69.76 56.98 69.72C56.98 69.64 57.01 69.57 57.07 69.52C57.13 69.47 57.22 69.44 57.33 69.44C57.44 69.44 57.53 69.47 57.59 69.53C57.65 69.59 57.68 69.67 57.69 69.77L58.18 69.74C58.18 69.63 58.15 69.53 58.11 69.44C58.07 69.35 58.01 69.28 57.93 69.21C57.85 69.15 57.77 69.1 57.66 69.07C57.56 69.04 57.44 69.02 57.32 69.02C57.18 69.02 57.06 69.04 56.96 69.08C56.86 69.12 56.77 69.17 56.7 69.24C56.63 69.3 56.58 69.38 56.54 69.47C56.51 69.56 56.49 69.65 56.49 69.74C56.49 69.85 56.51 69.95 56.55 70.02C56.59 70.1 56.65 70.16 56.71 70.21C56.78 70.26 56.86 70.3 56.96 70.33C57.05 70.36 57.15 70.39 57.26 70.41C57.42 70.45 57.53 70.49 57.61 70.54C57.69 70.58 57.73 70.65 57.73 70.73C57.73 70.83 57.7 70.9 57.63 70.94C57.56 70.98 57.48 71 57.37 71C57.31 71 57.25 71 57.2 70.98C57.15 70.96 57.1 70.94 57.06 70.91C57.02 70.88 56.99 70.84 56.97 70.8C56.95 70.75 56.94 70.71 56.93 70.65L56.44 70.68C56.44 70.8 56.47 70.91 56.51 71C56.56 71.09 56.62 71.17 56.7 71.24C56.78 71.3 56.88 71.35 56.99 71.38C57.1 71.41 57.23 71.43 57.36 71.43C57.48 71.43 57.59 71.42 57.69 71.39C57.79 71.36 57.88 71.32 57.96 71.26C58.04 71.2 58.1 71.13 58.14 71.04C58.19 70.95 58.21 70.84 58.21 70.72C58.21 70.62 58.19 70.53 58.15 70.46C58.11 70.39 58.06 70.32 57.99 70.27L58.01 70.25Z" fill="white"/>
<path d="M59.08 69.05H58.6V71.37H59.08V69.05Z" fill="white"/>
<path d="M59.99 69.05H59.51V71.37H61V70.95H59.99V69.05Z" fill="white"/>
<path d="M62.62 55.27C62.43 55.27 62.25 55.3 62.1 55.36C61.95 55.42 61.82 55.5 61.71 55.61C61.6 55.71 61.52 55.83 61.46 55.95C61.4 56.08 61.37 56.21 61.37 56.34L62.22 56.38C62.22 56.28 62.25 56.19 62.32 56.11C62.38 56.03 62.49 55.99 62.64 55.99C62.9 55.99 63.03 56.14 63.03 56.45V56.57L62.5 56.6C62.34 56.6 62.19 56.63 62.04 56.66C61.9 56.69 61.77 56.74 61.66 56.82C61.55 56.89 61.46 56.98 61.39 57.09C61.33 57.2 61.29 57.34 61.29 57.51C61.29 57.8 61.38 58.02 61.56 58.17C61.74 58.32 61.98 58.4 62.28 58.4C62.45 58.4 62.6 58.37 62.73 58.31C62.85 58.25 62.96 58.18 63.05 58.09V58.33H63.86V56.48C63.86 56.08 63.75 55.78 63.54 55.58C63.33 55.38 63.02 55.28 62.62 55.28V55.27ZM63.03 57.24C63.03 57.4 62.98 57.52 62.87 57.61C62.77 57.69 62.64 57.73 62.49 57.73C62.39 57.73 62.3 57.71 62.24 57.67C62.18 57.63 62.14 57.56 62.14 57.46C62.14 57.35 62.18 57.28 62.26 57.23C62.34 57.18 62.45 57.15 62.57 57.15L63.02 57.12V57.25L63.03 57.24Z" fill="white"/>
<path d="M66.71 55.62C66.63 55.53 66.52 55.46 66.37 55.4C66.23 55.34 66.05 55.31 65.86 55.31C65.65 55.31 65.45 55.35 65.27 55.42C65.1 55.49 64.94 55.6 64.82 55.74C64.69 55.88 64.59 56.04 64.52 56.23C64.45 56.42 64.41 56.63 64.41 56.87C64.41 57.11 64.45 57.32 64.52 57.51C64.59 57.7 64.69 57.86 64.82 58C64.95 58.14 65.1 58.24 65.27 58.32C65.45 58.39 65.64 58.43 65.86 58.43C66.08 58.43 66.26 58.39 66.41 58.32C66.56 58.25 66.68 58.16 66.76 58.06V58.37H67.56V53.87H66.72V55.64L66.71 55.62ZM66.71 56.93C66.71 57.17 66.64 57.36 66.51 57.5C66.38 57.63 66.21 57.7 66 57.7C65.79 57.7 65.62 57.63 65.48 57.49C65.34 57.35 65.28 57.14 65.28 56.88C65.28 56.62 65.35 56.41 65.48 56.26C65.62 56.12 65.79 56.04 66 56.04C66.21 56.04 66.38 56.11 66.51 56.24C66.64 56.37 66.71 56.56 66.71 56.8V56.93Z" fill="white"/>
<path d="M69.47 55.29C69.28 55.29 69.1 55.32 68.95 55.38C68.8 55.44 68.67 55.52 68.56 55.63C68.45 55.73 68.37 55.85 68.31 55.97C68.25 56.1 68.22 56.23 68.22 56.36L69.07 56.4C69.07 56.3 69.1 56.21 69.17 56.13C69.23 56.05 69.34 56.01 69.49 56.01C69.75 56.01 69.88 56.16 69.88 56.47V56.59L69.35 56.62C69.19 56.62 69.04 56.65 68.89 56.68C68.75 56.71 68.62 56.76 68.51 56.84C68.4 56.91 68.31 57 68.24 57.11C68.18 57.22 68.14 57.36 68.14 57.53C68.14 57.82 68.23 58.04 68.41 58.19C68.59 58.34 68.83 58.42 69.13 58.42C69.3 58.42 69.45 58.39 69.58 58.33C69.7 58.27 69.81 58.2 69.9 58.11V58.35H70.71V56.5C70.71 56.1 70.6 55.8 70.39 55.6C70.18 55.4 69.87 55.3 69.47 55.3V55.29ZM69.87 57.26C69.87 57.42 69.82 57.54 69.71 57.63C69.61 57.71 69.48 57.75 69.33 57.75C69.23 57.75 69.14 57.73 69.08 57.69C69.02 57.65 68.98 57.58 68.98 57.48C68.98 57.37 69.02 57.3 69.1 57.25C69.18 57.2 69.29 57.17 69.41 57.17L69.86 57.14V57.27L69.87 57.26Z" fill="white"/>
<path d="M51.42 70.15C51.49 70.11 51.54 70.05 51.58 69.97C51.62 69.89 51.64 69.8 51.64 69.69C51.64 69.58 51.62 69.49 51.58 69.41C51.55 69.33 51.5 69.26 51.43 69.21C51.37 69.16 51.29 69.12 51.2 69.09C51.11 69.06 51.01 69.05 50.91 69.05H49.94V71.37H50.98C51.09 71.37 51.19 71.36 51.28 71.33C51.37 71.3 51.45 71.26 51.52 71.2C51.59 71.14 51.64 71.07 51.68 70.99C51.72 70.91 51.74 70.81 51.74 70.7C51.74 70.55 51.71 70.43 51.64 70.34C51.58 70.25 51.5 70.19 51.41 70.15H51.42ZM50.43 69.47H50.87C50.96 69.47 51.03 69.49 51.08 69.53C51.13 69.57 51.16 69.64 51.16 69.72C51.16 69.8 51.13 69.87 51.09 69.91C51.04 69.95 50.98 69.97 50.9 69.97H50.44V69.46L50.43 69.47ZM51.16 70.89C51.1 70.93 51.02 70.95 50.93 70.95H50.43V70.39H50.94C51.03 70.39 51.1 70.41 51.16 70.46C51.22 70.5 51.25 70.57 51.25 70.67C51.25 70.77 51.22 70.84 51.16 70.88V70.89Z" fill="white"/>
<path d="M53.77 70.21C53.84 70.1 53.87 69.96 53.87 69.8C53.87 69.68 53.85 69.58 53.81 69.48C53.77 69.39 53.72 69.31 53.65 69.25C53.59 69.19 53.51 69.14 53.41 69.11C53.32 69.08 53.22 69.06 53.11 69.06H52.12V71.38H52.6V70.55H52.99L53.44 71.38H53.98L53.49 70.47C53.61 70.41 53.7 70.33 53.76 70.22L53.77 70.21ZM53.29 70.03C53.23 70.08 53.15 70.11 53.06 70.11H52.6V69.47H53.06C53.15 69.47 53.23 69.5 53.29 69.55C53.35 69.6 53.38 69.68 53.38 69.79C53.38 69.9 53.35 69.97 53.29 70.03Z" fill="white"/>
<path d="M55.05 69.05L54.05 71.37H54.57L54.76 70.92H55.73L55.92 71.37H56.45L55.45 69.05H55.05ZM54.93 70.54L55.24 69.8L55.55 70.54H54.92H54.93Z" fill="white"/>
<path d="M70.54 69.41H70.9V70.21H71.23V69.41H71.59V69.09H70.54V69.41Z" fill="#002171"/>
<path d="M72.41 69.77L72.03 69.09H71.75V70.21H72.08V69.75L72.33 70.2H72.48L72.73 69.75V70.21H73.07V69.09H72.78L72.41 69.77Z" fill="#002171"/>
</g>
<defs>
<linearGradient id="paint0_linear_17_2054" x1="33.165" y1="11.8724" x2="69.5651" y2="113.499" gradientUnits="userSpaceOnUse">
<stop stop-color="#E1B090"/>
<stop offset="0.12" stop-color="#C29375"/>
<stop offset="0.19" stop-color="#C69779"/>
<stop offset="0.26" stop-color="#D1A486"/>
<stop offset="0.34" stop-color="#E3BA9C"/>
<stop offset="0.4" stop-color="#F6D0B2"/>
<stop offset="0.91" stop-color="#B17F60"/>
</linearGradient>
<linearGradient id="paint1_linear_17_2054" x1="0" y1="40.54" x2="226.454" y2="40.54" gradientUnits="userSpaceOnUse">
<stop stop-color="#E1B090"/>
<stop offset="0.12" stop-color="#C29375"/>
<stop offset="0.19" stop-color="#C69779"/>
<stop offset="0.91" stop-color="#B17F60"/>
</linearGradient>
<linearGradient id="paint2_linear_17_2054" x1="20.6932" y1="158.584" x2="222.355" y2="97.982" gradientUnits="userSpaceOnUse">
<stop stop-color="#B17F60"/>
<stop offset="0.18" stop-color="#E2B191"/>
<stop offset="0.96" stop-color="#F6D0B2"/>
</linearGradient>
<clipPath id="clip0_17_2054">
<rect width="229" height="81" fill="white"/>
</clipPath>
</defs>
</svg>
